<ttFont>
        <CharString name=".notdef">
          -360 endchar
        </CharString>
        <CharString name="A">
          40 21 -21 164.5 79 300.5 98 hstem
          -16 531 vstem
          515 hmoveto
          -118 642 rlineto
          -115 hlineto
          -298 -642 rlineto
          97 hlineto
          26 75 40 89 117 2 129 -3 16 -92 7 -71 rlineto
          -36 244 rmoveto
          -99 -1 -96 2 136 299 rlineto
          8 hlineto
          endchar
        </CharString>
        <CharString name="AE">
          257 0 78 484 80 hstemhm
          383 95 -92.5 93.5 hintmask 11100000
          747 76 rmoveto
          -5 8 -157 -6 rlineto
          hintmask 11010000
          -106 191 hlineto
          208 45 2 71 -7 6 rlineto
          hintmask 11100000
          -204 -47 rlineto
          218 89 vlineto
          152 -5 17 76 -5 9 rlineto
          -382 hlineto
          -393 -642 rlineto
          99 hlineto
          36 75 71 118 rlineto
          hintmask 11010000
          223 54 1 -176 -4 -71 rlineto
          348 hlineto
          hintmask 11100000
          -346 322 rmoveto
          -167 -39 159 261 rlineto
          6 hlineto
          endchar
        </CharString>
        <CharString name="AEacute">
          257 0 78 466 98 -80 80 -9 9 hstemhm
          384 94.5 -92 93 hintmask 10101000
          457 723 rmoveto
          11 -4 66 26 65 26 70 31 rlinecurve
          4 10 -25 57 -10 3 -68 -41 -63 -32 -67 -34 rlinecurve
          308 -689 rmoveto
          -6 8 -157 -6 rlineto
          hintmask 10100100
          -105 hlineto
          -1 191 208 45 2 71 -7 6 rlineto
          hintmask 10101000
          -203 -47 -1 218 rlineto
          90 hlineto
          151 -5 rlineto
          hintmask 10011000
          18 76 -6 9 rlineto
          hintmask 10100100
          -382 hlineto
          -392 -642 rlineto
          99 hlineto
          36 75 71 118 223 54 1 -176 -4 -71 rlineto
          348 hlineto
          hintmask 11001000
          -346 322 rmoveto
          -167 -39 158 261 rlineto
          7 hlineto
          endchar
        </CharString>
        <CharString name="Aacute">
          40 21 -21 164.5 79 300.5 98 hstem
          -16 531 vstem
          263 723 rmoveto
          11 -4 66 26 65 26 70 31 rlinecurve
          4 10 -25 57 -10 3 -68 -41 -63 -32 -67 -34 rlinecurve
          269 -765 rmoveto
          -118 642 rlineto
          -115 hlineto
          -298 -642 rlineto
          97 hlineto
          26 75 40 89 117 2 130 -3 16 -92 6 -71 rlineto
          -36 244 rmoveto
          -99 -1 -96 2 136 299 rlineto
          8 hlineto
          endchar
        </CharString>
        <CharString name="Abreve">
          40 21 -21 164.5 79 300.5 98 81 69 hstem
          -16 531 vstem
          350 723 rmoveto
          62 48 34 61 28 hvcurveto
          -21 33 rlineto
          -14 hlineto
          -37 -21 -36 -22 -45 hhcurveto
          -47 -31 21 38 -10 hvcurveto
          -15 hlineto
          -29 -33 rlineto
          -61 14 47 -34 70 hhcurveto
          165 -723 rmoveto
          -118 642 rlineto
          -115 hlineto
          -298 -642 rlineto
          97 hlineto
          26 75 40 89 117 2 130 -3 16 -92 6 -71 rlineto
          -36 244 rmoveto
          -99 -1 -96 2 136 299 rlineto
          8 hlineto
          endchar
        </CharString>
        <CharString name="Abreveacute">
          40 21 -21 164.5 79 300.5 98 61 69 hstem
          -16 531 vstem
          342 823 rmoveto
          9 2 35 33 34 33 34 35 rlinecurve
          -2 9 -44 30 -9 -1 -29 -40 -29 -37 -31 -37 rlinecurve
          42 -147 rmoveto
          62 48 34 61 28 hvcurveto
          -21 33 rlineto
          -14 hlineto
          -37 -21 -35 -22 -46 hhcurveto
          -47 -31 21 38 -10 hvcurveto
          -15 hlineto
          -29 -33 rlineto
          -61 14 47 -34 70 hhcurveto
          163 -703 rmoveto
          -118 642 rlineto
          -115 hlineto
          -298 -642 rlineto
          97 hlineto
          26 75 40 89 117 2 130 -3 16 -92 6 -71 rlineto
          -36 244 rmoveto
          -99 -1 -96 2 136 299 rlineto
          8 hlineto
          endchar
        </CharString>
        <CharString name="Abrevedotbelow">
          40 -175 109 87 -21 164.5 79 300.5 98 81 69 hstem
          186 107 vstem
          350 723 rmoveto
          62 48 34 61 28 hvcurveto
          -21 33 rlineto
          -14 hlineto
          -37 -21 -36 -22 -45 hhcurveto
          -47 -31 21 38 -10 hvcurveto
          -15 hlineto
          -29 -33 rlineto
          -61 14 47 -34 70 hhcurveto
          165 -723 rmoveto
          -118 642 rlineto
          -115 hlineto
          -298 -642 rlineto
          97 hlineto
          26 75 40 89 117 2 130 -3 16 -92 6 -71 rlineto
          -36 244 rmoveto
          -99 -1 -96 2 136 299 rlineto
          8 hlineto
          -87 -610 rmoveto
          -35 -21 -22 -34 -34 19 -19 33 34 21 22 35 32 -19 20 -32 hvcurveto
          endchar
        </CharString>
        <CharString name="Abrevegrave">
          40 21 -21 164.5 79 300.5 98 60 69 hstem
          -16 531 vstem
          368 823 rmoveto
          32 27 -31 37 -29 37 -29 40 rlinecurve
          -9 1 -45 -30 rlineto
          -9 vlineto
          33 -35 34 -33 34 -33 rrcurveto
          -5 -123 rmoveto
          62 48 34 62 28 hvcurveto
          -21 32 rlineto
          -14 hlineto
          -37 -21 -36 -22 -45 hhcurveto
          -47 -31 21 38 -10 hvcurveto
          -15 hlineto
          -29 -32 rlineto
          -62 14 47 -34 70 hhcurveto
          162 -702 rmoveto
          -118 642 rlineto
          -115 hlineto
          -298 -642 rlineto
          97 hlineto
          26 75 40 89 117 2 130 -3 16 -92 6 -71 rlineto
          -36 244 rmoveto
          -99 -1 -96 2 136 299 rlineto
          8 hlineto
          endchar
        </CharString>
        <CharString name="Abrevehookabove">
          40 21 -21 164.5 79 300.5 98 62 69 194 50 hstem
          368 56 vstem
          341 967 rmoveto
          16 11 -7 -14 -18 -18 -25 -32 -24 hvcurveto
          35 -59 39 22 -21 36 rlineto
          37 31 16 21 26 vvcurveto
          35 -30 26 -39 -31 -34 -17 -28 -27 vhcurveto
          18 -29 rlineto
          16 20 22 8 18 hhcurveto
          11 -263 rmoveto
          62 48 34 61 28 hvcurveto
          -21 33 rlineto
          -14 hlineto
          -38 -21 -35 -21 -46 hhcurveto
          -47 -31 21 38 -10 hvcurveto
          -15 hlineto
          -29 -33 rlineto
          -61 14 47 -34 70 hhcurveto
          163 -704 rmoveto
          -118 642 rlineto
          -115 hlineto
          -298 -642 rlineto
          97 hlineto
          26 75 40 89 117 2 130 -3 16 -92 6 -71 rlineto
          -36 244 rmoveto
          -99 -1 -96 2 136 299 rlineto
          8 hlineto
          endchar
        </CharString>
        <CharString name="Abrevetilde">
          40 21 -21 164.5 79 300.5 98 61 67 hstem
          -16 539 vstem
          523 958 rmoveto
          -27 28 rlineto
          -8 hlineto
          -25 -24 -15 -22 -16 hhcurveto
          -24 -80 30 5 -41 hvcurveto
          -10 -3 -60 -72 rlineto
          -9 vlineto
          28 -29 rlineto
          9 hlineto
          25 23 15 21 16 hhcurveto
          25 79 -30 -5 41 hvcurveto
          10 4 59 73 rlineto
          -67 -122 rmoveto
          -15 hlineto
          -37 -19 -35 -20 -44 hhcurveto
          -45 -30 20 37 -10 hvcurveto
          -15 hlineto
          -28 -31 rlineto
          -59 14 45 -34 68 hhcurveto
          60 47 34 59 27 hvcurveto
          -79 -154 rmoveto
          -115 hlineto
          -298 -642 rlineto
          97 hlineto
          26 75 40 89 117 2 130 -3 16 -92 6 -71 rlineto
          99 hlineto
          -135 244 rmoveto
          -99 -1 -96 2 136 299 rlineto
          8 hlineto
          endchar
        </CharString>
        <CharString name="Acaron">
          40 21 -21 164.5 79 300.5 98 hstem
          -16 531 vstem
          355 722 rmoveto
          39 33 44 32 49 30 -15 41 rcurveline
          -10 hlineto
          -40 -22 -37 -21 -37 -22 -96 65 rcurveline
          -10 hlineto
          -24 -41 40 -30 38 -32 35 -33 rlinecurve
          184 -722 rmoveto
          -118 642 rlineto
          -115 hlineto
          -298 -642 rlineto
          97 hlineto
          26 75 40 89 117 2 130 -3 16 -92 6 -71 rlineto
          -36 244 rmoveto
          -99 -1 -96 2 136 299 rlineto
          8 hlineto
          endchar
        </CharString>
        <CharString name="Acircumflex">
          40 21 -21 164.5 79 300.5 98 hstem
          -16 531 vstem
          234 730 rmoveto
          11 hlineto
          38 22 38 21 38 23 32 -23 30 -21 33 -22 rrcurveto
          10 hlineto
          25 41 -40 30 -39 32 -35 33 rlinecurve
          -24 hlineto
          -40 -33 -43 -32 -48 -30 rrcurveto
          295 -771 rmoveto
          -118 642 rlineto
          -115 hlineto
          -298 -642 rlineto
          97 hlineto
          26 75 40 89 117 2 130 -3 16 -92 6 -71 rlineto
          -36 244 rmoveto
          -99 -1 -96 2 136 299 rlineto
          8 hlineto
          endchar
        </CharString>
        <CharString name="Acircumflexacute">
          40 21 -21 164.5 79 300.5 98 hstem
          -16 545 vstem
          435 824 rmoveto
          8 hlineto
          86 107 -2 9 -48 23 -8 -3 -70 -110 rlineto
          -176 -139 rmoveto
          11 hlineto
          38 22 38 21 38 23 32 -23 30 -21 33 -22 rrcurveto
          10 hlineto
          25 41 -40 30 -39 32 -35 33 rlinecurve
          -24 hlineto
          -40 -33 -43 -32 -48 -30 rrcurveto
          186 -110 rmoveto
          -115 hlineto
          -298 -642 rlineto
          97 hlineto
          26 75 40 89 117 2 130 -3 16 -92 6 -71 rlineto
          99 hlineto
          -135 244 rmoveto
          -99 -1 -96 2 136 299 rlineto
          8 hlineto
          endchar
        </CharString>
        <CharString name="Acircumflexdotbelow">
          40 -175 109 87 -21 164.5 79 300.5 98 hstem
          186 107 vstem
          234 730 rmoveto
          11 hlineto
          38 22 38 21 38 23 32 -23 30 -21 33 -22 rrcurveto
          10 hlineto
          25 41 -40 30 -39 32 -35 33 rlinecurve
          -24 hlineto
          -40 -33 -43 -32 -48 -30 rrcurveto
          295 -771 rmoveto
          -118 642 rlineto
          -115 hlineto
          -298 -642 rlineto
          97 hlineto
          26 75 40 89 117 2 130 -3 16 -92 6 -71 rlineto
          -36 244 rmoveto
          -99 -1 -96 2 136 299 rlineto
          8 hlineto
          -87 -610 rmoveto
          -35 -21 -22 -34 -34 19 -19 33 34 21 22 35 32 -19 20 -32 hvcurveto
          endchar
        </CharString>
        <CharString name="Acircumflexgrave">
          40 21 -21 164.5 79 300.5 98 hstem
          -16 531 vstem
          453 824 rmoveto
          8 hlineto
          34 26 -70 110 -8 3 -49 -23 -1 -9 rlineto
          -138 -221 rmoveto
          11 hlineto
          38 22 38 21 38 23 31 -23 31 -21 33 -22 rrcurveto
          10 hlineto
          24 41 -40 30 -39 32 -34 33 rlinecurve
          -24 hlineto
          -40 -33 -43 -32 -48 -30 rrcurveto
          300 -751 rmoveto
          -118 642 rlineto
          -115 hlineto
          -298 -642 rlineto
          97 hlineto
          26 75 40 89 117 2 130 -3 16 -92 6 -71 rlineto
          -36 244 rmoveto
          -99 -1 -96 2 136 299 rlineto
          8 hlineto
          endchar
        </CharString>
        <CharString name="Acircumflexhookabove">
          40 21 -21 164.5 79 300.5 98 315 48 hstem
          457 53 vstem
          431 957 rmoveto
          15 11 -7 -13 -17 -18 -24 -30 -23 hvcurveto
          33 -56 38 21 -20 34 rlineto
          35 30 15 20 24 vvcurveto
          34 -28 25 -37 -30 -33 -17 -26 -25 vhcurveto
          18 -28 rlineto
          15 18 22 8 16 hhcurveto
          -204 -246 rmoveto
          11 hlineto
          38 22 38 21 38 23 32 -23 30 -21 33 -22 rrcurveto
          10 hlineto
          25 41 -40 30 -39 32 -35 33 rlinecurve
          -24 hlineto
          -40 -33 -43 -32 -48 -30 rrcurveto
          302 -752 rmoveto
          -118 642 rlineto
          -115 hlineto
          -298 -642 rlineto
          97 hlineto
          26 75 40 89 117 2 130 -3 16 -92 6 -71 rlineto
          -36 244 rmoveto
          -99 -1 -96 2 136 299 rlineto
          8 hlineto
          endchar
        </CharString>
        <CharString name="Acircumflextilde">
          40 21 -21 164.5 79 300.5 98 hstem
          -16 556 vstem
          540 957 rmoveto
          -27 29 rlineto
          -9 hlineto
          -26 -23 -16 -21 -16 hhcurveto
          -23 -80 29 5 -41 hvcurveto
          -10 -3 -60 -72 rlineto
          -8 vlineto
          28 -29 rlineto
          9 hlineto
          24 22 16 22 16 hhcurveto
          25 79 -31 -5 41 hvcurveto
          10 4 59 73 rlineto
          -177 -171 rmoveto
          31 -23 31 -21 33 -21 rrcurveto
          10 hlineto
          24 40 -40 30 -39 32 -34 33 rlinecurve
          -24 hlineto
          -40 -33 -43 -32 -48 -30 14 -40 rcurveline
          11 hlineto
          38 21 38 21 38 23 rrcurveto
          34 -135 rmoveto
          -115 hlineto
          -298 -642 rlineto
          97 hlineto
          26 75 40 89 117 2 130 -3 16 -92 6 -71 rlineto
          99 hlineto
          -135 244 rmoveto
          -99 -1 -96 2 136 299 rlineto
          8 hlineto
          endchar
        </CharString>
        <CharString name="Adieresis">
          40 21 -21 164.5 79 300.5 98 97 103 hstem
          221 100 65 99 vstem
          270 740 rmoveto
          31 20 21 33 29 -18 20 -29 -33 -20 -21 -32 -32 17 -18 32 hvcurveto
          165 -1 rmoveto
          31 19 21 33 30 -17 19 -30 -33 -19 -21 -32 -31 17 -19 32 hvcurveto
          80 -739 rmoveto
          -118 642 rlineto
          -115 hlineto
          -298 -642 rlineto
          97 hlineto
          26 75 40 89 117 2 130 -3 16 -92 6 -71 rlineto
          -36 244 rmoveto
          -99 -1 -96 2 136 299 rlineto
          8 hlineto
          endchar
        </CharString>
        <CharString name="Adotbelow">
          40 -175 109 87 -21 164.5 79 300.5 98 hstem
          186 107 vstem
          515 hmoveto
          -118 642 rlineto
          -115 hlineto
          -298 -642 rlineto
          97 hlineto
          26 75 40 89 117 2 130 -3 16 -92 6 -71 rlineto
          -36 244 rmoveto
          -99 -1 -96 2 136 299 rlineto
          8 hlineto
          -87 -610 rmoveto
          -35 -21 -22 -34 -34 19 -19 33 34 21 22 35 32 -19 20 -32 hvcurveto
          endchar
        </CharString>
        <CharString name="Agrave">
          40 21 -21 164.5 79 300.5 98 hstem
          -16 531 vstem
          453 726 rmoveto
          17 42 -66 33 -63 33 -69 40 rlinecurve
          -10 -2 -25 -57 4 -10 71 -32 64 -25 66 -26 rlinecurve
          73 -722 rmoveto
          -118 642 rlineto
          -115 hlineto
          -298 -642 rlineto
          97 hlineto
          26 75 40 89 117 2 130 -3 16 -92 6 -71 rlineto
          -36 244 rmoveto
          -99 -1 -96 2 136 299 rlineto
          8 hlineto
          endchar
        </CharString>
        <CharString name="Ahookabove">
          40 21 -21 164.5 79 300.5 98 211 50 hstem
          353 56 vstem
          326 853 rmoveto
          16 11 -7 -14 -17 -18 -26 -32 -24 hvcurveto
          35 -59 39 22 -21 36 rlineto
          38 32 15 21 25 vvcurveto
          35 -29 26 -39 -32 -34 -17 -28 -27 vhcurveto
          19 -29 rlineto
          16 19 22 8 18 hhcurveto
          189 -853 rmoveto
          -118 642 rlineto
          -115 hlineto
          -298 -642 rlineto
          97 hlineto
          26 75 40 89 117 2 130 -3 16 -92 6 -71 rlineto
          -36 244 rmoveto
          -99 -1 -96 2 136 299 rlineto
          8 hlineto
          endchar
        </CharString>
        <CharString name="Amacron">
          40 21 -21 164.5 79 300.5 98 119 63 hstem
          -16 531 vstem
          213 761 rmoveto
          282 hlineto
          5 56 -6 7 rlineto
          -282 hlineto
          -6 -55 rlineto
          309 -769 rmoveto
          -118 642 rlineto
          -115 hlineto
          -298 -642 rlineto
          97 hlineto
          26 75 40 89 117 2 130 -3 16 -92 6 -71 rlineto
          -36 244 rmoveto
          -99 -1 -96 2 136 299 rlineto
          8 hlineto
          endchar
        </CharString>
        <CharString name="Aogonek">
          40 -196 62 155 -21 164.5 79 300.5 98 hstem
          349 64 vstem
          504 -95 rmoveto
          -5 hlineto
          -25 -22 -20 -14 -20 hhcurveto
          -14 -10 7 20 22 12 25 58 60 hvcurveto
          32 hlineto
          -118 642 rlineto
          -115 hlineto
          -298 -642 rlineto
          97 hlineto
          26 75 40 89 117 2 130 -3 16 -92 6 -71 rlineto
          -54 -67 -13 -29 -30 vvcurveto
          -44 30 -26 40 32 28 18 31 28 vhcurveto
          -127 391 rmoveto
          -99 -1 -96 2 136 299 rlineto
          8 hlineto
          endchar
        </CharString>
        <CharString name="Aring">
          40 21 -21 164.5 79 300.5 98 72 44 84 45 hstem
          267 44 87 44 vstem
          352 714 rmoveto
          52 38 32 57 49 -29 35 -57 -57 -32 -33 -54 -56 35 -30 50 hvcurveto
          1 128 rmoveto
          31 14 -17 -26 -28 -18 -13 -25 -27 -17 14 29 26 14 15 28 hvcurveto
          162 -842 rmoveto
          -118 642 rlineto
          -115 hlineto
          -298 -642 rlineto
          97 hlineto
          26 75 40 89 117 2 130 -3 16 -92 6 -71 rlineto
          -36 244 rmoveto
          -99 -1 -96 2 136 299 rlineto
          8 hlineto
          endchar
        </CharString>
        <CharString name="Aringacute">
          46 21 -21 163 78 400 -20 104 45 hstem
          259 44 88 44 vstem
          263 792 rmoveto
          10 -6 69 16 68 14 75 21 rlinecurve
          4 9 -15 60 -10 4 -74 -29 -67 -23 -70 -22 rlinecurve
          267 -836 rmoveto
          -120 613 rlineto
          22 15 13 25 33 vvcurveto
          49 -30 35 -57 -56 -33 -33 -54 -29 9 -22 16 -14 vhcurveto
          -295 -618 rlineto
          97 hlineto
          25 74 41 88 116 2 131 -3 16 -92 6 -69 rlineto
          -75 725 rmoveto
          30 15 -17 -26 -28 -18 -13 -26 -27 -17 14 30 25 14 15 29 hvcurveto
          39 -483 rmoveto
          -100 -2 -96 2 137 295 rlineto
          8 hlineto
          endchar
        </CharString>
        <CharString name="Atilde">
          40 21 -21 164.5 79 300.5 98 hstem
          -16 532 vstem
          516 830 rmoveto
          -29 30 rlineto
          -9 hlineto
          -27 -26 -16 -21 -17 hhcurveto
          -25 -86 30 5 -44 hvcurveto
          -11 -3 -64 -76 rlineto
          -9 vlineto
          30 -30 rlineto
          9 hlineto
          26 25 17 23 17 hhcurveto
          26 85 -32 -5 44 hvcurveto
          10 4 64 76 rlineto
          -119 -179 rmoveto
          -115 hlineto
          -298 -642 rlineto
          97 hlineto
          26 75 40 89 117 2 130 -3 16 -92 6 -71 rlineto
          99 hlineto
          -135 244 rmoveto
          -99 -1 -96 2 136 299 rlineto
          8 hlineto
          endchar
        </CharString>
        <CharString name="B">
          11 -4 77 -52 -21 288.5 75 202.5 77 hstemhm
          394 100 hintmask 10111000
          383 334 rmoveto
          72 30 41 61 81 vvcurveto
          90 -66 47 -107 vhcurveto
          -185 -1 -51 -449 rlineto
          hintmask 01111000
          -30 -193 rlineto
          1 hlineto
          hintmask 10111000
          -3 41 84 -1 25 hhcurveto
          192 94 71 133 68 -36 41 -75 25 hvcurveto
          12 155 rmoveto
          -71 -34 -40 -65 -16 vhcurveto
          -98 3 27 201 rlineto
          25 22 0 21 hhcurveto
          73 29 -23 -54 hvcurveto
          -163 -416 rmoveto
          -18 -27 2 2 -24 hvcurveto
          12 124 12 87 113 1 rlineto
          62 -9 32 -29 -54 vvcurveto
          -79 -59 -45 -103 vhcurveto
          endchar
        </CharString>
        <CharString name="C">
          -18 -7 83 490 82 hstem
          43 104 vstem
          366 648 rmoveto
          -204 -119 -147 -244 -168 85 -96 151 60 49 13 30 56 hvcurveto
          20 90 -9 6 rlineto
          -36 -49 -58 -20 -54 hhcurveto
          -95 -52 68 128 189 75 105 132 57 44 -20 -33 36 hvcurveto
          9 3 30 87 rlineto
          29 -43 -57 16 -64 hhcurveto
          endchar
        </CharString>
        <CharString name="C.ss01">
          -84 0 39 -39 76 350 75 -40 40 hstemhm
          43 93 hintmask 00000000
          hintmask 10101000
          290 426 rmoveto
          44 39 -16 -26 26 hvcurveto
          10 4 rlineto
          hintmask 10011000
          23 73 rlineto
          130 hlineto
          7 40 rlineto
          -631 hlineto
          -5 -40 rlineto
          229 hlineto
          -76 -46 -43 -89 -121 vvcurveto
          -76 22 -56 44 -34 vhcurveto
          -228 hlineto
          -5 -39 rlineto
          630 hlineto
          5 39 rlineto
          -143 hlineto
          hintmask 01011000
          16 74 -9 4 rlineto
          -25 -36 -48 -16 -42 hhcurveto
          -73 -40 49 93 hvcurveto
          hintmask 10101000
          138 54 70 100 vhcurveto
          endchar
        </CharString>
        <CharString name="Cacute">
          -18 -7 83 490 82 hstem
          43 104 vstem
          457 869 rmoveto
          -10 3 -68 -41 -63 -32 -67 -34 rlinecurve
          17 -42 11 -4 66 26 65 26 70 31 rlinecurve
          4 10 rlineto
          -116 -164 rmoveto
          -204 -119 -147 -244 -168 85 -96 151 60 49 13 30 56 hvcurveto
          20 90 -9 6 rlineto
          -36 -49 -58 -20 -54 hhcurveto
          -94 -53 68 128 189 75 105 132 57 44 -20 -33 36 hvcurveto
          10 3 29 87 rlineto
          29 -43 -57 16 -64 hhcurveto
          endchar
        </CharString>
        <CharString name="Ccaron">
          -18 -7 83 490 82 hstem
          43 104 vstem
          475 858 rmoveto
          -10 hlineto
          -40 -22 -37 -21 -37 -22 -96 65 rcurveline
          -10 hlineto
          -24 -41 40 -30 38 -32 35 -33 rlinecurve
          24 hlineto
          39 33 44 32 49 30 rrcurveto
          -124 -169 rmoveto
          -204 -119 -147 -244 -168 85 -96 151 60 49 13 30 56 hvcurveto
          20 90 -9 6 rlineto
          -36 -49 -58 -20 -54 hhcurveto
          -94 -53 68 128 189 75 105 132 57 44 -20 -33 36 hvcurveto
          10 3 29 87 rlineto
          29 -43 -57 16 -64 hhcurveto
          endchar
        </CharString>
        <CharString name="Ccedilla">
          -18 -196 48 141 83 490 82 hstem
          43 104 167 61 vstem
          366 648 rmoveto
          -204 -119 -147 -244 -161 79 -95 140 -8 hvcurveto
          -17 -65 49 -29 rlineto
          11 -5 9 -6 -12 vvcurveto
          -16 -12 -8 -18 -23 -17 12 18 -17 vhcurveto
          -5 -2 -9 -45 rlineto
          -16 18 24 -15 34 hhcurveto
          52 34 29 41 22 -10 19 -29 16 hvcurveto
          -34 20 12 44 45 4 40 13 45 24 rlinecurve
          20 90 -9 6 rlineto
          -36 -49 -58 -20 -54 hhcurveto
          -94 -53 68 128 189 75 105 132 57 44 -20 -33 36 hvcurveto
          10 3 29 87 rlineto
          29 -43 -57 16 -64 hhcurveto
          endchar
        </CharString>
        <CharString name="Ccircumflex">
          -18 -7 83 490 82 hstem
          43 104 vstem
          237 730 rmoveto
          11 hlineto
          38 22 38 21 38 23 32 -23 30 -21 33 -22 rrcurveto
          10 hlineto
          25 41 -40 30 -39 32 -35 33 rlinecurve
          -24 hlineto
          -40 -33 -43 -32 -48 -30 rrcurveto
          143 -123 rmoveto
          -204 -119 -147 -244 -168 85 -96 151 60 49 13 30 56 hvcurveto
          20 90 -9 6 rlineto
          -36 -49 -58 -20 -54 hhcurveto
          -94 -53 68 128 189 75 105 132 57 44 -20 -33 36 hvcurveto
          10 3 29 87 rlineto
          29 -43 -57 16 -64 hhcurveto
          endchar
        </CharString>
        <CharString name="Cdotaccent">
          -18 -7 83 490 82 98 109 hstem
          43 104 157 107 vstem
          359 855 rmoveto
          -34 -21 -22 -34 -33 18 -20 34 33 22 22 35 32 -19 20 -33 hvcurveto
          7 -207 rmoveto
          -204 -119 -147 -244 -168 85 -96 151 60 49 13 30 56 hvcurveto
          20 90 -9 6 rlineto
          -36 -49 -58 -20 -54 hhcurveto
          -94 -53 68 128 189 75 105 132 57 44 -20 -33 36 hvcurveto
          10 3 29 87 rlineto
          29 -43 -57 16 -64 hhcurveto
          endchar
        </CharString>
        <CharString name="D">
          106 -6 79 -52 -21 565 81 hstemhm
          506 104 hintmask 10110000
          139 642 rmoveto
          -1 hlineto
          -51 -449 rlineto
          hintmask 01110000
          -30 -193 rlineto
          1 hlineto
          hintmask 10110000
          -3 56 114 -3 41 hhcurveto
          221 120 154 247 161 -90 90 -157 hvcurveto
          -74 -573 rmoveto
          -19 -62 3 4 -44 hvcurveto
          11 121 51 360 rlineto
          2 36 70 2 20 hhcurveto
          103 51 -60 -127 -203 -81 -102 -136 hvcurveto
          endchar
        </CharString>
        <CharString name="D.ss01">
          20 0 39 -39 72 350 79 -40 40 hstemhm
          412 93 hintmask 10011000
          667 461 rmoveto
          6 40 rlineto
          -735 hlineto
          -5 -40 rlineto
          182 hlineto
          -35 -309 -17 -113 rlineto
          -182 hlineto
          -5 -39 rlineto
          734 hlineto
          6 39 rlineto
          -237 hlineto
          82 48 44 93 124 vvcurveto
          71 -24 54 -44 32 vhcurveto
          hintmask 01101000
          -187 -389 rmoveto
          -17 -49 3 3 -30 hvcurveto
          8 82 36 258 rlineto
          3 29 51 1 16 hhcurveto
          78 40 -42 -94 -145 -59 -69 -103 hvcurveto
          endchar
        </CharString>
        <CharString name="Dcaron">
          106 -6 79 -52 -21 565 81 hstemhm
          507 103 hintmask 10110000
          352 722 rmoveto
          39 33 44 32 49 30 -15 41 rcurveline
          -10 hlineto
          -40 -22 -37 -21 -37 -22 -96 65 rcurveline
          -10 hlineto
          -24 -41 40 -30 38 -32 35 -33 rlinecurve
          -189 -80 rmoveto
          -1 hlineto
          -51 -449 rlineto
          hintmask 01110000
          -30 -193 rlineto
          1 hlineto
          hintmask 10110000
          -3 57 113 -3 41 hhcurveto
          221 120 154 247 161 -90 90 -157 hvcurveto
          -74 -573 rmoveto
          -19 -62 3 5 -44 hvcurveto
          11 120 51 360 rlineto
          2 36 70 2 20 hhcurveto
          103 52 -60 -127 -203 -81 -102 -137 hvcurveto
          endchar
        </CharString>
        <CharString name="Dcroat">
          106 -6 79 -52 -21 565 81 115 63 hstemhm
          507 103 hintmask 10111000
          210 761 rmoveto
          282 hlineto
          5 56 -6 7 rlineto
          -282 hlineto
          -6 -55 rlineto
          -64 -127 rmoveto
          -1 hlineto
          -51 -449 rlineto
          hintmask 01111000
          -30 -193 rlineto
          1 hlineto
          hintmask 10111000
          -3 57 113 -3 41 hhcurveto
          221 120 154 247 161 -90 90 -157 hvcurveto
          -74 -573 rmoveto
          -19 -62 3 5 -44 hvcurveto
          11 120 51 360 rlineto
          2 36 70 2 20 hhcurveto
          103 52 -60 -127 -203 -81 -102 -137 hvcurveto
          endchar
        </CharString>
        <CharString name="Delta">
          41 0 80 464 98 hstem
          -16 531 vstem
          515 hmoveto
          -118 642 rlineto
          -115 hlineto
          -298 -642 rlineto
          337 544 rmoveto
          8 hlineto
          78 -464 rlineto
          -297 hlineto
          endchar
        </CharString>
        <CharString name="E">
          -46 0 80 208 79 193.5 81.5 hstem
          57 448 vstem
          226 560 rmoveto
          117 1 145 -4 17 76 -5 9 rlineto
          -362 hlineto
          -51 -449 -30 -193 rlineto
          361 hlineto
          15 76 -3 8 -147 -5 -119 2 12 120 12 86 105 2 108 -3 16 76 -5 7 -101 -3 -112 2 rlineto
          endchar
        </CharString>
        <CharString name="Eacute">
          -46 0 80 208 79 193.5 81.5 hstem
          57 448 vstem
          241 723 rmoveto
          11 -4 66 26 65 26 70 31 rlinecurve
          4 10 -25 57 -10 3 -68 -41 -63 -32 -67 -34 rlinecurve
          2 -205 rmoveto
          117 1 145 -4 17 76 -5 9 rlineto
          -362 hlineto
          -51 -449 -30 -193 rlineto
          361 hlineto
          16 76 -4 8 -146 -5 -120 2 12 120 12 86 105 2 108 -3 17 76 -6 7 -100 -3 -113 2 rlineto
          endchar
        </CharString>
        <CharString name="Ebreve">
          -46 0 80 208 79 193.5 81.5 81 69 hstem
          57 448 vstem
          328 723 rmoveto
          62 48 34 61 28 hvcurveto
          -21 33 rlineto
          -14 hlineto
          -37 -21 -36 -22 -45 hhcurveto
          -47 -31 21 38 -10 hvcurveto
          -15 hlineto
          -29 -33 rlineto
          -61 14 47 -34 70 hhcurveto
          -102 -163 rmoveto
          117 1 145 -4 17 76 -5 9 rlineto
          -362 hlineto
          -51 -449 -30 -193 rlineto
          361 hlineto
          16 76 -4 8 -146 -5 -120 2 12 120 12 86 105 2 108 -3 17 76 -6 7 -100 -3 -113 2 rlineto
          endchar
        </CharString>
        <CharString name="Ecaron">
          -46 0 80 208 79 193.5 81.5 hstem
          57 448 vstem
          333 722 rmoveto
          39 33 44 32 49 30 -15 41 rcurveline
          -10 hlineto
          -40 -22 -37 -21 -37 -22 -96 65 rcurveline
          -10 hlineto
          -24 -41 40 -30 38 -32 35 -33 rlinecurve
          -83 -162 rmoveto
          117 1 145 -4 17 76 -5 9 rlineto
          -362 hlineto
          -51 -449 -30 -193 rlineto
          361 hlineto
          16 76 -4 8 -146 -5 -120 2 12 120 12 86 105 2 108 -3 17 76 -6 7 -100 -3 -113 2 rlineto
          endchar
        </CharString>
        <CharString name="Ecircumflex">
          -46 0 80 208 79 193.5 81.5 hstem
          57 448 vstem
          212 730 rmoveto
          11 hlineto
          38 22 38 21 38 23 32 -23 30 -21 33 -22 rrcurveto
          10 hlineto
          25 41 -40 30 -39 32 -35 33 rlinecurve
          -24 hlineto
          -40 -33 -43 -32 -48 -30 rrcurveto
          28 -211 rmoveto
          117 1 145 -4 17 76 -5 9 rlineto
          -362 hlineto
          -51 -449 -30 -193 rlineto
          361 hlineto
          16 76 -4 8 -146 -5 -120 2 12 120 12 86 105 2 108 -3 17 76 -6 7 -100 -3 -113 2 rlineto
          endchar
        </CharString>
        <CharString name="Ecircumflexacute">
          -46 0 80 208 79 193.5 81.5 hstem
          57 450 vstem
          413 824 rmoveto
          8 hlineto
          86 107 -2 9 -48 23 -8 -3 -70 -110 rlineto
          -176 -139 rmoveto
          11 hlineto
          38 22 38 21 38 23 32 -23 30 -21 33 -22 rrcurveto
          10 hlineto
          25 41 -40 30 -39 32 -35 33 rlinecurve
          -24 hlineto
          -40 -33 -43 -32 -48 -30 rrcurveto
          311 -110 rmoveto
          -362 hlineto
          -51 -449 -30 -193 rlineto
          361 hlineto
          16 76 -4 8 -146 -5 -120 2 12 120 12 86 105 2 108 -3 17 76 -6 7 -100 -3 -113 2 27 192 117 1 145 -4 17 76 rlineto
          endchar
        </CharString>
        <CharString name="Ecircumflexdotbelow">
          -46 -175 109 66 80 208 79 193.5 81.5 hstem
          206 107 vstem
          212 730 rmoveto
          11 hlineto
          38 22 38 21 38 23 32 -23 30 -21 33 -22 rrcurveto
          10 hlineto
          25 41 -40 30 -39 32 -35 33 rlinecurve
          -24 hlineto
          -40 -33 -43 -32 -48 -30 rrcurveto
          28 -211 rmoveto
          117 1 145 -4 17 76 -5 9 rlineto
          -362 hlineto
          -51 -449 -30 -193 rlineto
          361 hlineto
          16 76 -4 8 -146 -5 -120 2 12 120 12 86 105 2 108 -3 17 76 -6 7 -100 -3 -113 2 rlineto
          63 -434 rmoveto
          -35 -21 -22 -34 -34 19 -19 33 34 21 22 35 32 -19 20 -32 hvcurveto
          endchar
        </CharString>
        <CharString name="Ecircumflexgrave">
          -46 0 80 208 79 193.5 81.5 hstem
          57 448 vstem
          431 824 rmoveto
          8 hlineto
          34 26 -70 110 -8 3 -49 -23 -1 -9 rlineto
          -138 -221 rmoveto
          11 hlineto
          38 22 38 21 38 23 31 -23 31 -21 33 -22 rrcurveto
          10 hlineto
          24 41 -40 30 -39 32 -34 33 rlinecurve
          -24 hlineto
          -40 -33 -43 -32 -48 -30 rrcurveto
          33 -191 rmoveto
          117 1 145 -4 17 76 -5 9 rlineto
          -362 hlineto
          -51 -449 -30 -193 rlineto
          361 hlineto
          16 76 -4 8 -146 -5 -120 2 12 120 12 86 105 2 108 -3 17 76 -6 7 -100 -3 -113 2 rlineto
          endchar
        </CharString>
        <CharString name="Ecircumflexhookabove">
          -46 0 80 208 79 193.5 81.5 315 48 hstem
          435 53 vstem
          409 957 rmoveto
          15 11 -7 -13 -17 -18 -24 -30 -23 hvcurveto
          33 -56 38 21 -20 34 rlineto
          35 30 15 20 24 vvcurveto
          34 -28 25 -37 -30 -33 -17 -26 -25 vhcurveto
          18 -28 rlineto
          15 18 22 8 16 hhcurveto
          -204 -246 rmoveto
          11 hlineto
          38 22 38 21 38 23 32 -23 30 -21 33 -22 rrcurveto
          10 hlineto
          25 41 -40 30 -39 32 -35 33 rlinecurve
          -24 hlineto
          -40 -33 -43 -32 -48 -30 rrcurveto
          35 -192 rmoveto
          117 1 145 -4 17 76 -5 9 rlineto
          -362 hlineto
          -51 -449 -30 -193 rlineto
          361 hlineto
          16 76 -4 8 -146 -5 -120 2 12 120 12 86 105 2 108 -3 17 76 -6 7 -100 -3 -113 2 rlineto
          endchar
        </CharString>
        <CharString name="Ecircumflextilde">
          -46 0 80 208 79 193.5 81.5 hstem
          57 448 vstem
          431 824 rmoveto
          8 hlineto
          34 26 -70 110 -8 3 -49 -23 -1 -9 rlineto
          -138 -221 rmoveto
          11 hlineto
          38 22 38 21 38 23 31 -23 31 -21 33 -22 rrcurveto
          10 hlineto
          24 41 -40 30 -39 32 -34 33 rlinecurve
          -24 hlineto
          -40 -33 -43 -32 -48 -30 rrcurveto
          33 -191 rmoveto
          117 1 145 -4 17 76 -5 9 rlineto
          -362 hlineto
          -51 -449 -30 -193 rlineto
          361 hlineto
          16 76 -4 8 -146 -5 -120 2 12 120 12 86 105 2 108 -3 17 76 -6 7 -100 -3 -113 2 rlineto
          endchar
        </CharString>
        <CharString name="Edieresis">
          -46 0 80 208 79 193.5 81.5 97 103 hstem
          199 100 65 99 vstem
          248 740 rmoveto
          31 20 21 33 29 -18 20 -29 -33 -20 -21 -32 -32 17 -18 32 hvcurveto
          165 -1 rmoveto
          31 19 21 33 30 -17 19 -30 -33 -19 -21 -32 -31 17 -19 32 hvcurveto
          -187 -179 rmoveto
          117 1 145 -4 17 76 -5 9 rlineto
          -362 hlineto
          -51 -449 -30 -193 rlineto
          361 hlineto
          16 76 -4 8 -146 -5 -120 2 12 120 12 86 105 2 108 -3 17 76 -6 7 -100 -3 -113 2 rlineto
          endchar
        </CharString>
        <CharString name="Edotaccent">
          -46 0 80 208 79 193.5 81.5 104 109 hstem
          279 107 vstem
          331 746 rmoveto
          33 22 22 35 32 -19 20 -33 -34 -21 -22 -34 -33 18 -20 34 hvcurveto
          -105 -186 rmoveto
          117 1 145 -4 17 76 -5 9 rlineto
          -362 hlineto
          -51 -449 -30 -193 rlineto
          361 hlineto
          16 76 -4 8 -146 -5 -120 2 12 120 12 86 105 2 108 -3 17 76 -6 7 -100 -3 -113 2 rlineto
          endchar
        </CharString>
        <CharString name="Edotbelow">
          -46 -175 109 66 80 208 79 193.5 81.5 hstem
          206 107 vstem
          226 560 rmoveto
          117 1 145 -4 17 76 -5 9 rlineto
          -362 hlineto
          -51 -449 -30 -193 rlineto
          361 hlineto
          16 76 -4 8 -146 -5 -120 2 12 120 12 86 105 2 108 -3 17 76 -6 7 -100 -3 -113 2 rlineto
          63 -434 rmoveto
          -35 -21 -22 -34 -34 19 -19 33 34 21 22 35 32 -19 20 -32 hvcurveto
          endchar
        </CharString>
        <CharString name="Egrave">
          -46 0 80 208 79 193.5 81.5 hstem
          57 448 vstem
          431 726 rmoveto
          17 42 -66 33 -63 33 -69 40 rlinecurve
          -10 -2 -25 -57 4 -10 71 -32 64 -25 66 -26 rlinecurve
          -194 -162 rmoveto
          117 1 145 -4 17 76 -5 9 rlineto
          -362 hlineto
          -51 -449 -30 -193 rlineto
          361 hlineto
          16 76 -4 8 -146 -5 -120 2 12 120 12 86 105 2 108 -3 17 76 -6 7 -100 -3 -113 2 rlineto
          endchar
        </CharString>
        <CharString name="Ehookabove">
          -46 0 80 208 79 193.5 81.5 211 50 hstem
          332 56 vstem
          305 853 rmoveto
          16 11 -7 -14 -17 -18 -26 -32 -24 hvcurveto
          35 -59 39 22 -21 36 rlineto
          38 32 15 21 25 vvcurveto
          35 -29 26 -39 -32 -34 -17 -28 -27 vhcurveto
          19 -29 rlineto
          16 19 22 8 18 hhcurveto
          -79 -293 rmoveto
          117 1 145 -4 17 76 -5 9 rlineto
          -362 hlineto
          -51 -449 -30 -193 rlineto
          361 hlineto
          16 76 -4 8 -146 -5 -120 2 12 120 12 86 105 2 108 -3 17 76 -6 7 -100 -3 -113 2 rlineto
          endchar
        </CharString>
        <CharString name="Emacron">
          -46 0 80 208 79 193.5 81.5 119 63 hstem
          57 448 vstem
          191 761 rmoveto
          282 hlineto
          5 56 -6 7 rlineto
          -282 hlineto
          -6 -55 rlineto
          42 -209 rmoveto
          117 1 145 -4 17 76 -5 9 rlineto
          -362 hlineto
          -51 -449 -30 -193 rlineto
          361 hlineto
          16 76 -4 8 -146 -5 -120 2 12 120 12 86 105 2 108 -3 17 76 -6 7 -100 -3 -113 2 rlineto
          endchar
        </CharString>
        <CharString name="Eng">
          149 21 -21 487 155 0 -20 22 -20 hstemhm
          57 575 hintmask 10011000
          569 191 rmoveto
          63 453 -94 -7 -56 -479 rlineto
          -7 hlineto
          hintmask 10101000
          -232 484 rlineto
          -105 hlineto
          -51 -452 -30 -190 rlineto
          92 hlineto
          23 214 rlineto
          hintmask 11001000
          33 273 rlineto
          7 hlineto
          235 -486 -20 -38 -40 -30 -61 -32 rlinecurve
          -2 -11 28 -54 137 59 53 59 14 104 rlinecurve
          endchar
        </CharString>
        <CharString name="Eogonek">
          -46 -197 62 135 80 208 79 193.5 81.5 hstem
          246 60 vstem
          226 560 rmoveto
          117 1 145 -4 17 76 -5 9 rlineto
          -362 hlineto
          -51 -449 -30 -193 rlineto
          241 hlineto
          -25 -37 rlineto
          -19 -27 -8 -26 -24 vvcurveto
          -48 33 -35 51 35 30 18 33 34 vhcurveto
          -11 46 rlineto
          -6 hlineto
          -22 -22 -23 -13 -22 hhcurveto
          -26 -13 16 23 15 6 16 11 17 hvcurveto
          31 48 rlineto
          64 hlineto
          16 76 -4 8 -146 -5 -120 2 12 120 12 86 105 2 108 -3 17 76 -6 7 -100 -3 -113 2 rlineto
          endchar
        </CharString>
        <CharString name="Eth">
          132 -6 79 -52 -21 289 68 208 81 hstemhm
          117.5 76.5 337 104 hintmask 10111100
          163 642 rmoveto
          -1 hlineto
          -32 -285 rlineto
          -92 hlineto
          -9 -60 4 -8 rlineto
          90 hlineto
          -11 -96 rlineto
          hintmask 01111100
          -30 -193 rlineto
          1 hlineto
          hintmask 10111100
          -3 56 114 -3 41 hhcurveto
          220 121 154 247 161 -91 90 -156 hvcurveto
          -74 -573 rmoveto
          -19 -63 3 4 -44 hvcurveto
          12 121 12 88 rlineto
          149 hlineto
          7 60 -3 8 rlineto
          -143 hlineto
          29 204 rlineto
          2 37 69 2 20 hhcurveto
          102 52 -60 -127 -203 -81 -102 -136 hvcurveto
          endchar
        </CharString>
        <CharString name="Etilde">
          -46 0 80 208 79 193.5 81.5 hstem
          57 448 vstem
          197 729 rmoveto
          9 hlineto
          26 25 17 23 17 hhcurveto
          26 85 -32 -5 44 hvcurveto
          10 4 64 76 rlineto
          9 vlineto
          -29 30 rlineto
          -9 hlineto
          -27 -26 -16 -21 -17 hhcurveto
          -25 -86 30 5 -44 hvcurveto
          -11 -3 -64 -76 rlineto
          -9 vlineto
          59 -199 rmoveto
          117 1 145 -4 17 76 -5 9 rlineto
          -362 hlineto
          -51 -449 -30 -193 rlineto
          361 hlineto
          16 76 -4 8 -146 -5 -120 2 12 120 12 86 105 2 108 -3 17 76 -6 7 -100 -3 -113 2 rlineto
          endchar
        </CharString>
        <CharString name="Euro">
          -34 -6 67 99 54 59 54 110 67 -33 -20 hstemhm
          90.5 82.5 hintmask 11110100
          353 504 rmoveto
          -123 -85 -63 -114 -38 hvcurveto
          -75 hlineto
          -9 -48 3 -6 rlineto
          68 hlineto
          -3 -20 -2 -19 -2 -20 rrcurveto
          -68 hlineto
          -9 -48 3 -6 rlineto
          73 hlineto
          -108 11 66 -58 121 hhcurveto
          43 47 11 24 43 hvcurveto
          15 63 -8 6 rlineto
          -24 -39 -49 -13 -41 hhcurveto
          -69 -41 34 65 -11 hvcurveto
          172 hlineto
          9 48 -3 6 rlineto
          -182 hlineto
          1 20 1 19 4 20 rrcurveto
          184 hlineto
          10 48 -5 6 rlineto
          -174 hlineto
          72 27 52 38 74 hhcurveto
          40 41 -12 -22 30 hvcurveto
          7 2 rlineto
          hintmask 11101100
          23 66 rlineto
          hintmask 11110100
          21 -36 -48 12 -48 hhcurveto
          endchar
        </CharString>
        <CharString name="F">
          -95 21 -21 274.5 78.5 205 84 -81.5 81.5 hstemhm
          57 428 hintmask 11011000
          226 560 rmoveto
          100 1 rlineto
          hintmask 11101000
          141 -6 rlineto
          hintmask 11011000
          18 78 -5 9 rlineto
          -342 hlineto
          -51 -449 -30 -193 rlineto
          99 hlineto
          20 201 10 73 89 1 109 -3 17 74 -5 9 -103 -3 -96 2 rlineto
          endchar
        </CharString>
        <CharString name="G">
          57 -8 82 492 82 hstem
          41 101 vstem
          387 648 rmoveto
          -222 -124 -145 -254 -161 86 -96 169 70 57 13 26 74 hvcurveto
          15 145 12 87 -92 -7 -10 -94 -11 -67 rlineto
          -16 -50 -27 -5 -30 hhcurveto
          -111 -51 56 126 210 79 100 147 59 42 -16 -39 58 hvcurveto
          10 2 33 92 rlineto
          30 -58 -61 13 -64 hhcurveto
          endchar
        </CharString>
        <CharString name="Gbreve">
          57 -8 82 492 82 75 69 hstem
          41 102 vstem
          486 851 rmoveto
          -14 hlineto
          -37 -21 -36 -22 -45 hhcurveto
          -47 -31 21 38 -10 hvcurveto
          -15 hlineto
          -29 -33 rlineto
          -61 14 47 -34 70 hhcurveto
          62 48 34 61 28 hvcurveto
          -120 -170 rmoveto
          -222 -124 -145 -254 -161 86 -96 169 70 57 13 26 74 hvcurveto
          15 145 12 87 -92 -7 -10 -94 -11 -67 rlineto
          -16 -50 -27 -5 -30 hhcurveto
          -111 -50 56 126 210 78 100 147 59 43 -16 -39 58 hvcurveto
          9 2 33 92 rlineto
          30 -58 -61 13 -64 hhcurveto
          endchar
        </CharString>
        <CharString name="Gcircumflex">
          57 -8 82 492 82 hstem
          41 102 vstem
          253 730 rmoveto
          11 hlineto
          38 22 38 21 38 23 32 -23 30 -21 33 -22 rrcurveto
          10 hlineto
          25 41 -40 30 -39 32 -35 33 rlinecurve
          -24 hlineto
          -40 -33 -43 -32 -48 -30 rrcurveto
          148 -123 rmoveto
          -222 -124 -145 -254 -161 86 -96 169 70 57 13 26 74 hvcurveto
          15 145 12 87 -92 -7 -10 -94 -11 -67 rlineto
          -16 -50 -27 -5 -30 hhcurveto
          -111 -50 56 126 210 78 100 147 59 43 -16 -39 58 hvcurveto
          9 2 33 92 rlineto
          30 -58 -61 13 -64 hhcurveto
          endchar
        </CharString>
        <CharString name="Gcommaaccent">
          57 -67 -21 80 82 492 82 hstem
          41 102 137 73 vstem
          387 648 rmoveto
          -222 -124 -145 -254 -161 86 -96 169 70 57 13 26 74 hvcurveto
          15 145 12 87 -92 -7 -10 -94 -11 -67 rlineto
          -16 -50 -27 -5 -30 hhcurveto
          -111 -50 56 126 210 78 100 147 59 43 -16 -39 58 hvcurveto
          9 2 33 92 rlineto
          30 -58 -61 13 -64 hhcurveto
          -73 -699 rmoveto
          -23 -7 -20 -10 -20 -12 rrcurveto
          -8 vlineto
          18 -13 11 -16 -19 vvcurveto
          -28 -18 -28 -33 -27 vhcurveto
          1 -7 29 -27 rlineto
          64 46 30 44 45 vvcurveto
          27 -14 22 -25 18 vhcurveto
          endchar
        </CharString>
        <CharString name="Gdieresis">
          57 -8 82 492 82 91 103 hstem
          41 102 97 100 65 99 vstem
          293 843 rmoveto
          -33 -20 -21 -32 -32 17 -18 32 31 20 21 33 29 -18 20 -29 hvcurveto
          164 -1 rmoveto
          -33 -19 -21 -32 -31 17 -19 32 31 19 21 33 30 -17 19 -30 hvcurveto
          -70 -194 rmoveto
          -222 -124 -145 -254 -161 86 -96 169 70 57 13 26 74 hvcurveto
          15 145 12 87 -92 -7 -10 -94 -11 -67 rlineto
          -16 -50 -27 -5 -30 hhcurveto
          -111 -50 56 126 210 78 100 147 59 43 -16 -39 58 hvcurveto
          9 2 33 92 rlineto
          30 -58 -61 13 -64 hhcurveto
          endchar
        </CharString>
        <CharString name="Gdotaccent">
          57 -8 82 492 82 98 109 hstem
          41 102 177 107 vstem
          375 855 rmoveto
          -34 -21 -22 -34 -33 18 -20 34 33 22 22 35 32 -19 20 -33 hvcurveto
          12 -207 rmoveto
          -222 -124 -145 -254 -161 86 -96 169 70 57 13 26 74 hvcurveto
          15 145 12 87 -92 -7 -10 -94 -11 -67 rlineto
          -16 -50 -27 -5 -30 hhcurveto
          -111 -50 56 126 210 78 100 147 59 43 -16 -39 58 hvcurveto
          9 2 33 92 rlineto
          30 -58 -61 13 -64 hhcurveto
          endchar
        </CharString>
        <CharString name="Germandbls">
          99 -8 78 -49 -21 568 80 hstemhm
          491 99 hintmask 10110000
          369 648 rmoveto
          -155 -103 -91 -136 -15 hvcurveto
          -25 -231 rlineto
          hintmask 01110000
          -30 -190 rlineto
          99 hlineto
          20 202 30 218 rlineto
          93 12 56 55 96 hhcurveto
          39 38 -10 -21 39 hvcurveto
          -171 -201 1 -18 rlineto
          hintmask 10110000
          139 -48 52 -37 -63 vvcurveto
          -58 -44 -42 -60 -45 -51 25 44 -42 vhcurveto
          -12 -6 -25 -97 rlineto
          -29 48 59 -15 52 hhcurveto
          118 101 76 121 90 -56 40 -110 49 hvcurveto
          172 199 -3 17 rlineto
          38 -71 -72 26 -81 hhcurveto
          endchar
        </CharString>
        <CharString name="Gtilde">
          57 -8 82 492 82 hstem
          41 102 vstem
          535 830 rmoveto
          -29 30 rlineto
          -9 hlineto
          -27 -26 -16 -21 -17 hhcurveto
          -25 -86 30 5 -44 hvcurveto
          -11 -3 -64 -76 rlineto
          -9 vlineto
          30 -30 rlineto
          9 hlineto
          26 25 17 23 17 hhcurveto
          26 85 -32 -5 44 hvcurveto
          10 4 64 76 rlineto
          -148 -173 rmoveto
          -222 -124 -145 -254 -161 86 -96 169 70 57 13 26 74 hvcurveto
          15 145 12 87 -92 -7 -10 -94 -11 -67 rlineto
          -16 -50 -27 -5 -30 hhcurveto
          -111 -50 56 126 210 78 100 147 59 43 -16 -39 58 hvcurveto
          9 2 33 92 rlineto
          30 -58 -61 13 -64 hhcurveto
          endchar
        </CharString>
        <CharString name="H">
          141 21 -21 283.5 81 277.5 -20 hstem
          57 572 vstem
          629 642 rmoveto
          -100 hlineto
          -31 -276 -150 -3 -150 3 38 276 rlineto
          -99 hlineto
          -51 -449 -29 -193 rlineto
          99 hlineto
          19 201 11 81 144 3 159 -3 -10 -89 -29 -193 rlineto
          98 hlineto
          20 201 rlineto
          endchar
        </CharString>
        <CharString name="Hbar">
          170 21 -21 283.5 81 111.5 65 -65 166 hstemhm
          69 623 hintmask 11011000
          687 476 rmoveto
          hintmask 11101000
          5 59 -6 6 rlineto
          -58 hlineto
          hintmask 11011000
          14 101 rlineto
          -100 hlineto
          hintmask 11101000
          -11 -101 rlineto
          -297 hlineto
          hintmask 11011000
          14 101 rlineto
          -99 hlineto
          hintmask 11101000
          -11 -101 rlineto
          -65 hlineto
          hintmask 11011000
          -4 -59 4 -6 rlineto
          58 hlineto
          -32 -283 -30 -193 rlineto
          99 hlineto
          20 201 11 81 144 3 159 -3 -10 -89 -30 -193 rlineto
          98 hlineto
          21 201 38 275 rlineto
          -95 hmoveto
          -13 -110 -151 -3 -150 3 15 110 rlineto
          endchar
        </CharString>
        <CharString name="Hcircumflex">
          141 21 -21 283.5 81 277.5 -20 hstem
          57 572 vstem
          282 730 rmoveto
          11 hlineto
          38 22 38 21 38 23 32 -23 30 -21 33 -22 rrcurveto
          10 hlineto
          25 41 -40 30 -39 32 -35 33 rlinecurve
          -24 hlineto
          -40 -33 -43 -32 -48 -30 rrcurveto
          361 -129 rmoveto
          -100 hlineto
          -30 -276 -152 -3 -149 3 38 276 rlineto
          -99 hlineto
          -50 -449 -30 -193 rlineto
          99 hlineto
          20 201 11 81 143 3 160 -3 -10 -89 -30 -193 rlineto
          98 hlineto
          21 201 rlineto
          endchar
        </CharString>
        <CharString name="I">
          -251 21 -21 642 -20 hstem
          57 179 vstem
          175 201 rmoveto
          61 441 rlineto
          -99 hlineto
          -51 -449 -29 -193 rlineto
          99 hlineto
          endchar
        </CharString>
        <CharString name="I.ss01">
          -267 0 39 422 40 hstem
          -124 509 vstem
          158 158 rmoveto
          42 303 rlineto
          180 hlineto
          5 40 rlineto
          -447 hlineto
          -5 -40 rlineto
          176 hlineto
          -36 -311 -16 -111 rlineto
          -176 hlineto
          -5 -39 rlineto
          447 hlineto
          5 39 rlineto
          -182 hlineto
          endchar
        </CharString>
        <CharString name="IJ">
          60 21 -21 564 78 hstem
          387.5 90 vstem
          137 642 rmoveto
          -50 -449 -30 -193 rlineto
          99 hlineto
          20 201 60 441 rlineto
          306 hmoveto
          -216 hlineto
          -14 -71 8 -8 113 2 -40 -362 -11 -83 -9 -73 -41 -39 -91 -46 rlinecurve
          -1 -11 28 -54 138 59 54 59 13 104 rlinecurve
          9 93 rlineto
          endchar
        </CharString>
        <CharString name="Iacute">
          -251 21 -21 642 -20 hstem
          57 273 vstem
          305 869 rmoveto
          -10 3 -68 -41 -63 -32 -67 -34 rlinecurve
          17 -42 11 -4 66 26 65 26 70 31 rlinecurve
          4 10 rlineto
          -154 -611 rmoveto
          60 441 rlineto
          -99 hlineto
          -50 -449 -30 -193 rlineto
          99 hlineto
          endchar
        </CharString>
        <CharString name="Iacute_J.loclNLD">
          60 21 -21 564 78 hstem
          387.5 90 vstem
          114 723 rmoveto
          11 -4 66 26 65 26 70 31 rlinecurve
          4 10 -25 57 -10 3 -68 -41 -63 -32 -67 -34 rlinecurve
          499 47 rmoveto
          -25 57 -10 3 -68 -41 -63 -32 -67 -34 rlinecurve
          17 -42 11 -4 66 26 65 26 70 31 rlinecurve
          -455 -160 rmoveto
          -50 -449 -30 -193 rlineto
          99 hlineto
          20 201 60 441 rlineto
          306 hmoveto
          -216 hlineto
          -14 -71 8 -8 113 2 -40 -362 -11 -83 -9 -73 -41 -39 -91 -46 rlinecurve
          -1 -11 28 -54 138 59 54 59 13 104 rlinecurve
          9 93 rlineto
          endchar
        </CharString>
        <CharString name="Ibreve">
          -251 21 -21 642 -20 101 69 hstem
          57 282 vstem
          318 851 rmoveto
          -14 hlineto
          -37 -21 -36 -22 -45 hhcurveto
          -47 -31 21 38 -10 hvcurveto
          -15 hlineto
          -29 -33 rlineto
          -61 14 47 -34 70 hhcurveto
          62 48 34 61 28 hvcurveto
          -163 -617 rmoveto
          60 441 rlineto
          -99 hlineto
          -50 -449 -30 -193 rlineto
          99 hlineto
          endchar
        </CharString>
        <CharString name="Icaron">
          -251 21 -21 642 -20 hstem
          57 281 vstem
          323 858 rmoveto
          -10 hlineto
          -40 -22 -37 -21 -37 -22 -96 65 rcurveline
          -10 hlineto
          -24 -41 40 -30 38 -32 35 -33 rlinecurve
          24 hlineto
          39 33 44 32 49 30 rrcurveto
          -162 -616 rmoveto
          60 441 rlineto
          -99 hlineto
          -50 -449 -30 -193 rlineto
          99 hlineto
          endchar
        </CharString>
        <CharString name="Icircumflex">
          -251 21 -21 642 -20 hstem
          57 283 vstem
          85 730 rmoveto
          11 hlineto
          38 22 38 21 38 23 32 -23 30 -21 33 -22 rrcurveto
          10 hlineto
          25 41 -40 30 -39 32 -35 33 rlinecurve
          -24 hlineto
          -40 -33 -43 -32 -48 -30 rrcurveto
          105 -570 rmoveto
          60 441 rlineto
          -99 hlineto
          -50 -449 -30 -193 rlineto
          99 hlineto
          endchar
        </CharString>
        <CharString name="Idieresis">
          -251 21 -21 642 -20 117 103 hstem
          87 100 35 100 vstem
          139 842 rmoveto
          -32 -20 -21 -32 -32 17 -18 32 31 20 21 33 30 -18 19 -30 hvcurveto
          135 hmoveto
          -32 -20 -21 -32 -32 17 -18 32 31 20 21 33 30 -18 19 -30 hvcurveto
          -98 -641 rmoveto
          60 441 rlineto
          -99 hlineto
          -50 -449 -30 -193 rlineto
          99 hlineto
          endchar
        </CharString>
        <CharString name="Idotaccent">
          -251 21 -21 642 -20 124 109 hstem
          152 107 vstem
          207 855 rmoveto
          -34 -21 -22 -34 -33 18 -20 34 33 22 22 35 32 -19 20 -33 hvcurveto
          -31 -654 rmoveto
          60 441 rlineto
          -99 hlineto
          -50 -449 -30 -193 rlineto
          99 hlineto
          endchar
        </CharString>
        <CharString name="Idotbelow">
          -251 -175 109 87 -21 642 -20 hstem
          43 107 vstem
          176 201 rmoveto
          60 441 rlineto
          -99 hlineto
          -50 -449 -30 -193 rlineto
          99 hlineto
          -57 -66 rmoveto
          -35 -21 -22 -34 -34 19 -19 33 34 21 22 35 32 -19 20 -32 hvcurveto
          endchar
        </CharString>
        <CharString name="Igrave">
          -251 21 -21 642 -20 hstem
          57 264 vstem
          113 872 rmoveto
          -25 -57 4 -10 71 -32 64 -25 66 -26 rlinecurve
          11 4 17 42 -66 33 -63 33 -69 40 rlinecurve
          53 -673 rmoveto
          60 441 rlineto
          -99 hlineto
          -50 -449 -30 -193 rlineto
          99 hlineto
          endchar
        </CharString>
        <CharString name="Ihookabove">
          -251 21 -21 642 -20 231 50 hstem
          205 56 vstem
          193 903 rmoveto
          -32 -34 -17 -28 -27 hvcurveto
          19 -29 rlineto
          16 19 22 8 18 hhcurveto
          16 11 -7 -14 -17 -18 -26 -32 -24 hvcurveto
          35 -59 39 22 -21 36 rlineto
          38 32 15 21 25 vvcurveto
          35 -29 26 -39 vhcurveto
          -17 -702 rmoveto
          60 441 rlineto
          -99 hlineto
          -50 -449 -30 -193 rlineto
          99 hlineto
          endchar
        </CharString>
        <CharString name="Imacron">
          -251 21 -21 642 -20 139 63 hstem
          57 263 vstem
          320 817 rmoveto
          -7 7 rlineto
          -219 hlineto
          -5 -55 6 -8 rlineto
          220 hlineto
          -139 -560 rmoveto
          60 441 rlineto
          -99 hlineto
          -50 -449 -30 -193 rlineto
          99 hlineto
          endchar
        </CharString>
        <CharString name="Iogonek">
          -250 -197 62 156 -21 642 -20 hstem
          -12 60 vstem
          236 642 rmoveto
          -99 hlineto
          -50 -449 -30 -190 rlineto
          -53 -64 -16 -29 -31 vvcurveto
          -46 32 -30 43 34 28 19 29 29 vhcurveto
          -14 47 rlineto
          -5 hlineto
          -22 -18 -21 -11 -19 hhcurveto
          -17 -12 9 20 20 13 23 54 63 hvcurveto
          41 hlineto
          20 201 rlineto
          endchar
        </CharString>
        <CharString name="Itilde">
          -251 21 -21 642 -20 hstem
          57 292 vstem
          349 827 rmoveto
          -29 30 rlineto
          -9 hlineto
          -26 -21 -14 -21 -17 hhcurveto
          -21 -71 30 5 -39 hvcurveto
          -9 -4 -58 -75 rlineto
          -8 vlineto
          29 -31 rlineto
          9 hlineto
          26 22 13 22 17 hhcurveto
          21 71 -31 -5 39 hvcurveto
          10 3 57 76 rlineto
          -173 -617 rmoveto
          60 441 rlineto
          -99 hlineto
          -50 -449 -30 -193 rlineto
          99 hlineto
          endchar
        </CharString>
        <CharString name="J">
          -210 564 78 hstem
          117.5 90 vstem
          272 642 rmoveto
          -216 hlineto
          -14 -71 8 -8 113 2 -40 -362 -11 -83 -9 -73 -41 -39 -91 -46 rlinecurve
          -1 -11 28 -54 138 59 54 59 13 104 rlinecurve
          9 93 rlineto
          endchar
        </CharString>
        <CharString name="Jcircumflex">
          -210 564 78 hstem
          118 89.5 vstem
          197 866 rmoveto
          -40 -33 -43 -32 -48 -30 14 -41 rcurveline
          11 hlineto
          38 22 38 21 38 23 32 -23 30 -21 33 -22 rrcurveto
          10 hlineto
          25 41 -40 30 -39 32 -35 33 rlinecurve
          51 -224 rmoveto
          -216 hlineto
          -14 -71 8 -8 113 2 -40 -362 -10 -83 -10 -73 -40 -39 -92 -46 rlinecurve
          -1 -11 28 -54 138 59 54 59 13 104 rlinecurve
          9 93 rlineto
          endchar
        </CharString>
        <CharString name="K">
          17 12 -21 30 -21 642 -20 hstemhm
          56 521 hintmask 01110000
          175 201 rmoveto
          61 441 rlineto
          -99 hlineto
          -51 -449 -30 -193 rlineto
          99 hlineto
          422 642 rmoveto
          -108 hlineto
          -45 -58 -223 -242 -1 -6 rlineto
          hintmask 10110000
          64 -117 71 -114 72 -109 10 -5 rcurveline
          33 4 31 6 33 8 rrcurveto
          hintmask 01110000
          3 12 -76 100 -74 107 -64 109 rlinecurve
          endchar
        </CharString>
        <CharString name="Kcommaaccent">
          17 -67 -21 100 -21 30 -21 642 -20 hstemhm
          252 73 hintmask 10111000
          175 201 rmoveto
          61 441 rlineto
          -99 hlineto
          -51 -449 -30 -193 rlineto
          99 hlineto
          422 642 rmoveto
          -108 hlineto
          -45 -58 -223 -242 -1 -6 rlineto
          hintmask 11011000
          64 -117 71 -114 72 -109 10 -5 rcurveline
          33 4 31 6 33 8 rrcurveto
          hintmask 10111000
          3 12 -76 100 -74 107 -64 109 rlinecurve
          -17 -388 rmoveto
          -23 -7 -20 -10 -20 -12 rrcurveto
          -8 vlineto
          18 -13 11 -16 -19 vvcurveto
          -28 -18 -28 -33 -27 vhcurveto
          1 -7 29 -27 rlineto
          64 46 30 44 45 vvcurveto
          27 -14 22 -25 18 vhcurveto
          endchar
        </CharString>
        <CharString name="L">
          -115 0 82 560 -20 hstem
          54 331 vstem
          385 74 rmoveto
          -4 8 rlineto
          -220 hlineto
          12 119 61 441 rlineto
          -100 hlineto
          -50 -449 -30 -193 rlineto
          314 hlineto
          endchar
        </CharString>
        <CharString name="L.ss01">
          -162 0 39 422 40 hstem
          -127 619 vstem
          159 168 rmoveto
          40 293 rlineto
          287 hlineto
          6 40 rlineto
          -556 hlineto
          -5 -40 rlineto
          178 hlineto
          -35 -301 -18 -121 rlineto
          -178 hlineto
          -5 -39 rlineto
          555 hlineto
          5 39 rlineto
          -116 hlineto
          5 39 rlineto
          -175 hlineto
          endchar
        </CharString>
        <CharString name="Lacute">
          -115 0 82 560 -20 hstem
          54 331 vstem
          113 723 rmoveto
          11 -4 66 26 65 26 70 31 rlinecurve
          4 10 -25 57 -10 3 -68 -41 -63 -32 -67 -34 rlinecurve
          289 -691 rmoveto
          -4 8 rlineto
          -220 hlineto
          12 119 61 441 rlineto
          -99 hlineto
          -51 -449 -30 -193 rlineto
          315 hlineto
          endchar
        </CharString>
        <CharString name="Lcaron">
          -105 0 82 496 7 57 -20 hstem
          54 383 vstem
          381 82 rmoveto
          -220 hlineto
          12 119 61 441 rlineto
          -99 hlineto
          -51 -449 -30 -193 rlineto
          315 hlineto
          16 74 rlineto
          52 504 rmoveto
          -6 7 -70 -4 -25 -185 7 -7 46 7 rlineto
          endchar
        </CharString>
        <CharString name="Lcommaaccent">
          -115 -67 -21 88 82 560 -20 hstem
          173 73 vstem
          385 74 rmoveto
          -4 8 rlineto
          -220 hlineto
          12 119 61 441 rlineto
          -99 hlineto
          -51 -449 -30 -193 rlineto
          315 hlineto
          -162 -51 rmoveto
          -23 -7 -20 -10 -20 -12 rrcurveto
          -8 vlineto
          18 -13 11 -16 -19 vvcurveto
          -28 -18 -28 -33 -27 vhcurveto
          1 -7 29 -27 rlineto
          64 46 30 44 45 vvcurveto
          27 -14 22 -25 18 vhcurveto
          endchar
        </CharString>
        <CharString name="Ldot">
          -109 0 82 245 109 206 -20 hstem
          291 107 vstem
          382 82 rmoveto
          -220 hlineto
          12 119 61 441 rlineto
          -99 hlineto
          -51 -449 -30 -193 rlineto
          315 hlineto
          16 74 rlineto
          -43 253 rmoveto
          34 21 22 34 33 -19 20 -32 -35 -21 -22 -34 -34 19 -19 33 hvcurveto
          endchar
        </CharString>
        <CharString name="Lslash">
          -105 0 82 -8 8 383 -20 197 -20 hstemhm
          13 381 -296.5 78.5 hintmask 00000000
          hintmask 01111000
          394 74 rmoveto
          -5 8 rlineto
          hintmask 10110100
          -219 hlineto
          12 119 17 122 154 79 -11 58 -10 5 -123 -62 33 239 rlineto
          -99 hlineto
          -32 -289 -98 -50 10 -58 10 -6 69 35 -9 -81 -31 -193 rlineto
          315 hlineto
          endchar
        </CharString>
        <CharString name="M">
          240 21 -21 72 127 292 151 hstem
          607 82.5 vstem
          678 hmoveto
          23 642 rlineto
          -111 hlineto
          -41 -93 -169 -350 rlineto
          -8 hlineto
          -75 346 -17 97 rlineto
          -112 hlineto
          -143 -642 rlineto
          82 hlineto
          41 203 64 288 rlineto
          8 hlineto
          95 -419 rlineto
          79 hlineto
          210 419 rlineto
          7 hlineto
          -8 -296 -13 -195 rlineto
          endchar
        </CharString>
        <CharString name="M.ss01">
          133 0 39 46 112 169 135 -40 40 hstemhm
          494.5 70.5 hintmask 11011000
          571 461 rmoveto
          209 hlineto
          5 40 rlineto
          -847 hlineto
          -5 -40 rlineto
          207 hlineto
          -98 -422 rlineto
          -161 hlineto
          -5 -39 rlineto
          845 hlineto
          5 39 rlineto
          -167 hlineto
          -97 422 rmoveto
          -19 -37 -118 -227 rlineto
          -6 hlineto
          -59 226 -8 38 rlineto
          231 -422 rmoveto
          -366 hlineto
          25 133 rlineto
          hintmask 11101000
          44 194 rlineto
          6 hlineto
          77 -281 rlineto
          69 hlineto
          153 281 rlineto
          6 hlineto
          -5 -200 rlineto
          endchar
        </CharString>
        <CharString name="N">
          141 0 153 -132 -21 488 154 0 -20 22 -20 hstemhm
          57 573 hintmask 01001100
          567 191 rmoveto
          63 453 -93 -7 rlineto
          hintmask 10010100
          -58 -484 rlineto
          -7 hlineto
          -230 489 rlineto
          -103 hlineto
          -53 -452 -29 -190 rlineto
          91 hlineto
          23 214 rlineto
          hintmask 01100100
          35 274 rlineto
          7 hlineto
          230 -488 rlineto
          104 hlineto
          endchar
        </CharString>
        <CharString name="Nacute">
          141 0 153 -132 -21 488 154 0 -20 22 -20 hstemhm
          57 573 hintmask 01001100
          502 869 rmoveto
          -10 3 -68 -41 -63 -32 -67 -34 rlinecurve
          17 -42 11 -4 66 26 65 26 70 31 rlinecurve
          4 10 rlineto
          40 -621 rmoveto
          63 453 -92 -7 rlineto
          hintmask 10010100
          -59 -484 rlineto
          -7 hlineto
          -230 489 rlineto
          -103 hlineto
          -53 -452 -29 -190 rlineto
          91 hlineto
          23 214 rlineto
          hintmask 01100100
          35 274 rlineto
          7 hlineto
          230 -488 rlineto
          104 hlineto
          endchar
        </CharString>
        <CharString name="Ncaron">
          141 0 153 -132 -21 488 154 0 -20 22 -20 hstemhm
          57 573 hintmask 01001100
          520 858 rmoveto
          -10 hlineto
          -40 -22 -37 -21 -37 -22 -96 65 rcurveline
          -10 hlineto
          -24 -41 40 -30 38 -32 35 -33 rlinecurve
          24 hlineto
          39 33 44 32 49 30 rrcurveto
          32 -626 rmoveto
          63 453 -92 -7 rlineto
          hintmask 10010100
          -59 -484 rlineto
          -7 hlineto
          -230 489 rlineto
          -103 hlineto
          -53 -452 -29 -190 rlineto
          91 hlineto
          23 214 rlineto
          hintmask 01100100
          35 274 rlineto
          7 hlineto
          230 -488 rlineto
          104 hlineto
          endchar
        </CharString>
        <CharString name="Ncommaaccent">
          141 -67 -21 88 153 -132 -21 488 154 0 -20 22 -20 hstemhm
          274 73 hintmask 10100110
          567 191 rmoveto
          63 453 -92 -7 rlineto
          hintmask 11001010
          -59 -484 rlineto
          -7 hlineto
          -230 489 rlineto
          -103 hlineto
          -53 -452 -29 -190 rlineto
          91 hlineto
          23 214 rlineto
          hintmask 10110010
          35 274 rlineto
          7 hlineto
          230 -488 rlineto
          104 hlineto
          -239 -51 rmoveto
          -23 -7 -20 -10 -20 -12 rrcurveto
          -8 vlineto
          18 -13 11 -16 -19 vvcurveto
          -28 -18 -28 -33 -27 vhcurveto
          1 -7 29 -27 rlineto
          64 46 30 44 45 vvcurveto
          27 -14 22 -25 18 vhcurveto
          endchar
        </CharString>
        <CharString name="Ntilde">
          141 0 153 -132 -21 488 154 0 -20 22 -20 hstemhm
          57 573 hintmask 01001100
          564 830 rmoveto
          -29 30 rlineto
          -9 hlineto
          -27 -26 -16 -21 -17 hhcurveto
          -25 -86 30 5 -44 hvcurveto
          -11 -3 -64 -76 rlineto
          -9 vlineto
          30 -30 rlineto
          9 hlineto
          26 25 17 23 17 hhcurveto
          26 85 -32 -5 44 hvcurveto
          10 4 64 76 rlineto
          3 -630 rmoveto
          63 453 -92 -7 rlineto
          hintmask 10010100
          -59 -484 rlineto
          -7 hlineto
          -230 489 rlineto
          -103 hlineto
          -53 -452 -29 -190 rlineto
          91 hlineto
          23 214 rlineto
          hintmask 01100100
          35 274 rlineto
          7 hlineto
          230 -488 rlineto
          104 hlineto
          endchar
        </CharString>
        <CharString name="O">
          97 -8 79 497 81 hstem
          43 101 353 104 vstem
          363 649 rmoveto
          -207 -113 -149 -243 -169 89 -96 147 207 115 154 243 167 -88 93 -150 hvcurveto
          -11 -81 rmoveto
          98 47 -60 -129 -205 -69 -103 -139 -99 -46 62 129 203 67 103 141 hvcurveto
          endchar
        </CharString>
        <CharString name="OE">
          304 -12 80 -68 80 208 79 194 81 -69 81 -21 9 hstemhm
          42 101 hintmask 00000000
          hintmask 10101010
          395 654 rmoveto
          -220 -133 -150 -243 -171 90 -102 162 hvcurveto
          hintmask 01110010
          63 66 13 -1 57 hvcurveto
          288 hlineto
          16 76 -5 8 -153 -5 -113 2 13 117 10 89 102 2 113 -3 16 76 -4 7 -108 -3 -105 2 24 193 rlineto
          124 hlineto
          139 -4 rlineto
          hintmask 01100110
          18 76 -6 9 rlineto
          hintmask 01110010
          -289 hlineto
          hintmask 10101010
          -54 -49 12 -62 hhcurveto
          -19 -81 rmoveto
          40 37 -7 -7 13 hvcurveto
          9 -4 1 -10 -2 -25 -46 -405 rcurveline
          -3 -22 -7 -9 -18 -6 rrcurveto
          -5 -16 -36 -5 -35 hhcurveto
          -115 -55 67 131 201 79 106 154 hvcurveto
          endchar
        </CharString>
        <CharString name="Oacute">
          97 -8 79 497 81 hstem
          43 101 353 104 vstem
          480 869 rmoveto
          -10 3 -68 -41 -63 -32 -67 -34 rlinecurve
          17 -42 11 -4 66 26 65 26 70 31 rlinecurve
          4 10 rlineto
          -142 -163 rmoveto
          -206 -114 -149 -243 -169 89 -96 148 207 114 154 243 167 -88 93 -150 hvcurveto
          -12 -81 rmoveto
          99 47 -60 -129 -205 -69 -103 -139 -99 -46 62 129 203 66 103 141 hvcurveto
          endchar
        </CharString>
        <CharString name="Obreve">
          97 -8 79 497 81 74 69 hstem
          43 101 353 104 vstem
          492 851 rmoveto
          -14 hlineto
          -37 -21 -36 -22 -45 hhcurveto
          -47 -31 21 38 -10 hvcurveto
          -15 hlineto
          -29 -33 rlineto
          -61 14 47 -34 70 hhcurveto
          62 48 34 61 28 hvcurveto
          -150 -169 rmoveto
          -206 -114 -149 -243 -169 89 -96 148 207 114 154 243 167 -88 93 -150 hvcurveto
          -12 -81 rmoveto
          99 47 -60 -129 -205 -69 -103 -139 -99 -46 62 129 203 66 103 141 hvcurveto
          endchar
        </CharString>
        <CharString name="Ocaron">
          97 -8 79 497 81 hstem
          43 101 353 104 vstem
          497 858 rmoveto
          -10 hlineto
          -40 -22 -37 -21 -37 -22 -96 65 rcurveline
          -10 hlineto
          -24 -41 40 -30 38 -32 35 -33 rlinecurve
          24 hlineto
          39 33 44 32 49 30 rrcurveto
          -149 -168 rmoveto
          -206 -114 -149 -243 -169 89 -96 148 207 114 154 243 167 -88 93 -150 hvcurveto
          -12 -81 rmoveto
          99 47 -60 -129 -205 -69 -103 -139 -99 -46 62 129 203 66 103 141 hvcurveto
          endchar
        </CharString>
        <CharString name="Ocircumflex">
          97 -8 79 497 81 hstem
          43 101 353 104 vstem
          259 730 rmoveto
          11 hlineto
          38 22 38 21 38 23 32 -23 30 -21 33 -22 rrcurveto
          10 hlineto
          25 41 -40 30 -39 32 -35 33 rlinecurve
          -24 hlineto
          -40 -33 -43 -32 -48 -30 rrcurveto
          118 -122 rmoveto
          -206 -114 -149 -243 -169 89 -96 148 207 114 154 243 167 -88 93 -150 hvcurveto
          -12 -81 rmoveto
          99 47 -60 -129 -205 -69 -103 -139 -99 -46 62 129 203 66 103 141 hvcurveto
          endchar
        </CharString>
        <CharString name="Ocircumflexacute">
          97 -8 79 497 81 hstem
          43 101 353 104 vstem
          552 940 rmoveto
          -48 23 -8 -3 -70 -110 34 -26 rlineto
          8 hlineto
          86 107 rlineto
          -187 -84 rmoveto
          -40 -33 -43 -32 -48 -30 14 -41 rcurveline
          11 hlineto
          38 22 38 21 38 23 32 -23 30 -21 33 -22 rrcurveto
          10 hlineto
          25 41 -40 30 -39 32 -35 33 rlinecurve
          -28 -198 rmoveto
          -206 -114 -149 -243 -169 89 -96 148 207 114 154 243 167 -88 93 -150 hvcurveto
          -12 -81 rmoveto
          99 47 -60 -129 -205 -69 -103 -139 -99 -46 62 129 203 66 103 141 hvcurveto
          endchar
        </CharString>
        <CharString name="Ocircumflexdotbelow">
          97 -175 109 58 79 497 81 hstem
          43 101 97 107 149 104 vstem
          260 730 rmoveto
          11 hlineto
          38 22 38 21 38 23 32 -23 30 -21 33 -22 rrcurveto
          10 hlineto
          25 41 -40 30 -39 32 -35 33 rlinecurve
          -24 hlineto
          -40 -33 -43 -32 -48 -30 rrcurveto
          117 -122 rmoveto
          -206 -114 -149 -243 -169 89 -96 148 207 114 154 243 167 -88 93 -150 hvcurveto
          -12 -81 rmoveto
          99 47 -60 -129 -205 -69 -103 -139 -99 -46 62 129 203 66 103 141 hvcurveto
          -54 -634 rmoveto
          -35 -21 -22 -34 -34 19 -19 33 34 21 22 35 32 -19 20 -32 hvcurveto
          endchar
        </CharString>
        <CharString name="Ocircumflexgrave">
          97 -8 79 497 81 hstem
          43 101 353 104 vstem
          450 960 rmoveto
          -8 3 -49 -23 -1 -9 86 -107 rlineto
          8 hlineto
          34 26 rlineto
          -149 -4 rmoveto
          -40 -33 -43 -32 -48 -30 14 -41 rcurveline
          11 hlineto
          38 22 38 21 38 23 31 -23 31 -21 33 -22 rrcurveto
          10 hlineto
          24 41 -40 30 -39 32 -34 33 rlinecurve
          -32 -197 rmoveto
          -206 -114 -149 -243 -169 89 -96 148 207 114 154 243 167 -88 93 -150 hvcurveto
          -12 -81 rmoveto
          99 47 -60 -129 -205 -69 -103 -139 -99 -46 62 129 203 66 103 141 hvcurveto
          endchar
        </CharString>
        <CharString name="Ocircumflexhookabove">
          97 -8 79 497 81 308 48 hstemhm
          43 101 338 53 -38 104 hintmask 00000000
          hintmask 11111000
          470 1005 rmoveto
          -30 -33 -17 -26 -25 hvcurveto
          18 -28 rlineto
          15 18 22 8 16 hhcurveto
          15 11 -7 -13 -17 -18 -24 -30 -23 hvcurveto
          33 -56 38 21 -20 34 rlineto
          35 30 15 20 24 vvcurveto
          34 -28 25 -37 vhcurveto
          -101 -158 rmoveto
          -40 -33 -43 -32 -48 -30 14 -41 rcurveline
          11 hlineto
          38 22 38 21 38 23 32 -23 30 -21 33 -22 rrcurveto
          10 hlineto
          25 41 -40 30 -39 32 -35 33 rlinecurve
          hintmask 11010100
          -30 -198 rmoveto
          -206 -114 -149 -243 -169 89 -96 148 207 114 154 243 167 -88 93 -150 hvcurveto
          -12 -81 rmoveto
          99 47 -60 -129 -205 -69 -103 -139 -99 -46 62 129 203 66 103 141 hvcurveto
          endchar
        </CharString>
        <CharString name="Ocircumflextilde">
          97 -8 79 497 81 hstem
          43 101 353 104 vstem
          565 957 rmoveto
          -27 29 rlineto
          -9 hlineto
          -26 -23 -16 -21 -16 hhcurveto
          -23 -80 29 5 -41 hvcurveto
          -10 -3 -60 -72 rlineto
          -8 vlineto
          28 -29 rlineto
          9 hlineto
          24 22 16 22 16 hhcurveto
          25 79 -31 -5 41 hvcurveto
          10 4 59 73 rlineto
          -185 -101 rmoveto
          -40 -33 -43 -32 -48 -30 14 -40 rcurveline
          11 hlineto
          38 21 38 21 38 23 31 -23 31 -21 33 -21 rrcurveto
          10 hlineto
          24 40 -40 30 -39 32 -34 33 rlinecurve
          -41 -198 rmoveto
          -206 -114 -149 -243 -169 89 -96 148 207 114 154 243 167 -88 93 -150 hvcurveto
          -12 -81 rmoveto
          99 47 -60 -129 -205 -69 -103 -139 -99 -46 62 129 203 66 103 141 hvcurveto
          endchar
        </CharString>
        <CharString name="Odieresis">
          97 -8 79 497 81 90 103 hstemhm
          43 101 102 100 65 99 -13 104 hintmask 11111010
          299 843 rmoveto
          -33 -20 -21 -32 -32 17 -18 32 31 20 21 33 29 -18 20 -29 hvcurveto
          hintmask 11111100
          164 -1 rmoveto
          -33 -19 -21 -32 -31 17 -19 32 31 19 21 33 30 -17 19 -30 hvcurveto
          hintmask 11111010
          -100 -193 rmoveto
          -206 -114 -149 -243 -169 89 -96 148 207 114 154 243 167 -88 93 -150 hvcurveto
          -12 -81 rmoveto
          99 47 -60 -129 -205 -69 -103 -139 -99 -46 62 129 203 66 103 141 hvcurveto
          endchar
        </CharString>
        <CharString name="Odotbelow">
          97 -175 109 58 79 497 81 hstem
          43 101 97 107 149 104 vstem
          363 649 rmoveto
          -206 -114 -149 -243 -169 89 -96 148 207 114 154 243 167 -88 93 -150 hvcurveto
          -12 -81 rmoveto
          99 47 -60 -129 -205 -69 -103 -139 -99 -46 62 129 203 66 103 141 hvcurveto
          -54 -634 rmoveto
          -35 -21 -22 -34 -34 19 -19 33 34 21 22 35 32 -19 20 -32 hvcurveto
          endchar
        </CharString>
        <CharString name="Ograve">
          97 -8 79 497 81 hstem
          43 101 353 104 vstem
          287 872 rmoveto
          -25 -57 4 -10 71 -32 64 -25 66 -26 rlinecurve
          11 4 17 42 -66 33 -63 33 -69 40 rlinecurve
          66 -225 rmoveto
          -206 -114 -149 -243 -169 89 -96 148 207 114 154 243 167 -88 93 -150 hvcurveto
          -12 -81 rmoveto
          99 47 -60 -129 -205 -69 -103 -139 -99 -46 62 129 203 66 103 141 hvcurveto
          endchar
        </CharString>
        <CharString name="Ohm">
          197 0 75 -56 -21 571 80 hstemhm
          99 102 353 103 hintmask 10111000
          408 649 rmoveto
          -201 -108 -153 -170 -88 29 -94 60 -65 hvcurveto
          -1 -4 rlineto
          -76 hlineto
          -83 7 rlineto
          hintmask 01111000
          -22 -78 5 -7 rlineto
          hintmask 10111000
          88 3 rlineto
          147 hlineto
          37 -2 6 4 8 74 rlineto
          -63 59 -33 98 92 vvcurveto
          135 67 109 132 111 43 -77 -96 -114 -61 -124 -110 -82 vhcurveto
          -8 -74 4 -4 37 2 rlineto
          130 hlineto
          hintmask 01111000
          100 -4 rlineto
          hintmask 10111000
          22 81 -5 6 -79 -8 rlineto
          -88 hlineto
          -2 4 rlineto
          108 91 55 123 111 vvcurveto
          133 -79 112 -170 vhcurveto
          endchar
        </CharString>
        <CharString name="Ohookabove">
          97 -8 79 497 81 204 50 hstem
          43 101 235 56 62 104 vstem
          367 903 rmoveto
          -32 -34 -17 -28 -27 hvcurveto
          19 -29 rlineto
          16 19 22 8 18 hhcurveto
          16 11 -7 -14 -17 -18 -26 -32 -24 hvcurveto
          35 -59 39 22 -21 36 rlineto
          38 32 15 21 25 vvcurveto
          35 -29 26 -39 vhcurveto
          -4 -254 rmoveto
          -206 -114 -149 -243 -169 89 -96 148 207 114 154 243 167 -88 93 -150 hvcurveto
          -12 -81 rmoveto
          99 47 -60 -129 -205 -69 -103 -139 -99 -46 62 129 203 66 103 141 hvcurveto
          endchar
        </CharString>
        <CharString name="Ohorn">
          100 -8 79 497 81 -80 50 hstemhm
          43 101 353 103 -2 78 hintmask 00000000
          hintmask 10110100
          628 769 rmoveto
          -15 -19 -9 -11 -15 hvcurveto
          -3 -8 rlineto
          15 -17 7 -23 -20 vvcurveto
          -42 -33 -20 -37 vhcurveto
          hintmask 11011000
          -45 -35 30 -89 hhcurveto
          -195 -121 -154 -226 -187 85 -90 151 202 119 160 228 hvcurveto
          hintmask 10111000
          80 -15 60 -36 49 vhcurveto
          hintmask 10110100
          70 6 57 45 73 vvcurveto
          45 -22 31 -26 vhcurveto
          hintmask 11011000
          -276 -201 rmoveto
          104 41 -61 -140 -186 -69 -110 -138 -105 -41 63 141 185 68 108 140 hvcurveto
          endchar
        </CharString>
        <CharString name="Ohornacute">
          100 -8 79 497 81 -80 50 hstemhm
          43 101 353 103 -1 77 hintmask 11011000
          480 869 rmoveto
          -10 3 -68 -41 -63 -32 -67 -34 rlinecurve
          17 -42 11 -4 66 26 65 26 70 31 rlinecurve
          4 10 rlineto
          hintmask 10110100
          123 -43 rmoveto
          -14 -19 -9 -11 -16 hvcurveto
          -3 -8 rlineto
          16 -17 7 -23 -20 vvcurveto
          -42 -33 -20 -38 vhcurveto
          hintmask 11011000
          -44 -35 30 -90 hhcurveto
          -195 -121 -154 -226 -187 85 -90 152 201 119 160 228 hvcurveto
          hintmask 10111000
          80 -15 60 -36 49 vhcurveto
          hintmask 10110100
          70 6 57 45 73 vvcurveto
          45 -22 31 -26 vhcurveto
          hintmask 11011000
          -277 -201 rmoveto
          105 41 -61 -140 -186 -69 -110 -138 -105 -41 63 141 185 68 108 139 hvcurveto
          endchar
        </CharString>
        <CharString name="Ohorndotbelow">
          100 -175 109 58 79 497 81 -80 50 hstemhm
          43 101 97 107 149 103 -1 77 hintmask 00000000
          hintmask 01011001
          628 769 rmoveto
          -14 -19 -9 -11 -16 hvcurveto
          -3 -8 rlineto
          16 -17 7 -23 -20 vvcurveto
          -42 -33 -20 -38 vhcurveto
          hintmask 01101010
          -44 -35 30 -90 hhcurveto
          -195 -121 -154 -226 -187 85 -90 152 201 119 160 228 hvcurveto
          hintmask 01011010
          80 -15 60 -36 49 vhcurveto
          hintmask 01011001
          70 6 57 45 73 vvcurveto
          45 -22 31 -26 vhcurveto
          hintmask 11101110
          -277 -201 rmoveto
          105 41 -61 -140 -186 -69 -110 -138 -105 -41 63 141 185 68 108 139 hvcurveto
          -54 -634 rmoveto
          -35 -21 -22 -34 -34 19 -19 33 34 21 22 35 32 -19 20 -32 hvcurveto
          endchar
        </CharString>
        <CharString name="Ohorngrave">
          100 -8 79 497 81 -80 50 hstemhm
          43 101 353 103 -1 77 hintmask 11011000
          287 872 rmoveto
          -25 -57 4 -10 71 -32 64 -25 66 -26 rlinecurve
          11 4 17 42 -66 33 -63 33 -69 40 rlinecurve
          hintmask 10110100
          331 -105 rmoveto
          -14 -19 -9 -11 -16 hvcurveto
          -3 -8 rlineto
          16 -17 7 -23 -20 vvcurveto
          -42 -33 -20 -38 vhcurveto
          hintmask 11011000
          -44 -35 30 -90 hhcurveto
          -195 -121 -154 -226 -187 85 -90 152 201 119 160 228 hvcurveto
          hintmask 10111000
          80 -15 60 -36 49 vhcurveto
          hintmask 10110100
          70 6 57 45 73 vvcurveto
          45 -22 31 -26 vhcurveto
          hintmask 11011000
          -277 -201 rmoveto
          105 41 -61 -140 -186 -69 -110 -138 -105 -41 63 141 185 68 108 139 hvcurveto
          endchar
        </CharString>
        <CharString name="Ohornhookabove">
          100 -8 79 497 81 -80 50 234 50 hstemhm
          43 101 235 56 62 103 -1 77 hintmask 11011110
          367 903 rmoveto
          -32 -34 -17 -28 -27 hvcurveto
          19 -29 rlineto
          16 19 22 8 18 hhcurveto
          16 11 -7 -14 -17 -18 -26 -32 -24 hvcurveto
          35 -59 39 22 -21 36 rlineto
          38 32 15 21 25 vvcurveto
          35 -29 26 -39 vhcurveto
          hintmask 10111101
          261 -134 rmoveto
          -14 -19 -9 -11 -16 hvcurveto
          -3 -8 rlineto
          16 -17 7 -23 -20 vvcurveto
          -42 -33 -20 -38 vhcurveto
          hintmask 11011110
          -44 -35 30 -90 hhcurveto
          -195 -121 -154 -226 -187 85 -90 152 201 119 160 228 hvcurveto
          hintmask 10111110
          80 -15 60 -36 49 vhcurveto
          hintmask 10111101
          70 6 57 45 73 vvcurveto
          45 -22 31 -26 vhcurveto
          hintmask 11011110
          -277 -201 rmoveto
          105 41 -61 -140 -186 -69 -110 -138 -105 -41 63 141 185 68 108 139 hvcurveto
          endchar
        </CharString>
        <CharString name="Ohorntilde">
          100 -8 79 497 81 -80 50 hstemhm
          43 101 353 103 -1 77 hintmask 11011000
          541 830 rmoveto
          -29 30 rlineto
          -9 hlineto
          -27 -26 -16 -21 -17 hhcurveto
          -25 -86 30 5 -44 hvcurveto
          -11 -3 -64 -76 rlineto
          -9 vlineto
          30 -30 rlineto
          9 hlineto
          26 25 17 23 17 hhcurveto
          26 85 -32 -5 44 hvcurveto
          10 4 64 76 rlineto
          hintmask 10110100
          87 -52 rmoveto
          -14 -19 -9 -11 -16 hvcurveto
          -3 -8 rlineto
          16 -17 7 -23 -20 vvcurveto
          -42 -33 -20 -38 vhcurveto
          hintmask 11011000
          -44 -35 30 -90 hhcurveto
          -195 -121 -154 -226 -187 85 -90 152 201 119 160 228 hvcurveto
          hintmask 10111000
          80 -15 60 -36 49 vhcurveto
          hintmask 10110100
          70 6 57 45 73 vvcurveto
          45 -22 31 -26 vhcurveto
          hintmask 11011000
          -277 -201 rmoveto
          105 41 -61 -140 -186 -69 -110 -138 -105 -41 63 141 185 68 108 139 hvcurveto
          endchar
        </CharString>
        <CharString name="Ohungarumlaut">
          97 -8 79 497 81 hstem
          43 101 353 104 vstem
          256 717 rmoveto
          10 1 42 38 39 36 39 39 rlinecurve
          9 vlineto
          -45 31 -8 -2 -35 -43 -36 -40 -37 -42 rlinecurve
          178 -27 rmoveto
          10 1 40 38 41 36 39 39 rlinecurve
          9 vlineto
          -46 31 -7 -2 -36 -43 -36 -40 -36 -42 rlinecurve
          -9 -95 rmoveto
          -206 -114 -149 -243 -169 89 -96 148 207 114 154 243 167 -88 93 -150 hvcurveto
          -12 -81 rmoveto
          99 47 -60 -129 -205 -69 -103 -139 -99 -46 62 129 203 66 103 141 hvcurveto
          endchar
        </CharString>
        <CharString name="Omacron">
          97 -8 79 497 81 112 63 hstem
          43 101 353 104 vstem
          525 817 rmoveto
          -6 7 rlineto
          -282 hlineto
          -6 -55 7 -8 rlineto
          282 hlineto
          -157 -112 rmoveto
          -206 -114 -149 -243 -169 89 -96 148 207 114 154 243 167 -88 93 -150 hvcurveto
          -12 -81 rmoveto
          99 47 -60 -129 -205 -69 -103 -139 -99 -46 62 129 203 66 103 141 hvcurveto
          endchar
        </CharString>
        <CharString name="Omega">
          197 0 75 -56 -21 571 80 hstemhm
          99 102 353 103 hintmask 10111000
          408 649 rmoveto
          -201 -108 -153 -170 -88 29 -94 60 -65 hvcurveto
          -1 -4 rlineto
          -76 hlineto
          -83 7 rlineto
          hintmask 01111000
          -22 -78 5 -7 rlineto
          hintmask 10111000
          88 3 rlineto
          147 hlineto
          37 -2 6 4 8 74 rlineto
          -63 59 -33 98 92 vvcurveto
          135 67 109 132 111 43 -77 -96 -114 -61 -124 -110 -82 vhcurveto
          -8 -74 4 -4 37 2 rlineto
          130 hlineto
          hintmask 01111000
          100 -4 rlineto
          hintmask 10111000
          22 81 -5 6 -79 -8 rlineto
          -88 hlineto
          -2 4 rlineto
          108 91 55 123 111 vvcurveto
          133 -79 112 -170 vhcurveto
          endchar
        </CharString>
        <CharString name="Oogonek">
          97 -197 62 127 79 497 81 hstem
          43 101 156 60 137 104 vstem
          423 22 rmoveto
          116 57 62 131 179 vvcurveto
          167 -88 93 -150 -206 -114 -149 -243 -169 89 -96 148 25 24 2 5 23 vhcurveto
          -25 -36 rlineto
          -19 -27 -8 -26 -24 vvcurveto
          -48 33 -35 51 35 30 18 33 34 vhcurveto
          -11 46 rlineto
          -6 hlineto
          -22 -22 -23 -13 -22 hhcurveto
          -26 -13 16 23 15 6 16 11 17 hvcurveto
          -233 310 rmoveto
          203 66 103 141 99 47 -60 -129 -205 -69 -103 -139 -99 -46 62 129 vhcurveto
          endchar
        </CharString>
        <CharString name="Oslash">
          98 -8 79 497 81 57 -20 hstem
          43 101 353 104 vstem
          573 695 rmoveto
          -4 11 -54 22 -54 -95 rlineto
          11 -29 -33 5 -36 hhcurveto
          -206 -114 -149 -243 -96 28 -72 52 -45 hvcurveto
          -69 -120 3 -9 55 -22 67 117 rlineto
          -12 30 33 -6 38 hhcurveto
          207 114 154 243 96 -29 72 -53 43 hvcurveto
          -375 -338 rmoveto
          203 66 103 141 25 22 -4 -8 19 vhcurveto
          -245 -427 rlineto
          -19 32 -9 44 57 vvcurveto
          145 -191 rmoveto
          -26 -22 4 9 -19 hvcurveto
          246 428 rlineto
          19 -31 10 -44 -58 vvcurveto
          -205 -69 -103 -139 vhcurveto
          endchar
        </CharString>
        <CharString name="Oslashacute">
          98 -8 79 497 81 57 -20 hstem
          43 101 353 104 vstem
          276 725 rmoveto
          11 -4 66 26 65 26 70 31 rlinecurve
          4 10 -25 57 -10 3 -68 -41 -63 -32 -67 -34 rlinecurve
          314 -72 rmoveto
          -4 11 -54 22 -54 -95 rlineto
          11 -29 -33 5 -36 hhcurveto
          -206 -114 -149 -243 -96 28 -72 52 -45 hvcurveto
          -69 -120 3 -9 55 -22 67 117 rlineto
          -12 30 33 -6 38 hhcurveto
          207 114 154 243 96 -29 72 -53 43 hvcurveto
          -375 -338 rmoveto
          203 66 103 141 25 22 -4 -8 19 vhcurveto
          -245 -427 rlineto
          -19 32 -9 44 57 vvcurveto
          145 -191 rmoveto
          -26 -22 4 9 -19 hvcurveto
          246 428 rlineto
          19 -31 10 -44 -58 vvcurveto
          -205 -69 -103 -139 vhcurveto
          endchar
        </CharString>
        <CharString name="Otilde">
          97 -8 79 497 81 hstem
          43 101 353 104 vstem
          541 830 rmoveto
          -29 30 rlineto
          -9 hlineto
          -27 -26 -16 -21 -17 hhcurveto
          -25 -86 30 5 -44 hvcurveto
          -11 -3 -64 -76 rlineto
          -9 vlineto
          30 -30 rlineto
          9 hlineto
          26 25 17 23 17 hhcurveto
          26 85 -32 -5 44 hvcurveto
          10 4 64 76 rlineto
          -178 -172 rmoveto
          -206 -114 -149 -243 -169 89 -96 148 207 114 154 243 167 -88 93 -150 hvcurveto
          -12 -81 rmoveto
          99 47 -60 -129 -205 -69 -103 -139 -99 -46 62 129 203 66 103 141 hvcurveto
          endchar
        </CharString>
        <CharString name="P">
          -7 21 -21 219 77.5 267 79.5 hstem
          413 102 vstem
          138 642 rmoveto
          -51 -449 -30 -193 rlineto
          99 hlineto
          20 201 2 18 rlineto
          71 hlineto
          164 102 109 146 114 -71 55 -109 hvcurveto
          -146 -345 rmoveto
          37 264 82 3 rlineto
          77 -4 28 -35 -67 vvcurveto
          -88 -48 -63 -71 -13 vhcurveto
          endchar
        </CharString>
        <CharString name="Q">
          96 -174 -21 187 79 497 81 hstem
          43 101 353 104 vstem
          678 -117 rmoveto
          -107 21 -99 43 -84 62 rrcurveto
          138 46 75 138 196 vvcurveto
          167 -88 93 -150 -206 -114 -149 -243 -169 88 -96 148 vhcurveto
          15 hlineto
          92 -88 115 -65 126 -34 8 3 rcurveline
          16 17 15 20 14 26 rrcurveto
          -536 391 rmoveto
          203 67 103 141 98 47 -60 -129 -205 -69 -103 -139 -99 -46 62 129 vhcurveto
          endchar
        </CharString>
        <CharString name="R">
          26 12 -21 30 -21 231 78.5 254 79.5 hstemhm
          413 103 hintmask 01111000
          516 484 rmoveto
          102 -68 57 -110 vhcurveto
          -200 -1 -52 -449 -29 -193 rlineto
          99 hlineto
          19 201 4 30 rlineto
          104 hlineto
          hintmask 10111000
          31 -79 35 -77 36 -76 10 -8 rcurveline
          34 3 30 7 32 11 2 11 rcurveline
          -46 77 -42 78 -38 79 rrcurveto
          hintmask 01111000
          93 44 56 82 101 vvcurveto
          -325 -173 rmoveto
          35 251 82 3 rlineto
          69 -3 36 -31 -63 vvcurveto
          -82 -39 -54 -76 -24 vhcurveto
          endchar
        </CharString>
        <CharString name="Racute">
          26 12 -21 30 -21 231 78.5 254 79.5 hstemhm
          413 103 hintmask 01111000
          261 701 rmoveto
          10 -1 59 39 57 40 62 45 rlinecurve
          3 10 -37 52 -9 1 -58 -55 -54 -45 -58 -48 rlinecurve
          280 -255 rmoveto
          102 -68 57 -111 vhcurveto
          -199 -1 -51 -449 -30 -193 rlineto
          99 hlineto
          20 201 4 30 rlineto
          103 hlineto
          hintmask 10111000
          31 -79 35 -77 36 -76 10 -8 rcurveline
          33 3 31 7 32 11 2 11 rcurveline
          -46 77 -43 78 -37 79 rrcurveto
          hintmask 01111000
          93 45 56 81 101 vvcurveto
          -325 -173 rmoveto
          35 251 81 3 rlineto
          69 -3 37 -31 -63 vvcurveto
          -82 -39 -54 -77 -24 vhcurveto
          endchar
        </CharString>
        <CharString name="Rcaron">
          26 12 -21 30 -21 231 78.5 254 79.5 hstemhm
          413 103 hintmask 01111000
          341 703 rmoveto
          52 52 46 46 43 39 -20 38 rcurveline
          -11 hlineto
          -43 -35 -40 -32 -34 -33 -26 33 -30 32 -36 35 rrcurveto
          -10 hlineto
          -30 -38 40 -42 40 -47 34 -48 rlinecurve
          200 -219 rmoveto
          102 -68 57 -111 vhcurveto
          -199 -1 -51 -449 -30 -193 rlineto
          99 hlineto
          20 201 4 30 rlineto
          103 hlineto
          hintmask 10111000
          31 -79 35 -77 36 -76 10 -8 rcurveline
          33 3 31 7 32 11 2 11 rcurveline
          -46 77 -43 78 -37 79 rrcurveto
          hintmask 01111000
          93 45 56 81 101 vvcurveto
          -325 -173 rmoveto
          35 251 81 3 rlineto
          69 -3 37 -31 -63 vvcurveto
          -82 -39 -54 -77 -24 vhcurveto
          endchar
        </CharString>
        <CharString name="Rcommaaccent">
          26 -67 -21 100 -21 30 -21 231 78.5 254 79.5 hstemhm
          215 73 125 103 hintmask 10111110
          516 484 rmoveto
          102 -68 57 -111 vhcurveto
          -199 -1 -51 -449 -30 -193 rlineto
          99 hlineto
          20 201 4 30 rlineto
          103 hlineto
          hintmask 11011110
          31 -79 35 -77 36 -76 10 -8 rcurveline
          33 3 31 7 32 11 2 11 rcurveline
          -46 77 -43 78 -37 79 rrcurveto
          hintmask 10111110
          93 45 56 81 101 vvcurveto
          -325 -173 rmoveto
          35 251 81 3 rlineto
          69 -3 37 -31 -63 vvcurveto
          -82 -39 -54 -77 -24 vhcurveto
          -48 -359 rmoveto
          -23 -7 -20 -10 -20 -12 rrcurveto
          -8 vlineto
          18 -13 11 -16 -19 vvcurveto
          -28 -18 -28 -33 -27 vhcurveto
          1 -7 29 -27 rlineto
          64 46 30 44 45 vvcurveto
          27 -14 22 -25 18 vhcurveto
          endchar
        </CharString>
        <CharString name="S">
          -57 -8 78 499 79 hstem
          82 97 143 100 vstem
          307 648 rmoveto
          -129 -96 -82 -108 hvcurveto
          -173 240 -2 -116 vvcurveto
          -53 -47 -44 -72 -48 -59 21 48 -44 vhcurveto
          -12 -6 -25 -97 rlineto
          -29 53 67 -15 56 hhcurveto
          135 96 86 108 hvcurveto
          172 -243 9 110 vvcurveto
          48 43 44 70 43 43 -17 -31 35 vhcurveto
          17 6 27 90 rlineto
          23 -55 -55 8 -40 hhcurveto
          endchar
        </CharString>
        <CharString name="Sacute">
          -57 -8 78 499 79 hstem
          82 97 143 101 vstem
          376 886 rmoveto
          -9 1 -58 -55 -54 -45 -58 -48 rlinecurve
          25 -38 10 -1 59 39 57 40 62 45 rlinecurve
          3 10 rlineto
          -106 -186 rmoveto
          -129 -96 -82 -108 hvcurveto
          -173 240 -2 -116 vvcurveto
          -53 -47 -44 -72 -48 -59 21 48 -44 vhcurveto
          -12 -6 -25 -97 rlineto
          -29 53 67 -15 56 hhcurveto
          135 97 86 108 hvcurveto
          172 -244 9 110 vvcurveto
          48 44 44 69 44 42 -17 -31 36 vhcurveto
          16 6 27 90 rlineto
          23 -54 -56 8 -40 hhcurveto
          endchar
        </CharString>
        <CharString name="Scaron">
          -57 -8 78 499 79 hstem
          82 97 143 101 vstem
          423 878 rmoveto
          -11 hlineto
          -43 -35 -40 -32 -34 -33 -26 33 -30 32 -36 35 rrcurveto
          -10 hlineto
          -30 -38 40 -42 40 -47 34 -48 rlinecurve
          25 hlineto
          52 52 46 46 43 39 rrcurveto
          -136 -192 rmoveto
          -129 -96 -82 -108 hvcurveto
          -173 240 -2 -116 vvcurveto
          -53 -47 -44 -72 -48 -59 21 48 -44 vhcurveto
          -12 -6 -25 -97 rlineto
          -29 53 67 -15 56 hhcurveto
          135 97 86 108 hvcurveto
          172 -244 9 110 vvcurveto
          48 44 44 69 44 42 -17 -31 36 vhcurveto
          16 6 27 90 rlineto
          23 -54 -56 8 -40 hhcurveto
          endchar
        </CharString>
        <CharString name="Scedilla">
          -57 -196 48 141 77 -56 -21 576 79 hstemhm
          82 97 35 61 47 101 hintmask 10111110
          292 569 rmoveto
          44 42 -17 -31 36 hvcurveto
          16 6 27 90 rlineto
          23 -54 -56 8 -40 hhcurveto
          -129 -96 -82 -108 hvcurveto
          hintmask 11011110
          -173 240 -2 -116 vvcurveto
          -53 -47 -44 -72 -48 -59 21 48 -44 vhcurveto
          -12 -6 -25 -97 44 -24 54 -15 49 -4 rlinecurve
          -17 -65 49 -29 rlineto
          11 -5 9 -6 -12 vvcurveto
          -16 -12 -8 -18 -23 -17 12 18 -17 vhcurveto
          -5 -2 -9 -45 rlineto
          -16 18 24 -15 34 hhcurveto
          52 34 29 41 22 -10 19 -29 16 hvcurveto
          -34 20 12 42 rlineto
          123 9 86 82 102 172 -244 9 110 vvcurveto
          hintmask 10111110
          48 44 44 69 vhcurveto
          endchar
        </CharString>
        <CharString name="Scircumflex">
          -57 -8 78 499 79 hstem
          82 97 143 101 vstem
          184 705 rmoveto
          11 hlineto
          43 35 39 32 35 33 26 -33 30 -32 35 -35 rrcurveto
          10 hlineto
          30 38 -38 42 -38 47 -35 48 rlinecurve
          -25 hlineto
          -52 -52 -47 -46 -44 -39 rrcurveto
          143 -95 rmoveto
          -129 -96 -82 -108 hvcurveto
          -173 240 -2 -116 vvcurveto
          -53 -47 -44 -72 -48 -59 21 48 -44 vhcurveto
          -12 -6 -25 -97 rlineto
          -29 53 67 -15 56 hhcurveto
          135 97 86 108 hvcurveto
          172 -244 9 110 vvcurveto
          48 44 44 69 44 42 -17 -31 36 vhcurveto
          16 6 27 90 rlineto
          23 -54 -56 8 -40 hhcurveto
          endchar
        </CharString>
        <CharString name="Scommaaccent">
          -57 -67 -21 80 78 499 79 hstemhm
          82 97 -4 73 74 101 hintmask 11110100
          307 648 rmoveto
          -129 -96 -82 -108 hvcurveto
          -173 240 -2 -116 vvcurveto
          -53 -47 -44 -72 -48 -59 21 48 -44 vhcurveto
          -12 -6 -25 -97 rlineto
          -29 53 67 -15 56 hhcurveto
          135 97 86 108 hvcurveto
          172 -244 9 110 vvcurveto
          48 44 44 69 44 42 -17 -31 36 vhcurveto
          16 6 27 90 rlineto
          23 -54 -56 8 -40 hhcurveto
          hintmask 11101100
          -98 -699 rmoveto
          -23 -7 -20 -10 -20 -12 rrcurveto
          -8 vlineto
          18 -13 11 -16 -19 vvcurveto
          -28 -18 -28 -33 -27 vhcurveto
          1 -7 29 -27 rlineto
          64 46 30 44 45 vvcurveto
          27 -14 22 -25 18 vhcurveto
          endchar
        </CharString>
        <CharString name="T">
          -46 21 -21 564 78 hstem
          61 447 vstem
          508 633 rmoveto
          -5 9 rlineto
          -424 hlineto
          -18 -75 6 -9 113 6 rlineto
          52 hlineto
          -40 -371 -31 -193 rlineto
          99 hlineto
          20 201 50 363 rlineto
          52 hlineto
          109 -6 rlineto
          endchar
        </CharString>
        <CharString name="Tbar">
          -46 21 -21 286 58 220 78 hstem
          61 446 vstem
          329 564 rmoveto
          53 hlineto
          109 -6 16 75 -4 9 rlineto
          -425 hlineto
          -17 -75 6 -9 113 6 rlineto
          52 hlineto
          -24 -220 rlineto
          -97 hlineto
          -4 -52 7 -6 rlineto
          87 hlineto
          -10 -93 -30 -193 rlineto
          99 hlineto
          19 201 12 85 rlineto
          105 hlineto
          4 51 -8 7 rlineto
          -93 hlineto
          endchar
        </CharString>
        <CharString name="Tcaron">
          -46 21 -21 564 78 hstem
          61 446 vstem
          307 703 rmoveto
          52 52 46 46 43 39 -20 38 rcurveline
          -11 hlineto
          -43 -35 -40 -32 -34 -33 -26 33 -30 32 -36 35 rrcurveto
          -10 hlineto
          -30 -38 40 -42 40 -47 34 -48 rlinecurve
          225 -70 rmoveto
          -4 9 rlineto
          -425 hlineto
          -17 -75 6 -9 113 6 rlineto
          52 hlineto
          -41 -371 -30 -193 rlineto
          99 hlineto
          19 201 50 363 rlineto
          53 hlineto
          109 -6 rlineto
          endchar
        </CharString>
        <CharString name="Tcedilla">
          -46 -189 43 167 -21 564 78 hstem
          230 57 vstem
          507 633 rmoveto
          -4 9 rlineto
          -425 hlineto
          -17 -75 6 -9 113 6 rlineto
          52 hlineto
          -41 -371 -30 -193 rlineto
          25 hlineto
          -17 -69 45 -28 rlineto
          9 -6 7 -6 -12 vvcurveto
          -16 -9 -9 -17 -21 -16 12 18 -14 vhcurveto
          -6 -2 -8 -41 rlineto
          -15 17 23 -15 30 hhcurveto
          45 33 27 39 22 -11 17 -26 16 hvcurveto
          -30 19 12 49 rlineto
          28 hlineto
          19 201 50 363 rlineto
          53 hlineto
          109 -6 rlineto
          endchar
        </CharString>
        <CharString name="Tcommaaccent">
          -46 -67 -21 109 -21 564 78 hstem
          180 73 vstem
          507 633 rmoveto
          -4 9 rlineto
          -425 hlineto
          -17 -75 6 -9 113 6 rlineto
          52 hlineto
          -41 -371 -30 -193 rlineto
          99 hlineto
          19 201 50 363 rlineto
          53 hlineto
          109 -6 rlineto
          -277 -609 rmoveto
          -23 -7 -20 -10 -20 -12 rrcurveto
          -8 vlineto
          18 -13 11 -16 -19 vvcurveto
          -28 -18 -28 -33 -27 vhcurveto
          1 -7 29 -27 rlineto
          64 46 30 44 45 vvcurveto
          27 -14 22 -25 18 vhcurveto
          endchar
        </CharString>
        <CharString name="Thorn">
          -1 21 -21 112 77.5 266 79.5 107 -20 hstem
          404 102 vstem
          222 534 rmoveto
          15 108 rlineto
          -98 hlineto
          -53 -449 -28 -193 rlineto
          98 hlineto
          11 112 rlineto
          74 hlineto
          163 102 108 146 115 -70 54 -110 hvcurveto
          -151 -344 rmoveto
          1 10 35 253 88 3 rlineto
          77 -4 28 -35 -66 vvcurveto
          -88 -48 -63 -71 -13 vhcurveto
          endchar
        </CharString>
        <CharString name="U">
          85 -8 85 565 -20 hstem
          65 94 vstem
          547 315 rmoveto
          43 327 rlineto
          -98 hlineto
          -45 -406 rlineto
          -107 -12 -56 -52 -96 hhcurveto
          -82 -42 41 85 14 1 13 2 16 hvcurveto
          53 396 rlineto
          -97 hlineto
          -37 -321 -13 -88 rlineto
          -2 -19 -1 -17 -17 vvcurveto
          -121 80 -67 131 155 89 91 158 18 vhcurveto
          endchar
        </CharString>
        <CharString name="Uacute">
          85 -8 85 565 -20 hstem
          65 94 vstem
          474 869 rmoveto
          -10 3 -68 -41 -63 -32 -67 -34 rlinecurve
          17 -42 11 -4 66 26 65 26 70 31 rlinecurve
          4 10 rlineto
          48 -497 rmoveto
          44 327 rlineto
          -98 hlineto
          -46 -406 rlineto
          -107 -12 -56 -52 -96 hhcurveto
          -82 -42 41 85 14 1 13 2 16 hvcurveto
          54 396 rlineto
          -97 hlineto
          -38 -321 -12 -88 rlineto
          -3 -19 -1 -17 -17 vvcurveto
          -121 81 -67 130 155 90 91 158 17 vhcurveto
          endchar
        </CharString>
        <CharString name="Ubreve">
          85 -8 85 565 -20 87 69 hstem
          65 94 vstem
          485 862 rmoveto
          -14 hlineto
          -56 -21 -35 -28 -49 hhcurveto
          -48 -30 28 56 -7 hvcurveto
          -15 hlineto
          -28 -35 rlineto
          -68 7 35 -50 83 hhcurveto
          71 48 47 71 24 hvcurveto
          41 -512 rmoveto
          44 327 rlineto
          -98 hlineto
          -46 -406 rlineto
          -107 -12 -56 -52 -96 hhcurveto
          -82 -42 41 85 14 1 13 2 16 hvcurveto
          54 396 rlineto
          -97 hlineto
          -38 -321 -12 -88 rlineto
          -3 -19 -1 -17 -17 vvcurveto
          -121 81 -67 130 155 90 91 158 17 vhcurveto
          endchar
        </CharString>
        <CharString name="Ucaron">
          85 -8 85 565 -20 hstem
          65 94 vstem
          493 878 rmoveto
          -11 hlineto
          -43 -35 -40 -32 -34 -33 -26 33 -30 32 -36 35 rrcurveto
          -10 hlineto
          -30 -38 40 -42 40 -47 34 -48 rlinecurve
          25 hlineto
          52 52 46 46 43 39 rrcurveto
          34 -525 rmoveto
          44 327 rlineto
          -98 hlineto
          -46 -406 rlineto
          -107 -12 -56 -52 -96 hhcurveto
          -82 -42 41 85 14 1 13 2 16 hvcurveto
          54 396 rlineto
          -97 hlineto
          -38 -321 -12 -88 rlineto
          -3 -19 -1 -17 -17 vvcurveto
          -121 81 -67 130 155 90 91 158 17 vhcurveto
          endchar
        </CharString>
        <CharString name="Ucircumflex">
          85 -8 85 565 -20 hstem
          65 94 vstem
          254 730 rmoveto
          11 hlineto
          38 22 38 21 38 23 32 -23 30 -21 33 -22 rrcurveto
          10 hlineto
          25 41 -40 30 -39 32 -35 33 rlinecurve
          -24 hlineto
          -40 -33 -43 -32 -48 -30 rrcurveto
          307 -456 rmoveto
          44 327 rlineto
          -98 hlineto
          -46 -406 rlineto
          -107 -12 -56 -52 -96 hhcurveto
          -82 -42 41 85 14 1 13 2 16 hvcurveto
          54 396 rlineto
          -97 hlineto
          -38 -321 -12 -88 rlineto
          -3 -19 -1 -17 -17 vvcurveto
          -121 81 -67 130 155 90 91 158 17 vhcurveto
          endchar
        </CharString>
        <CharString name="Udieresis">
          85 -8 85 565 -20 117 103 hstem
          65 94 82 100 65 99 vstem
          294 843 rmoveto
          -33 -20 -21 -32 -32 17 -18 32 31 20 21 33 29 -18 20 -29 hvcurveto
          164 -1 rmoveto
          -33 -19 -21 -32 -31 17 -19 32 31 19 21 33 30 -17 19 -30 hvcurveto
          89 -527 rmoveto
          44 327 rlineto
          -98 hlineto
          -46 -406 rlineto
          -107 -12 -56 -52 -96 hhcurveto
          -82 -42 41 85 14 1 13 2 16 hvcurveto
          54 396 rlineto
          -97 hlineto
          -38 -321 -12 -88 rlineto
          -3 -19 -1 -17 -17 vvcurveto
          -121 81 -67 130 155 90 91 158 17 vhcurveto
          endchar
        </CharString>
        <CharString name="Udieresisacute">
          85 -8 85 565 -20 101 97 hstem
          65 94 82 96 67 96 vstem
          483 987 rmoveto
          -9 4 -74 -28 -68 -21 -71 -21 rlinecurve
          9 -45 10 -5 70 13 68 14 75 18 rlinecurve
          5 10 rlineto
          -207 -106 rmoveto
          -31 -19 -20 -30 -30 17 -17 29 31 19 20 30 30 -17 17 -29 hvcurveto
          163 hmoveto
          -31 -19 -20 -30 -30 17 -17 29 31 19 20 30 30 -18 17 -28 hvcurveto
          93 -505 rmoveto
          44 327 rlineto
          -98 hlineto
          -46 -406 rlineto
          -107 -12 -56 -52 -96 hhcurveto
          -82 -42 41 85 14 1 13 2 16 hvcurveto
          54 396 rlineto
          -97 hlineto
          -38 -321 -12 -88 rlineto
          -3 -19 -1 -17 -17 vvcurveto
          -121 81 -67 130 155 90 91 158 17 vhcurveto
          endchar
        </CharString>
        <CharString name="Udieresiscaron">
          85 -8 85 565 -20 101 97 hstem
          65 94 85 96 67 96 vstem
          507 976 rmoveto
          -11 hlineto
          -39 -22 -37 -21 -38 -23 -32 23 -31 21 -32 22 rrcurveto
          -10 hlineto
          -25 -41 40 -30 39 -32 35 -33 rlinecurve
          24 hlineto
          39 33 44 32 48 30 rrcurveto
          -227 -115 rmoveto
          -31 -19 -20 -30 -30 18 -17 29 31 18 20 30 30 -17 17 -29 hvcurveto
          163 hmoveto
          -31 -19 -20 -30 -30 18 -17 29 30 19 20 30 30 -17 17 -29 hvcurveto
          90 -505 rmoveto
          44 327 rlineto
          -98 hlineto
          -46 -406 rlineto
          -107 -12 -56 -52 -96 hhcurveto
          -82 -42 41 85 14 1 13 2 16 hvcurveto
          54 396 rlineto
          -97 hlineto
          -38 -321 -12 -88 rlineto
          -3 -19 -1 -17 -17 vvcurveto
          -121 81 -67 130 155 90 91 158 17 vhcurveto
          endchar
        </CharString>
        <CharString name="Udieresisgrave">
          85 -8 85 565 -20 101 97 hstem
          65 94 76 97 66 97 vstem
          292 987 rmoveto
          -21 -61 4 -10 72 -18 67 -14 67 -13 rlinecurve
          11 5 15 45 -68 21 -66 21 -70 28 rlinecurve
          -13 -171 rmoveto
          -33 -22 -22 -33 -26 15 -16 27 34 21 22 33 26 -16 16 -26 hvcurveto
          163 hmoveto
          -34 -21 -22 -33 -26 15 -16 27 33 22 22 33 26 -16 16 -26 hvcurveto
          94 -505 rmoveto
          44 327 rlineto
          -98 hlineto
          -46 -406 rlineto
          -107 -12 -56 -52 -96 hhcurveto
          -82 -42 41 85 14 1 13 2 16 hvcurveto
          54 396 rlineto
          -97 hlineto
          -38 -321 -12 -88 rlineto
          -3 -19 -1 -17 -17 vvcurveto
          -121 81 -67 130 155 90 91 158 17 vhcurveto
          endchar
        </CharString>
        <CharString name="Udieresismacron">
          85 -8 85 565 -20 101 97 63 64 hstem
          65 94 95 96 67 96 vstem
          535 940 rmoveto
          -7 7 rlineto
          -266 hlineto
          -5 -56 7 -8 rlineto
          265 hlineto
          -225 -63 rmoveto
          -31 -19 -20 -30 -30 18 -17 29 31 18 20 30 30 -17 17 -29 hvcurveto
          163 hmoveto
          -31 -19 -20 -30 -30 18 -17 29 30 19 20 30 30 -17 17 -29 hvcurveto
          80 -505 rmoveto
          44 327 rlineto
          -98 hlineto
          -46 -406 rlineto
          -107 -12 -56 -52 -96 hhcurveto
          -82 -42 41 85 14 1 13 2 16 hvcurveto
          54 396 rlineto
          -97 hlineto
          -38 -321 -12 -88 rlineto
          -3 -19 -1 -17 -17 vvcurveto
          -121 81 -67 130 155 90 91 158 17 vhcurveto
          endchar
        </CharString>
        <CharString name="Udotbelow">
          85 -175 109 58 85 565 -20 hstem
          65 94 64 107 vstem
          547 315 rmoveto
          44 327 rlineto
          -98 hlineto
          -46 -406 rlineto
          -107 -12 -56 -52 -96 hhcurveto
          -82 -42 41 85 14 1 13 2 16 hvcurveto
          54 396 rlineto
          -97 hlineto
          -38 -321 -12 -88 rlineto
          -3 -19 -1 -17 -17 vvcurveto
          -121 81 -67 130 155 90 91 158 17 vhcurveto
          -259 -307 rmoveto
          -35 -21 -22 -34 -34 19 -19 33 34 21 22 35 32 -19 20 -32 hvcurveto
          endchar
        </CharString>
        <CharString name="Ugrave">
          85 -8 85 565 -20 hstem
          65 94 vstem
          282 872 rmoveto
          -25 -57 4 -10 71 -32 64 -25 66 -26 rlinecurve
          11 4 17 42 -66 33 -63 33 -69 40 rlinecurve
          255 -559 rmoveto
          44 327 rlineto
          -98 hlineto
          -46 -406 rlineto
          -107 -12 -56 -52 -96 hhcurveto
          -82 -42 41 85 14 1 13 2 16 hvcurveto
          54 396 rlineto
          -97 hlineto
          -38 -321 -12 -88 rlineto
          -3 -19 -1 -17 -17 vvcurveto
          -121 81 -67 130 155 90 91 158 17 vhcurveto
          endchar
        </CharString>
        <CharString name="Uhookabove">
          85 -8 85 565 -20 231 50 hstem
          65 94 214 56 vstem
          361 903 rmoveto
          -32 -34 -17 -28 -27 hvcurveto
          19 -29 rlineto
          16 19 22 8 18 hhcurveto
          16 11 -7 -14 -17 -18 -26 -32 -24 hvcurveto
          35 -59 39 22 -21 36 rlineto
          38 32 15 21 25 vvcurveto
          35 -29 26 -39 vhcurveto
          186 -588 rmoveto
          44 327 rlineto
          -98 hlineto
          -46 -406 rlineto
          -107 -12 -56 -52 -96 hhcurveto
          -82 -42 41 85 14 1 13 2 16 hvcurveto
          54 396 rlineto
          -97 hlineto
          -38 -321 -12 -88 rlineto
          -3 -19 -1 -17 -17 vvcurveto
          -121 81 -67 130 155 90 91 158 17 vhcurveto
          endchar
        </CharString>
        <CharString name="Uhorn">
          91 -8 85 565 -20 hstem
          65 94 430 76 vstem
          665 700 rmoveto
          46 -30 34 -26 -15 -16 -8 -11 -15 vhcurveto
          -3 -9 rlineto
          20 -20 9 -19 -21 vvcurveto
          -33 -20 -17 -41 vhcurveto
          -35 hlineto
          -46 -406 rlineto
          -107 -12 -56 -52 -96 hhcurveto
          -82 -42 41 85 14 1 13 2 16 hvcurveto
          54 396 rlineto
          -97 hlineto
          -38 -321 -12 -88 rlineto
          -3 -19 -1 -17 -17 vvcurveto
          -121 81 -67 130 155 90 91 158 17 vhcurveto
          9 74 38 285 rlineto
          49 17 31 37 46 vvcurveto
          endchar
        </CharString>
        <CharString name="Uhornacute">
          91 -8 85 565 -20 hstem
          65 94 430 76 vstem
          272 724 rmoveto
          11 -4 66 26 65 26 70 31 rlinecurve
          4 10 -25 57 -10 3 -68 -41 -63 -32 -67 -34 rlinecurve
          410 -66 rmoveto
          46 -30 34 -26 -15 -16 -8 -11 -15 vhcurveto
          -3 -9 rlineto
          20 -20 9 -19 -21 vvcurveto
          -33 -20 -17 -41 vhcurveto
          -35 hlineto
          -46 -406 rlineto
          -107 -12 -56 -52 -96 hhcurveto
          -82 -42 41 85 14 1 13 2 16 hvcurveto
          54 396 rlineto
          -97 hlineto
          -38 -321 -12 -88 rlineto
          -3 -19 -1 -17 -17 vvcurveto
          -121 81 -67 130 155 90 91 158 17 vhcurveto
          9 74 38 285 rlineto
          49 17 31 37 46 vvcurveto
          endchar
        </CharString>
        <CharString name="Uhorndotbelow">
          91 -175 109 58 85 565 -20 hstem
          65 94 60 107 263 76 vstem
          665 700 rmoveto
          46 -30 34 -26 -15 -16 -8 -11 -15 vhcurveto
          -3 -9 rlineto
          20 -20 9 -19 -21 vvcurveto
          -33 -20 -17 -41 vhcurveto
          -35 hlineto
          -46 -406 rlineto
          -107 -12 -56 -52 -96 hhcurveto
          -82 -42 41 85 14 1 13 2 16 hvcurveto
          54 396 rlineto
          -97 hlineto
          -38 -321 -12 -88 rlineto
          -3 -19 -1 -17 -17 vvcurveto
          -121 81 -67 130 155 90 91 158 17 vhcurveto
          9 74 38 285 rlineto
          49 17 31 37 46 vvcurveto
          -390 -766 rmoveto
          -35 -21 -22 -34 -34 19 -19 33 34 21 22 35 32 -19 20 -32 hvcurveto
          endchar
        </CharString>
        <CharString name="Uhorngrave">
          91 -8 85 565 -20 hstem
          65 94 430 76 vstem
          462 727 rmoveto
          17 42 -66 33 -63 33 -69 40 rlinecurve
          -10 -2 -25 -57 4 -10 71 -32 64 -25 66 -26 rlinecurve
          214 -23 rmoveto
          46 -30 34 -26 -15 -16 -8 -11 -15 vhcurveto
          -3 -9 rlineto
          20 -20 9 -19 -21 vvcurveto
          -33 -20 -17 -41 vhcurveto
          -35 hlineto
          -46 -406 rlineto
          -107 -12 -56 -52 -96 hhcurveto
          -82 -42 41 85 14 1 13 2 16 hvcurveto
          54 396 rlineto
          -97 hlineto
          -38 -321 -12 -88 rlineto
          -3 -19 -1 -17 -17 vvcurveto
          -121 81 -67 130 155 90 91 158 17 vhcurveto
          9 74 38 285 rlineto
          49 17 31 37 46 vvcurveto
          endchar
        </CharString>
        <CharString name="Uhornhookabove">
          91 -8 85 565 -20 232 50 hstem
          65 94 204 56 170 76 vstem
          336 854 rmoveto
          16 11 -7 -14 -17 -18 -26 -32 -24 hvcurveto
          35 -59 39 22 -21 36 rlineto
          38 32 15 21 25 vvcurveto
          35 -29 26 -39 -32 -34 -17 -28 -27 vhcurveto
          19 -29 rlineto
          16 19 22 8 18 hhcurveto
          329 -154 rmoveto
          46 -30 34 -26 -15 -16 -8 -11 -15 vhcurveto
          -3 -9 rlineto
          20 -20 9 -19 -21 vvcurveto
          -33 -20 -17 -41 vhcurveto
          -35 hlineto
          -46 -406 rlineto
          -107 -12 -56 -52 -96 hhcurveto
          -82 -42 41 85 14 1 13 2 16 hvcurveto
          54 396 rlineto
          -97 hlineto
          -38 -321 -12 -88 rlineto
          -3 -19 -1 -17 -17 vvcurveto
          -121 81 -67 130 155 90 91 158 17 vhcurveto
          9 74 38 285 rlineto
          49 17 31 37 46 vvcurveto
          endchar
        </CharString>
        <CharString name="Uhorntilde">
          91 -8 85 565 -20 hstem
          65 94 430 76 vstem
          228 730 rmoveto
          9 hlineto
          26 25 17 23 17 hhcurveto
          26 85 -32 -5 44 hvcurveto
          10 4 64 76 rlineto
          9 vlineto
          -29 30 rlineto
          -9 hlineto
          -27 -26 -16 -21 -17 hhcurveto
          -25 -86 30 5 -44 hvcurveto
          -11 -3 -64 -76 rlineto
          -9 vlineto
          467 -60 rmoveto
          46 -30 34 -26 -15 -16 -8 -11 -15 vhcurveto
          -3 -9 rlineto
          20 -20 9 -19 -21 vvcurveto
          -33 -20 -17 -41 vhcurveto
          -35 hlineto
          -46 -406 rlineto
          -107 -12 -56 -52 -96 hhcurveto
          -82 -42 41 85 14 1 13 2 16 hvcurveto
          54 396 rlineto
          -97 hlineto
          -38 -321 -12 -88 rlineto
          -3 -19 -1 -17 -17 vvcurveto
          -121 81 -67 130 155 90 91 158 17 vhcurveto
          9 74 38 285 rlineto
          49 17 31 37 46 vvcurveto
          endchar
        </CharString>
        <CharString name="Uhungarumlaut">
          85 -8 85 565 -20 hstem
          65 94 vstem
          251 717 rmoveto
          10 1 42 38 39 36 39 39 rlinecurve
          9 vlineto
          -45 31 -8 -2 -35 -43 -36 -40 -37 -42 rlinecurve
          178 -27 rmoveto
          10 1 40 38 41 36 39 39 rlinecurve
          9 vlineto
          -46 31 -7 -2 -36 -43 -36 -40 -36 -42 rlinecurve
          180 -429 rmoveto
          44 327 rlineto
          -98 hlineto
          -46 -406 rlineto
          -107 -12 -56 -52 -96 hhcurveto
          -82 -42 41 85 14 1 13 2 16 hvcurveto
          54 396 rlineto
          -97 hlineto
          -38 -321 -12 -88 rlineto
          -3 -19 -1 -17 -17 vvcurveto
          -121 81 -67 130 155 90 91 158 17 vhcurveto
          endchar
        </CharString>
        <CharString name="Umacron">
          85 -8 85 565 -20 139 63 hstem
          65 94 vstem
          520 817 rmoveto
          -6 7 rlineto
          -282 hlineto
          -6 -55 7 -8 rlineto
          282 hlineto
          32 -446 rmoveto
          44 327 rlineto
          -98 hlineto
          -46 -406 rlineto
          -107 -12 -56 -52 -96 hhcurveto
          -82 -42 41 85 14 1 13 2 16 hvcurveto
          54 396 rlineto
          -97 hlineto
          -38 -321 -12 -88 rlineto
          -3 -19 -1 -17 -17 vvcurveto
          -121 81 -67 130 155 90 91 158 17 vhcurveto
          endchar
        </CharString>
        <CharString name="Uogonek">
          84 -197 61 128 85 565 -20 hstem
          65 94 140 58 vstem
          591 642 rmoveto
          -98 hlineto
          -46 -406 rlineto
          -107 -12 -56 -52 -96 hhcurveto
          -82 -42 41 85 14 1 13 2 16 hvcurveto
          54 396 rlineto
          -97 hlineto
          -38 -321 -12 -88 rlineto
          -3 -19 -1 -17 -17 vvcurveto
          -121 81 -67 130 27 25 3 5 23 vhcurveto
          -29 -45 rlineto
          -16 -24 -7 -23 -22 vvcurveto
          -49 31 -34 48 34 31 18 34 32 vhcurveto
          -12 44 rlineto
          -6 hlineto
          -24 -20 -25 -11 -21 hhcurveto
          -23 -11 13 20 14 6 18 11 17 hvcurveto
          48 83 66 40 39 73 11 99 rlinecurve
          9 74 rlineto
          endchar
        </CharString>
        <CharString name="Uring">
          85 -8 85 565 -20 92 44 84 45 hstem
          65 94 128 44 87 44 vstem
          376 887 rmoveto
          -57 -32 -33 -54 -56 35 -30 50 52 38 32 57 49 -29 35 -57 hvcurveto
          -3 -45 rmoveto
          31 14 -17 -26 -28 -18 -13 -25 -27 -17 14 29 26 14 15 28 hvcurveto
          174 -527 rmoveto
          44 327 rlineto
          -98 hlineto
          -46 -406 rlineto
          -107 -12 -56 -52 -96 hhcurveto
          -82 -42 41 85 14 1 13 2 16 hvcurveto
          54 396 rlineto
          -97 hlineto
          -38 -321 -12 -88 rlineto
          -3 -19 -1 -17 -17 vvcurveto
          -121 81 -67 130 155 90 91 158 17 vhcurveto
          endchar
        </CharString>
        <CharString name="Utilde">
          85 -8 85 565 -20 hstem
          65 94 vstem
          536 830 rmoveto
          -29 30 rlineto
          -9 hlineto
          -27 -26 -16 -21 -17 hhcurveto
          -25 -86 30 5 -44 hvcurveto
          -11 -3 -64 -76 rlineto
          -9 vlineto
          30 -30 rlineto
          9 hlineto
          26 25 17 23 17 hhcurveto
          26 85 -32 -5 44 hvcurveto
          10 4 64 76 rlineto
          11 -506 rmoveto
          44 327 rlineto
          -98 hlineto
          -46 -406 rlineto
          -107 -12 -56 -52 -96 hhcurveto
          -82 -42 41 85 14 1 13 2 16 hvcurveto
          54 396 rlineto
          -97 hlineto
          -38 -321 -12 -88 rlineto
          -3 -19 -1 -17 -17 vvcurveto
          -121 81 -67 130 155 90 91 158 17 vhcurveto
          endchar
        </CharString>
        <CharString name="V">
          27 0 96 546 -20 hstem
          63 531 vstem
          298 hmoveto
          296 642 rlineto
          -96 hlineto
          -26 -77 -215 -469 rlineto
          -6 hlineto
          -82 474 -6 72 rlineto
          -100 hlineto
          119 -642 rlineto
          endchar
        </CharString>
        <CharString name="V.ss01">
          -38 0 39 -39 91 370 40 hstemhm
          -124 738 hintmask 10110000
          483 461 rmoveto
          126 hlineto
          5 40 rlineto
          -676 hlineto
          -5 -40 rlineto
          137 hlineto
          84 -422 rlineto
          -273 hlineto
          -5 -39 rlineto
          676 hlineto
          6 39 rlineto
          -278 hlineto
          120 422 rmoveto
          -10 -32 rlineto
          hintmask 01110000
          -163 -338 rlineto
          -6 hlineto
          -62 343 -3 27 rlineto
          endchar
        </CharString>
        <CharString name="W">
          338 0 105 537 -20 hstem
          71 833 vstem
          611 hmoveto
          293 642 rlineto
          -92 hlineto
          -24 -73 -207 -464 rlineto
          -7 hlineto
          -78 460 -5 77 rlineto
          -101 hlineto
          29 -160 -167 -377 rlineto
          -7 hlineto
          -76 470 -2 67 rlineto
          -96 hlineto
          105 -642 rlineto
          104 hlineto
          156 351 rlineto
          8 hlineto
          65 -351 rlineto
          endchar
        </CharString>
        <CharString name="Wacute">
          338 0 105 537 -20 hstem
          71 833 vstem
          579 869 rmoveto
          -10 3 -68 -41 -63 -32 -67 -34 rlinecurve
          17 -42 11 -4 66 26 65 26 70 31 rlinecurve
          4 10 rlineto
          7 -812 rmoveto
          293 642 rlineto
          -92 hlineto
          -24 -73 -207 -464 rlineto
          -7 hlineto
          -78 460 -5 77 rlineto
          -101 hlineto
          29 -160 -167 -377 rlineto
          -7 hlineto
          -76 470 -2 67 rlineto
          -96 hlineto
          106 -642 rlineto
          104 hlineto
          156 351 rlineto
          7 hlineto
          65 -351 rlineto
          endchar
        </CharString>
        <CharString name="Wcircumflex">
          338 0 105 537 -20 hstem
          71 833 vstem
          358 730 rmoveto
          11 hlineto
          38 22 38 21 38 23 32 -23 30 -21 33 -22 rrcurveto
          10 hlineto
          25 41 -40 30 -39 32 -35 33 rlinecurve
          -24 hlineto
          -40 -33 -43 -32 -48 -30 rrcurveto
          267 -771 rmoveto
          293 642 rlineto
          -92 hlineto
          -24 -73 -207 -464 rlineto
          -7 hlineto
          -78 460 -5 77 rlineto
          -101 hlineto
          29 -160 -167 -377 rlineto
          -7 hlineto
          -76 470 -2 67 rlineto
          -96 hlineto
          106 -642 rlineto
          104 hlineto
          156 351 rlineto
          7 hlineto
          65 -351 rlineto
          endchar
        </CharString>
        <CharString name="Wdieresis">
          338 0 105 537 -20 117 103 hstem
          345 100 65 99 vstem
          398 843 rmoveto
          -33 -20 -21 -32 -32 17 -18 32 31 20 21 33 29 -18 20 -29 hvcurveto
          164 -1 rmoveto
          -33 -19 -21 -32 -31 17 -19 32 31 19 21 33 30 -17 19 -30 hvcurveto
          49 -842 rmoveto
          293 642 rlineto
          -92 hlineto
          -24 -73 -207 -464 rlineto
          -7 hlineto
          -78 460 -5 77 rlineto
          -101 hlineto
          29 -160 -167 -377 rlineto
          -7 hlineto
          -76 470 -2 67 rlineto
          -96 hlineto
          106 -642 rlineto
          104 hlineto
          156 351 rlineto
          7 hlineto
          65 -351 rlineto
          endchar
        </CharString>
        <CharString name="Wgrave">
          338 0 105 537 -20 hstem
          71 833 vstem
          387 872 rmoveto
          -25 -57 4 -10 71 -32 64 -25 66 -26 rlinecurve
          11 4 17 42 -66 33 -63 33 -69 40 rlinecurve
          214 -874 rmoveto
          293 642 rlineto
          -92 hlineto
          -24 -73 -207 -464 rlineto
          -7 hlineto
          -78 460 -5 77 rlineto
          -101 hlineto
          29 -160 -167 -377 rlineto
          -7 hlineto
          -76 470 -2 67 rlineto
          -96 hlineto
          106 -642 rlineto
          104 hlineto
          156 351 rlineto
          7 hlineto
          65 -351 rlineto
          endchar
        </CharString>
        <CharString name="X">
          52 21 -21 642 -20 hstem
          -8 597 vstem
          360 329 rmoveto
          229 313 rlineto
          -105 hlineto
          -32 -53 -143 -192 -95 189 -19 56 rlineto
          -115 hlineto
          155 -315 -243 -327 rlineto
          102 hlineto
          32 50 158 208 102 -202 19 -56 rlineto
          114 hlineto
          endchar
        </CharString>
        <CharString name="X.ss01">
          -18 0 39 422 40 hstem
          -124 758 vstem
          311 260 rmoveto
          157 201 rlineto
          161 hlineto
          5 40 rlineto
          -696 hlineto
          -5 -40 rlineto
          157 hlineto
          113 -208 -170 -214 rlineto
          -152 hlineto
          -5 -39 rlineto
          695 hlineto
          5 39 rlineto
          -149 hlineto
          -160 275 rmoveto
          -71 128 -7 19 rlineto
          192 hlineto
          -10 -17 rlineto
          -126 -246 rmoveto
          74 -137 9 -22 rlineto
          -209 hlineto
          12 18 rlineto
          endchar
        </CharString>
        <CharString name="Y">
          -3 21 -21 642 -20 hstemhm
          203 89 hintmask 00000000
          hintmask 11100000
          295 226 rmoveto
          267 416 rlineto
          -105 hlineto
          -21 -42 -167 -270 rlineto
          -9 hlineto
          -89 273 -7 39 rlineto
          -102 hlineto
          143 -414 -4 -44 -30 -184 rlineto
          99 hlineto
          19 184 rlineto
          endchar
        </CharString>
        <CharString name="Yacute">
          -3 21 -21 642 -20 hstem
          62 500 vstem
          239 723 rmoveto
          11 -4 66 26 65 26 70 31 rlinecurve
          4 10 -25 57 -10 3 -68 -41 -63 -32 -67 -34 rlinecurve
          74 -538 rmoveto
          266 415 rlineto
          -104 hlineto
          -21 -42 -168 -270 rlineto
          -8 hlineto
          -89 273 -8 39 rlineto
          -102 hlineto
          143 -414 -4 -44 -30 -184 rlineto
          99 hlineto
          19 184 rlineto
          endchar
        </CharString>
        <CharString name="Ycircumflex">
          -3 21 -21 642 -20 hstem
          62 500 vstem
          210 730 rmoveto
          11 hlineto
          38 22 38 21 38 23 32 -23 30 -21 33 -22 rrcurveto
          10 hlineto
          25 41 -40 30 -39 32 -35 33 rlinecurve
          -24 hlineto
          -40 -33 -43 -32 -48 -30 rrcurveto
          100 -544 rmoveto
          266 415 rlineto
          -104 hlineto
          -21 -42 -168 -270 rlineto
          -8 hlineto
          -89 273 -8 39 rlineto
          -102 hlineto
          143 -414 -4 -44 -30 -184 rlineto
          99 hlineto
          19 184 rlineto
          endchar
        </CharString>
        <CharString name="Ydieresis">
          -3 21 -21 642 -20 117 103 hstem
          197 100 65 99 vstem
          246 740 rmoveto
          31 20 21 33 29 -18 20 -29 -33 -20 -21 -32 -32 17 -18 32 hvcurveto
          165 -1 rmoveto
          31 19 21 33 30 -17 19 -30 -33 -19 -21 -32 -31 17 -19 32 hvcurveto
          -115 -512 rmoveto
          266 415 rlineto
          -104 hlineto
          -21 -42 -168 -270 rlineto
          -8 hlineto
          -89 273 -8 39 rlineto
          -102 hlineto
          143 -414 -4 -44 -30 -184 rlineto
          99 hlineto
          19 184 rlineto
          endchar
        </CharString>
        <CharString name="Ydotbelow">
          -3 -175 109 87 -21 642 -20 hstemhm
          158 107 -62 89.5 hintmask 00000000
          hintmask 11101000
          296 227 rmoveto
          266 415 rlineto
          -104 hlineto
          -21 -42 -168 -270 rlineto
          -8 hlineto
          -89 273 -8 39 rlineto
          -102 hlineto
          143 -414 -4 -44 -30 -184 rlineto
          99 hlineto
          19 184 rlineto
          hintmask 11110000
          -75 -250 rmoveto
          -35 -21 -22 -34 -34 19 -19 33 34 21 22 35 32 -19 20 -32 hvcurveto
          endchar
        </CharString>
        <CharString name="Ygrave">
          -3 21 -21 642 -20 hstem
          62 500 vstem
          429 726 rmoveto
          17 42 -66 33 -63 33 -69 40 rlinecurve
          -10 -2 -25 -57 4 -10 71 -32 64 -25 66 -26 rlinecurve
          -122 -495 rmoveto
          266 415 rlineto
          -104 hlineto
          -21 -42 -168 -270 rlineto
          -8 hlineto
          -89 273 -8 39 rlineto
          -102 hlineto
          143 -414 -4 -44 -30 -184 rlineto
          99 hlineto
          19 184 rlineto
          endchar
        </CharString>
        <CharString name="Yhookabove">
          -3 21 -21 642 -20 231 50 hstem
          329 56 vstem
          302 853 rmoveto
          16 11 -7 -14 -17 -18 -26 -32 -24 hvcurveto
          35 -59 39 22 -21 36 rlineto
          38 32 15 21 25 vvcurveto
          35 -29 26 -39 -32 -34 -17 -28 -27 vhcurveto
          19 -29 rlineto
          16 19 22 8 18 hhcurveto
          -6 -626 rmoveto
          266 415 rlineto
          -104 hlineto
          -21 -42 -168 -270 rlineto
          -8 hlineto
          -89 273 -8 39 rlineto
          -102 hlineto
          143 -414 -4 -44 -30 -184 rlineto
          99 hlineto
          19 184 rlineto
          endchar
        </CharString>
        <CharString name="Ytilde">
          -3 21 -21 642 -20 hstem
          62 500 vstem
          195 729 rmoveto
          9 hlineto
          26 25 17 23 17 hhcurveto
          26 85 -32 -5 44 hvcurveto
          10 4 64 76 rlineto
          9 vlineto
          -29 30 rlineto
          -9 hlineto
          -27 -26 -16 -21 -17 hhcurveto
          -25 -86 30 5 -44 hvcurveto
          -11 -3 -64 -76 rlineto
          -9 vlineto
          131 -532 rmoveto
          266 415 rlineto
          -104 hlineto
          -21 -42 -168 -270 rlineto
          -8 hlineto
          -89 273 -8 39 rlineto
          -102 hlineto
          143 -414 -4 -44 -30 -184 rlineto
          99 hlineto
          19 184 rlineto
          endchar
        </CharString>
        <CharString name="Z">
          -7 0 78 -59 -21 565 80 hstemhm
          2 527 hintmask 10110000
          520 570 rmoveto
          9 73 -52 -1 -376 1 -19 -82 4 -6 100 8 rlineto
          218 hlineto
          hintmask 01110000
          -392 -494 -10 -72 rlineto
          hintmask 10110000
          63 3 rlineto
          259 hlineto
          123 -2 18 82 -4 6 -98 -8 rlineto
          -234 hlineto
          endchar
        </CharString>
        <CharString name="Zacute">
          -7 0 78 -59 -21 565 80 hstemhm
          2 527 hintmask 10110000
          392 869 rmoveto
          -10 3 -68 -41 -63 -32 -67 -34 rlinecurve
          17 -42 11 -4 66 26 65 26 70 31 rlinecurve
          4 10 rlineto
          103 -242 rmoveto
          9 73 -53 -1 -376 1 -19 -82 5 -6 99 8 rlineto
          219 hlineto
          hintmask 01110000
          -393 -494 -9 -72 rlineto
          hintmask 10110000
          63 3 rlineto
          258 hlineto
          124 -2 17 82 -3 6 -98 -8 rlineto
          -234 hlineto
          endchar
        </CharString>
        <CharString name="Zcaron">
          -7 0 78 -59 -21 565 80 hstemhm
          2 527 hintmask 10110000
          410 858 rmoveto
          -10 hlineto
          -40 -22 -37 -21 -37 -22 -96 65 rcurveline
          -10 hlineto
          -24 -41 40 -30 38 -32 35 -33 rlinecurve
          24 hlineto
          39 33 44 32 49 30 rrcurveto
          95 -247 rmoveto
          9 73 -53 -1 -376 1 -19 -82 5 -6 99 8 rlineto
          219 hlineto
          hintmask 01110000
          -393 -494 -9 -72 rlineto
          hintmask 10110000
          63 3 rlineto
          258 hlineto
          124 -2 17 82 -3 6 -98 -8 rlineto
          -234 hlineto
          endchar
        </CharString>
        <CharString name="Zdotaccent">
          -7 0 78 -59 -21 565 80 103 109 hstemhm
          239 107 hintmask 10111000
          294 855 rmoveto
          -34 -21 -22 -34 -33 18 -20 34 33 22 22 35 32 -19 20 -33 hvcurveto
          226 -285 rmoveto
          9 73 -53 -1 -376 1 -19 -82 5 -6 99 8 rlineto
          219 hlineto
          hintmask 01111000
          -393 -494 -9 -72 rlineto
          hintmask 10111000
          63 3 rlineto
          258 hlineto
          124 -2 17 82 -3 6 -98 -8 rlineto
          -234 hlineto
          endchar
        </CharString>
        <CharString name="a">
          -20 21 -21 118.5 73 221.5 88 hstem
          -7 450 vstem
          443 hmoveto
          -100 501 rlineto
          -107 hlineto
          -243 -501 rlineto
          90 hlineto
          23 65 26 53 96 1 108 -1 11 -58 3 -60 rlineto
          -28 192 rmoveto
          -79 -1 -76 1 106 221 rlineto
          6 hlineto
          endchar
        </CharString>
        <CharString name="a.sups">
          -204 328 67 64 -20 150 56 -52 52 0 -20 hstemhm
          58 68 hintmask 00000000
          hintmask 11001100
          324 644 rmoveto
          -7 5 -45 -11 -53 7 rlineto
          -4 hlineto
          -106 -23 -51 -95 -96 vvcurveto
          -53 15 -32 51 -18 vhcurveto
          12 hlineto
          33 33 29 44 26 50 rrcurveto
          8 hlineto
          1 4 -17 -130 71 6 5 72 rlineto
          -147 -12 rmoveto
          -8 -11 17 47 hvcurveto
          hintmask 11010100
          76 28 57 51 1 vhcurveto
          hintmask 11100100
          43 -8 -1 -15 -3 -23 rlineto
          hintmask 11001100
          -98 -45 -42 -54 -12 hhcurveto
          endchar
        </CharString>
        <CharString name="aacute">
          -20 21 -21 118.5 73 221.5 88 97 -20 hstem
          -6 450 vstem
          222 560 rmoveto
          10 -1 59 39 57 40 62 45 rlinecurve
          3 10 -37 52 -9 1 -58 -55 -54 -45 -58 -48 rlinecurve
          247 -598 rmoveto
          -100 501 rlineto
          -107 hlineto
          -243 -501 rlineto
          90 hlineto
          23 65 26 53 95 1 109 -1 11 -58 3 -60 rlineto
          -28 192 rmoveto
          -80 -1 -75 1 106 221 rlineto
          6 hlineto
          endchar
        </CharString>
        <CharString name="abreve">
          -20 21 -21 118.5 73 221.5 88 67 69 hstem
          -6 450 vstem
          293 568 rmoveto
          71 48 47 71 24 hvcurveto
          -21 35 rlineto
          -14 hlineto
          -56 -21 -35 -28 -49 hhcurveto
          -48 -30 28 56 -7 hvcurveto
          -15 hlineto
          -28 -35 rlineto
          -68 7 35 -50 83 hhcurveto
          151 -568 rmoveto
          -100 501 rlineto
          -107 hlineto
          -243 -501 rlineto
          90 hlineto
          23 65 26 53 95 1 109 -1 11 -58 3 -60 rlineto
          -28 192 rmoveto
          -80 -1 -75 1 106 221 rlineto
          6 hlineto
          endchar
        </CharString>
        <CharString name="abreveacute">
          -20 21 -21 118.5 73 221.5 88 61 69 78 -20 hstem
          -6 450 vstem
          292 682 rmoveto
          9 2 35 33 34 33 34 35 rlinecurve
          -2 9 -44 30 -9 -1 -29 -40 -29 -37 -31 -37 rlinecurve
          42 -147 rmoveto
          62 48 34 61 28 hvcurveto
          -21 33 rlineto
          -14 hlineto
          -37 -21 -35 -22 -46 hhcurveto
          -47 -31 21 38 -10 hvcurveto
          -15 hlineto
          -29 -33 rlineto
          -61 14 47 -34 70 hhcurveto
          142 -562 rmoveto
          -100 501 rlineto
          -107 hlineto
          -243 -501 rlineto
          90 hlineto
          23 65 26 53 95 1 109 -1 11 -58 3 -60 rlineto
          -28 192 rmoveto
          -80 -1 -75 1 106 221 rlineto
          6 hlineto
          endchar
        </CharString>
        <CharString name="abrevedotbelow">
          -20 -175 109 87 -21 118.5 73 221.5 88 67 69 hstem
          169 107 vstem
          293 568 rmoveto
          71 48 47 71 24 hvcurveto
          -21 35 rlineto
          -14 hlineto
          -56 -21 -35 -28 -49 hhcurveto
          -48 -30 28 56 -7 hvcurveto
          -15 hlineto
          -28 -35 rlineto
          -68 7 35 -50 83 hhcurveto
          151 -568 rmoveto
          -100 501 rlineto
          -107 hlineto
          -243 -501 rlineto
          90 hlineto
          23 65 26 53 95 1 109 -1 11 -58 3 -60 rlineto
          -28 192 rmoveto
          -80 -1 -75 1 106 221 rlineto
          6 hlineto
          -55 -479 rmoveto
          -35 -21 -22 -34 -34 19 -19 33 34 21 22 35 32 -19 20 -32 hvcurveto
          endchar
        </CharString>
        <CharString name="abrevegrave">
          -20 21 -21 118.5 73 221.5 88 60 69 79 -20 hstem
          -6 450 vstem
          318 682 rmoveto
          32 27 -31 37 -29 37 -29 40 rlinecurve
          -9 1 -45 -30 rlineto
          -9 vlineto
          33 -35 34 -33 34 -33 rrcurveto
          -5 -123 rmoveto
          62 48 34 62 28 hvcurveto
          -21 32 rlineto
          -14 hlineto
          -37 -21 -36 -22 -45 hhcurveto
          -47 -31 21 38 -10 hvcurveto
          -15 hlineto
          -29 -32 rlineto
          -62 14 47 -34 70 hhcurveto
          141 -561 rmoveto
          -100 501 rlineto
          -107 hlineto
          -243 -501 rlineto
          90 hlineto
          23 65 26 53 95 1 109 -1 11 -58 3 -60 rlineto
          -28 192 rmoveto
          -80 -1 -75 1 106 221 rlineto
          6 hlineto
          endchar
        </CharString>
        <CharString name="abrevehookabove">
          -20 21 -21 118.5 73 221.5 88 62 69 69 -20 145 50 hstem
          318 56 vstem
          291 826 rmoveto
          16 11 -7 -14 -18 -18 -25 -32 -24 hvcurveto
          35 -59 39 22 -21 36 rlineto
          37 31 16 21 26 vvcurveto
          35 -30 26 -39 -31 -34 -17 -28 -27 vhcurveto
          18 -29 rlineto
          16 20 22 8 18 hhcurveto
          11 -263 rmoveto
          62 48 34 61 28 hvcurveto
          -21 33 rlineto
          -14 hlineto
          -38 -21 -35 -21 -46 hhcurveto
          -47 -31 21 38 -10 hvcurveto
          -15 hlineto
          -29 -33 rlineto
          -61 14 47 -34 70 hhcurveto
          142 -563 rmoveto
          -100 501 rlineto
          -107 hlineto
          -243 -501 rlineto
          90 hlineto
          23 65 26 53 95 1 109 -1 11 -58 3 -60 rlineto
          -28 192 rmoveto
          -80 -1 -75 1 106 221 rlineto
          6 hlineto
          endchar
        </CharString>
        <CharString name="abrevetilde">
          -20 21 -21 118.5 73 221.5 88 61 67 hstem
          -6 479 vstem
          473 817 rmoveto
          -27 28 rlineto
          -8 hlineto
          -25 -24 -15 -22 -16 hhcurveto
          -24 -80 30 5 -41 hvcurveto
          -10 -3 -60 -72 rlineto
          -9 vlineto
          28 -29 rlineto
          9 hlineto
          25 23 15 21 16 hhcurveto
          25 79 -30 -5 41 hvcurveto
          10 4 59 73 rlineto
          -67 -122 rmoveto
          -15 hlineto
          -37 -19 -35 -20 -44 hhcurveto
          -45 -30 20 37 -10 hvcurveto
          -15 hlineto
          -28 -31 rlineto
          -59 14 45 -34 68 hhcurveto
          60 47 34 59 27 hvcurveto
          -82 -154 rmoveto
          -107 hlineto
          -243 -501 rlineto
          90 hlineto
          23 65 26 53 95 1 109 -1 11 -58 3 -60 rlineto
          93 hlineto
          -121 192 rmoveto
          -80 -1 -75 1 106 221 rlineto
          6 hlineto
          endchar
        </CharString>
        <CharString name="acaron">
          -20 21 -21 118.5 73 221.5 88 198 -20 hstem
          -6 450 vstem
          302 562 rmoveto
          52 52 46 46 43 39 -20 38 rcurveline
          -11 hlineto
          -43 -35 -40 -32 -34 -33 -26 33 -30 32 -36 35 rrcurveto
          -10 hlineto
          -30 -38 40 -42 40 -47 34 -48 rlinecurve
          167 -562 rmoveto
          -100 501 rlineto
          -107 hlineto
          -243 -501 rlineto
          90 hlineto
          23 65 26 53 95 1 109 -1 11 -58 3 -60 rlineto
          -28 192 rmoveto
          -80 -1 -75 1 106 221 rlineto
          6 hlineto
          endchar
        </CharString>
        <CharString name="acircumflex">
          -20 21 -21 118.5 73 221.5 88 hstem
          -6 450 vstem
          184 564 rmoveto
          11 hlineto
          43 35 39 32 35 33 26 -33 30 -32 35 -35 rrcurveto
          10 hlineto
          30 38 -38 42 -38 47 -35 48 rlinecurve
          -25 hlineto
          -52 -52 -47 -46 -44 -39 rrcurveto
          280 -602 rmoveto
          -100 501 rlineto
          -107 hlineto
          -243 -501 rlineto
          90 hlineto
          23 65 26 53 95 1 109 -1 11 -58 3 -60 rlineto
          -28 192 rmoveto
          -80 -1 -75 1 106 221 rlineto
          6 hlineto
          endchar
        </CharString>
        <CharString name="acircumflexacute">
          -20 21 -21 118.5 73 221.5 88 205 -20 23 -20 hstemhm
          -6 485 hintmask 11101100
          385 683 rmoveto
          8 hlineto
          86 107 -2 9 -48 23 -8 -3 -70 -110 rlineto
          -176 -139 rmoveto
          11 hlineto
          38 22 38 21 38 23 32 -23 30 -21 33 -22 rrcurveto
          10 hlineto
          hintmask 11110100
          25 41 -40 30 -39 32 -35 33 rlinecurve
          -24 hlineto
          -40 -33 -43 -32 -48 -30 rrcurveto
          183 -110 rmoveto
          -107 hlineto
          -243 -501 rlineto
          90 hlineto
          23 65 26 53 95 1 109 -1 11 -58 3 -60 rlineto
          93 hlineto
          -121 192 rmoveto
          -80 -1 -75 1 106 221 rlineto
          6 hlineto
          endchar
        </CharString>
        <CharString name="acircumflexdotbelow">
          -20 -175 109 87 -21 118.5 73 221.5 88 hstem
          169 107 vstem
          183 564 rmoveto
          11 hlineto
          43 35 39 32 35 33 26 -33 30 -32 35 -35 rrcurveto
          10 hlineto
          30 38 -38 42 -38 47 -35 48 rlinecurve
          -25 hlineto
          -52 -52 -47 -46 -44 -39 rrcurveto
          281 -602 rmoveto
          -100 501 rlineto
          -107 hlineto
          -243 -501 rlineto
          90 hlineto
          23 65 26 53 95 1 109 -1 11 -58 3 -60 rlineto
          -28 192 rmoveto
          -80 -1 -75 1 106 221 rlineto
          6 hlineto
          -55 -479 rmoveto
          -35 -21 -22 -34 -34 19 -19 33 34 21 22 35 32 -19 20 -32 hvcurveto
          endchar
        </CharString>
        <CharString name="acircumflexgrave">
          -20 21 -21 118.5 73 221.5 88 204 -20 24 -20 hstemhm
          -6 451 hintmask 00000000
          hintmask 11110100
          403 683 rmoveto
          8 hlineto
          hintmask 11101100
          34 26 -70 110 -8 3 -49 -23 -1 -9 rlineto
          -138 -221 rmoveto
          11 hlineto
          38 22 38 21 38 23 31 -23 31 -21 33 -22 rrcurveto
          10 hlineto
          hintmask 11110100
          24 41 -40 30 -39 32 -34 33 rlinecurve
          -24 hlineto
          -40 -33 -43 -32 -48 -30 rrcurveto
          179 -109 rmoveto
          -107 hlineto
          -243 -501 rlineto
          90 hlineto
          23 65 26 53 95 1 109 -1 11 -58 3 -60 rlineto
          93 hlineto
          -121 192 rmoveto
          -80 -1 -75 1 106 221 rlineto
          6 hlineto
          endchar
        </CharString>
        <CharString name="acircumflexhookabove">
          -20 21 -21 118.5 73 221.5 88 205 -20 130 48 hstem
          407 53 vstem
          381 816 rmoveto
          15 11 -7 -13 -17 -18 -24 -30 -23 hvcurveto
          33 -56 38 21 -20 34 rlineto
          35 30 15 20 24 vvcurveto
          34 -28 25 -37 -30 -33 -17 -26 -25 vhcurveto
          18 -28 rlineto
          15 18 22 8 16 hhcurveto
          -204 -246 rmoveto
          11 hlineto
          38 22 38 21 38 23 32 -23 30 -21 33 -22 rrcurveto
          10 hlineto
          25 41 -40 30 -39 32 -35 33 rlinecurve
          -24 hlineto
          -40 -33 -43 -32 -48 -30 rrcurveto
          181 -110 rmoveto
          -107 hlineto
          -243 -501 rlineto
          90 hlineto
          23 65 26 53 95 1 109 -1 11 -58 3 -60 rlineto
          93 hlineto
          -121 192 rmoveto
          -80 -1 -75 1 106 221 rlineto
          6 hlineto
          endchar
        </CharString>
        <CharString name="acircumflextilde">
          -20 21 -21 118.5 73 221.5 88 205 -20 hstem
          -6 496 vstem
          490 816 rmoveto
          -27 29 rlineto
          -9 hlineto
          -26 -23 -16 -21 -16 hhcurveto
          -23 -80 29 5 -41 hvcurveto
          -10 -3 -60 -72 rlineto
          -8 vlineto
          28 -29 rlineto
          9 hlineto
          24 22 16 22 16 hhcurveto
          25 79 -31 -5 41 hvcurveto
          10 4 59 73 rlineto
          -177 -171 rmoveto
          31 -23 31 -21 33 -21 rrcurveto
          10 hlineto
          24 40 -40 30 -39 32 -34 33 rlinecurve
          -24 hlineto
          -40 -33 -43 -32 -48 -30 14 -40 rcurveline
          11 hlineto
          38 21 38 21 38 23 rrcurveto
          31 -135 rmoveto
          -107 hlineto
          -243 -501 rlineto
          90 hlineto
          23 65 26 53 95 1 109 -1 11 -58 3 -60 rlineto
          93 hlineto
          -121 192 rmoveto
          -80 -1 -75 1 106 221 rlineto
          6 hlineto
          endchar
        </CharString>
        <CharString name="acute">
          653 -20 73 -20 hstem
          133 216 vstem
          312 705 rmoveto
          -9 1 -58 -55 -54 -45 -58 -48 rlinecurve
          25 -38 10 -1 59 39 57 40 62 45 rlinecurve
          3 10 rlineto
          endchar
        </CharString>
        <CharString name="acute.cap">
          538 153 hstem
          124 233 vstem
          332 688 rmoveto
          -10 3 -68 -41 -63 -32 -67 -34 rlinecurve
          17 -42 11 -4 66 26 65 26 70 31 rlinecurve
          4 10 rlineto
          endchar
        </CharString>
        <CharString name="adieresis">
          -20 21 -21 118.5 73 221.5 88 97 103 -102 103 hstemhm
          171 100 65 99 hintmask 00000000
          hintmask 11101110
          220 599 rmoveto
          31 20 21 33 29 -18 20 -29 -33 -20 -21 -32 -32 17 -18 32 hvcurveto
          hintmask 11110110
          165 -1 rmoveto
          31 19 21 33 30 -17 19 -30 -33 -19 -21 -32 -31 17 -19 32 hvcurveto
          59 -598 rmoveto
          -100 501 rlineto
          -107 hlineto
          -243 -501 rlineto
          90 hlineto
          23 65 26 53 95 1 109 -1 11 -58 3 -60 rlineto
          -28 192 rmoveto
          -80 -1 -75 1 106 221 rlineto
          6 hlineto
          endchar
        </CharString>
        <CharString name="adotbelow">
          -20 -175 109 87 -21 118.5 73 221.5 88 hstem
          169 107 vstem
          444 hmoveto
          -100 501 rlineto
          -107 hlineto
          -243 -501 rlineto
          90 hlineto
          23 65 26 53 95 1 109 -1 11 -58 3 -60 rlineto
          -28 192 rmoveto
          -80 -1 -75 1 106 221 rlineto
          6 hlineto
          -55 -479 rmoveto
          -35 -21 -22 -34 -34 19 -19 33 34 21 22 35 32 -19 20 -32 hvcurveto
          endchar
        </CharString>
        <CharString name="ae">
          159 0 72 343 85 -70 70 -7 7 hstemhm
          327.5 84 -79.5 83 hintmask 10101000
          640 70 rmoveto
          -5 7 rlineto
          hintmask 10100100
          -132 -5 rlineto
          -87 hlineto
          -2 127 172 34 2 70 -6 6 rlineto
          hintmask 10101000
          -169 -40 -3 161 rlineto
          73 hlineto
          127 -6 rlineto
          hintmask 10011000
          17 69 -5 7 rlineto
          hintmask 10100100
          -328 hlineto
          -322 -500 rlineto
          87 hlineto
          30 63 45 70 197 47 2 -121 -5 -59 rlineto
          297 hlineto
          hintmask 11001000
          -296 249 rmoveto
          -139 -32 129 198 rlineto
          7 hlineto
          endchar
        </CharString>
        <CharString name="aeacute">
          159 0 72 343 85 -70 70 98 -20 hstemhm
          327.5 84 -79.5 84 hintmask 10111000
          377 560 rmoveto
          10 -1 59 39 57 40 62 45 rlinecurve
          3 10 -37 52 -9 1 -58 -55 -54 -45 -58 -48 rlinecurve
          288 -528 rmoveto
          -5 7 rlineto
          hintmask 10110100
          -132 -5 rlineto
          -86 hlineto
          -2 127 170 34 3 70 -7 6 rlineto
          hintmask 10111000
          -168 -40 -3 161 rlineto
          73 hlineto
          127 -6 17 69 -4 7 rlineto
          -328 hlineto
          -323 -500 rlineto
          88 hlineto
          29 63 45 70 rlineto
          hintmask 10110100
          197 47 2 -121 -5 -59 rlineto
          297 hlineto
          hintmask 11011000
          -296 249 rmoveto
          -139 -32 129 198 rlineto
          7 hlineto
          endchar
        </CharString>
        <CharString name="agrave">
          -20 21 -21 118.5 73 221.5 88 97 -20 hstem
          -6 450 vstem
          375 560 rmoveto
          26 38 -59 48 -54 45 -57 55 rlinecurve
          -10 -1 -36 -52 2 -10 62 -45 57 -40 59 -39 rlinecurve
          79 -559 rmoveto
          -100 501 rlineto
          -107 hlineto
          -243 -501 rlineto
          90 hlineto
          23 65 26 53 95 1 109 -1 11 -58 3 -60 rlineto
          -28 192 rmoveto
          -80 -1 -75 1 106 221 rlineto
          6 hlineto
          endchar
        </CharString>
        <CharString name="ahookabove">
          -20 21 -21 118.5 73 221.5 88 86 -20 145 50 hstem
          303 56 vstem
          276 712 rmoveto
          16 11 -7 -14 -17 -18 -26 -32 -24 hvcurveto
          35 -59 39 22 -21 36 rlineto
          38 32 15 21 25 vvcurveto
          35 -29 26 -39 -32 -34 -17 -28 -27 vhcurveto
          19 -29 rlineto
          16 19 22 8 18 hhcurveto
          168 -712 rmoveto
          -100 501 rlineto
          -107 hlineto
          -243 -501 rlineto
          90 hlineto
          23 65 26 53 95 1 109 -1 11 -58 3 -60 rlineto
          -28 192 rmoveto
          -80 -1 -75 1 106 221 rlineto
          6 hlineto
          endchar
        </CharString>
        <CharString name="amacron">
          -20 21 -21 118.5 73 221.5 88 119 63 hstem
          -6 456 vstem
          450 676 rmoveto
          -6 7 rlineto
          -282 hlineto
          -6 -55 7 -8 rlineto
          282 hlineto
          -101 -119 rmoveto
          -107 hlineto
          -243 -501 rlineto
          90 hlineto
          23 65 26 53 95 1 109 -1 11 -58 3 -60 rlineto
          93 hlineto
          -121 192 rmoveto
          -80 -1 -75 1 106 221 rlineto
          6 hlineto
          endchar
        </CharString>
        <CharString name="ampersand">
          224 -11 72 159 72 -37 71 117 65 203 -20 hstemhm
          44 85 173 63 hintmask 00000000
          hintmask 11011100
          793 349 rmoveto
          -11 -1 rlineto
          -40 -17 -24 -16 -36 hhcurveto
          hintmask 10111110
          -52 -120 34 -51 hhcurveto
          -48 -5 -30 -24 -27 -45 17 -55 rcurveline
          11 1 rlineto
          40 22 24 17 30 hhcurveto
          12 17 -2 -4 19 hvcurveto
          -113 -6 -89 -75 -121 hhcurveto
          -98 -57 50 79 -20 hvcurveto
          230 92 238 204 70 160 -7 25 -13 21 -19 19 rrcurveto
          -9 hlineto
          -52 -116 -96 -112 -117 -90 rrcurveto
          1 8 1 7 6 vvcurveto
          53 -42 41 -75 -115 -89 -100 -157 -161 97 -101 164 164 115 99 147 16 vhcurveto
          hintmask 11011110
          -8 41 40 -7 25 hhcurveto
          48 5 29 25 26 45 rrcurveto
          -563 148 rmoveto
          31 22 -14 -30 3 hvcurveto
          1 -20 -8 -29 -33 -25 -43 -25 -44 -23 -46 -18 rrcurveto
          5 vlineto
          108 45 71 72 vhcurveto
          endchar
        </CharString>
        <CharString name="aogonek">
          -20 -196 62 155 -21 118.5 73 221.5 88 hstemhm
          279 64 6.5 88 hintmask 11111000
          436 -95 rmoveto
          -5 hlineto
          -25 -22 -20 -14 -21 hhcurveto
          -14 -11 7 20 23 13 24 61 60 hvcurveto
          27 hlineto
          -100 501 rlineto
          -107 hlineto
          -243 -501 rlineto
          90 hlineto
          23 65 26 53 95 1 rlineto
          hintmask 11110100
          109 -1 11 -58 3 -60 rlineto
          -1 hlineto
          hintmask 11111000
          -57 -67 -14 -30 -31 vvcurveto
          -42 30 -26 41 32 29 18 31 28 vhcurveto
          -116 339 rmoveto
          -80 -1 -75 1 106 221 rlineto
          6 hlineto
          endchar
        </CharString>
        <CharString name="approxequal">
          -40 112 304 hstem
          51 422 vstem
          179 339 rmoveto
          32 114 -43 -6 50 hvcurveto
          12 3 85 80 1 10 -21 33 rlineto
          -10 hlineto
          -30 -35 -23 -23 -18 hhcurveto
          -33 -113 42 9 -50 hvcurveto
          -12 -6 -85 -79 -1 -10 21 -33 rlineto
          11 hlineto
          29 34 22 24 19 hhcurveto
          -20 -174 rmoveto
          32 113 -43 -6 50 hvcurveto
          12 3 85 80 1 10 -21 33 rlineto
          -10 hlineto
          -30 -35 -23 -23 -18 hhcurveto
          -32 -114 42 9 -50 hvcurveto
          -11 -6 -86 -79 -1 -10 22 -33 rlineto
          10 hlineto
          30 34 23 23 19 hhcurveto
          endchar
        </CharString>
        <CharString name="aring">
          -20 21 -21 118.5 73 221.5 88 72 44 84 45 hstem
          217 44 87 44 vstem
          302 573 rmoveto
          52 38 32 57 49 -29 35 -57 -57 -32 -33 -54 -56 35 -30 50 hvcurveto
          1 128 rmoveto
          31 14 -17 -26 -28 -18 -13 -25 -27 -17 14 29 26 14 15 28 hvcurveto
          141 -701 rmoveto
          -100 501 rlineto
          -107 hlineto
          -243 -501 rlineto
          90 hlineto
          23 65 26 53 95 1 109 -1 11 -58 3 -60 rlineto
          -28 192 rmoveto
          -80 -1 -75 1 106 221 rlineto
          6 hlineto
          endchar
        </CharString>
        <CharString name="aringacute">
          -20 21 -21 118.5 73 221.5 88 51 44 84 45 hstem
          213 44 87 44 vstem
          217 747 rmoveto
          9 -6 70 16 68 14 75 21 rlinecurve
          4 8 -15 61 -10 4 -74 -29 -67 -23 -70 -22 rlinecurve
          6 -153 rmoveto
          -56 35 -30 50 52 38 32 57 49 -29 35 -57 -56 -33 -33 -54 vhcurveto
          131 -1 rmoveto
          -28 -17 -13 -26 -27 -17 14 29 26 14 15 29 30 14 -17 -26 vhcurveto
          100 -637 rmoveto
          -100 501 rlineto
          -107 hlineto
          -243 -501 rlineto
          90 hlineto
          23 65 26 53 95 1 109 -1 11 -58 3 -60 rlineto
          -28 192 rmoveto
          -80 -1 -75 1 106 221 rlineto
          6 hlineto
          endchar
        </CharString>
        <CharString name="arrowdown">
          1 16 -21 465 7 -4 -20 hstemhm
          228 65 hintmask 10110000
          468 190 rmoveto
          -14 53 rlineto
          -14 hlineto
          -149 -144 4 364 rlineto
          hintmask 11010000
          -62 4 -7 -7 4 -360 -148 143 rlineto
          -14 hlineto
          -14 -53 200 -195 rlineto
          15 hlineto
          endchar
        </CharString>
        <CharString name="arrowdownleft">
          1 57.5 58 hstem
          98 58 vstem
          407 114 rmoveto
          -208 3 261 254 -41 47 rlineto
          -10 hlineto
          -251 -256 -4 205 -10 10 -48 -28 4 -280 10 -10 279 -3 28 48 rlineto
          endchar
        </CharString>
        <CharString name="arrowdownright">
          1 55 57.5 hstem
          364 58.5 vstem
          424 346 rmoveto
          -48 28 -10 -10 -4 -207 -253 259 -47 -41 rlineto
          -9 vlineto
          257 -252 -206 -3 -10 -10 28 -48 279 4 11 10 rlineto
          endchar
        </CharString>
        <CharString name="arrowleft">
          1 201 65 hstem
          23 472 vstem
          491 199 rmoveto
          4 62 -6 7 -360 -4 143 148 rlineto
          14 vlineto
          -54 14 -195 -200 rlineto
          -15 vlineto
          195 -199 54 14 rlineto
          14 vlineto
          -144 149 rlineto
          endchar
        </CharString>
        <CharString name="arrowright">
          1 202 65 hstem
          25 472 vstem
          497 243 rmoveto
          -195 199 -54 -14 rlineto
          -14 vlineto
          144 -149 -363 4 -4 -62 6 -7 360 4 -143 -148 rlineto
          -14 vlineto
          54 -14 195 200 rlineto
          endchar
        </CharString>
        <CharString name="arrowup">
          1 21 -21 472 -20 hstem
          228 65 vstem
          467 277 rmoveto
          -200 195 rlineto
          -15 hlineto
          -199 -195 14 -53 rlineto
          14 hlineto
          149 144 -4 -364 62 -4 7 7 -4 360 148 -143 rlineto
          14 hlineto
          endchar
        </CharString>
        <CharString name="arrowupleft">
          1 351 58 hstem
          97.5 57.5 vstem
          458 98 rmoveto
          -256 251 204 4 10 10 -27 48 -280 -4 -10 -10 -3 -279 47 -28 10 10 4 208 254 -261 47 41 rlineto
          endchar
        </CharString>
        <CharString name="arrowupright">
          1 355 57.5 hstem
          365 58 vstem
          425 122 rmoveto
          -4 279 -11 10 -278 3 -28 -47 10 -10 206 -4 -259 -254 41 -47 rlineto
          10 hlineto
          251 257 4 -205 10 -10 rlineto
          endchar
        </CharString>
        <CharString name="asciicircum">
          -92 422 71 hstem
          7 392 vstem
          399 138 rmoveto
          -105 355 rlineto
          -80 hlineto
          -11 -6 -196 -354 53 -21 10 5 170 305 rlineto
          6 hlineto
          88 -307 57 14 rlineto
          endchar
        </CharString>
        <CharString name="asciitilde">
          -41 197 130 hstem
          44 401 vstem
          152 250 rmoveto
          32 113 -43 -7 50 hvcurveto
          12 4 85 80 1 10 -21 33 rlineto
          -10 hlineto
          -30 -35 -23 -23 -18 hhcurveto
          -32 -114 42 8 -50 hvcurveto
          -11 -5 -86 -79 -1 -10 22 -33 rlineto
          10 hlineto
          29 34 23 24 19 hhcurveto
          endchar
        </CharString>
        <CharString name="asterisk">
          -143 597 -20 hstem
          212 44 vstem
          281 729 rmoveto
          -4 8 rlineto
          -22 -24 -4 -7 -20 hvcurveto
          2 -114 6 -8 37 5 rlineto
          -57 -12 rmoveto
          -98 62 -9 -2 rlineto
          -7 -21 -2 -26 -20 vvcurveto
          102 -34 9 4 rlineto
          78 39 rmoveto
          -4 -9 16 -34 114 14 4 5 -6 23 -12 21 -12 17 rlinecurve
          -93 -99 rmoveto
          -10 1 -26 -25 44 -115 8 -1 19 14 16 15 12 19 rlinecurve
          -119 75 rmoveto
          -32 17 -87 -83 rlineto
          -8 vlineto
          20 -12 22 -12 20 -6 58 94 rcurveline
          endchar
        </CharString>
        <CharString name="at">
          310 -202 57 158 -21 26 -21 396 72 -5 -20 25 -20 21 -20 112 63 hstemhm
          33 67 120 81 437 66 hintmask 1010001111100000
          804 303 rmoveto
          193 -135 125 -206 -259 -171 -182 -252 -242 170 -144 254 -3 vhcurveto
          29 47 -4 10 rlineto
          -230 -152 127 217 207 140 149 212 3 hvcurveto
          176 3 110 -104 -157 vvcurveto
          -131 -71 -86 -122 -16 vhcurveto
          2 44 rlineto
          hintmask 1010100111100000
          49 349 -10 6 rlineto
          hintmask 1100010111100000
          -56 -24 -67 23 rlineto
          -5 hlineto
          -160 -29 -78 -150 -134 vvcurveto
          -79 28 -52 57 -29 vhcurveto
          16 hlineto
          54 53 50 68 43 73 rrcurveto
          11 hlineto
          hintmask 1010001111100000
          -27 -189 rlineto
          225 7 127 108 191 vvcurveto
          -474 -215 rmoveto
          -13 -16 19 72 hvcurveto
          hintmask 1011000111100000
          119 52 95 88 vhcurveto
          63 -23 -1 -15 -1 -8 rlineto
          hintmask 1010001111100000
          -173 -74 -76 -86 -22 hhcurveto
          endchar
        </CharString>
        <CharString name="atilde">
          -20 21 -21 118.5 73 221.5 88 205 -20 hstem
          -6 472 vstem
          466 689 rmoveto
          -29 30 rlineto
          -9 hlineto
          -27 -26 -16 -21 -17 hhcurveto
          -25 -86 30 5 -44 hvcurveto
          -11 -3 -64 -76 rlineto
          -9 vlineto
          30 -30 rlineto
          9 hlineto
          26 25 17 23 17 hhcurveto
          26 85 -32 -5 44 hvcurveto
          10 4 64 76 rlineto
          -122 -179 rmoveto
          -107 hlineto
          -243 -501 rlineto
          90 hlineto
          23 65 26 53 95 1 109 -1 11 -58 3 -60 rlineto
          93 hlineto
          -121 192 rmoveto
          -80 -1 -75 1 106 221 rlineto
          6 hlineto
          endchar
        </CharString>
        <CharString name="b">
          -40 -3 68 -44 -21 219.5 69 143.5 69 hstemhm
          334 94 hintmask 10111000
          337 259 rmoveto
          58 25 35 45 60 vvcurveto
          74 -58 38 -92 vhcurveto
          -164 hlineto
          -40 -351 rlineto
          hintmask 01111000
          -22 -150 rlineto
          hintmask 10111000
          -2 43 61 -1 33 hhcurveto
          155 82 51 104 58 -32 32 -59 17 hvcurveto
          -159 31 rmoveto
          19 142 rlineto
          52 hlineto
          59 26 -16 -40 -51 -25 -27 -49 -11 hvcurveto
          -52 -222 rmoveto
          -16 -21 1 2 -20 hvcurveto
          9 90 8 61 93 1 rlineto
          49 -8 24 -20 -38 vvcurveto
          -59 -47 -30 -79 vhcurveto
          endchar
        </CharString>
        <CharString name="b.sups">
          -203 328 52 264 -20 hstem
          264 68 vstem
          254 644 rmoveto
          -33 -32 -32 -46 -26 -50 rrcurveto
          -7 hlineto
          38 295 -74 -6 -4 -69 -52 -390 71 -12 36 -6 rlineto
          4 hlineto
          103 21 54 95 99 vvcurveto
          54 -17 29 -50 18 vhcurveto
          -126 -251 rmoveto
          5 33 rlineto
          99 47 43 54 11 hhcurveto
          7 12 -16 -49 -73 -29 -61 -50 hvcurveto
          endchar
        </CharString>
        <CharString name="backslash">
          -223 669 10 hstem
          24 280 vstem
          98 679 rmoveto
          -66 hlineto
          -8 -10 206 -783 rlineto
          67 hlineto
          7 9 rlineto
          endchar
        </CharString>
        <CharString name="bar">
          -209 -259 7 hstem
          59 204 vstem
          263 793 rmoveto
          -6 6 -69 -5 -64 -511 -65 -535 6 -9 68 4 67 546 rlineto
          endchar
        </CharString>
        <CharString name="braceleft">
          -230 -128 61 661 61 -7 -20 hstemhm
          60 78 -36 80 -56 76 hintmask 11000100
          265 655 rmoveto
          -90 -49 -47 -103 hvcurveto
          -34 3 -45 -30 vvcurveto
          hintmask 11001000
          -64 -27 -32 -61 -13 vhcurveto
          -6 -48 rlineto
          46 -9 21 -25 -38 vvcurveto
          hintmask 11010000
          -50 -42 -81 -67 vvcurveto
          -63 36 -34 72 21 17 2 6 19 vhcurveto
          6 7 -3 51 rlineto
          -3 -14 -10 -2 -13 hhcurveto
          -35 -18 18 38 hvcurveto
          hintmask 11001000
          55 44 76 52 vvcurveto
          40 -19 32 -37 18 vhcurveto
          1 4 rlineto
          hintmask 11000100
          52 22 29 40 61 31 -6 47 33 vvcurveto
          65 23 29 47 13 10 -2 -3 13 vhcurveto
          hintmask 10100100
          15 51 -3 8 rlineto
          hintmask 11000100
          4 -18 -16 3 -21 hhcurveto
          endchar
        </CharString>
        <CharString name="braceright">
          -230 -128 62 661 60 hstemhm
          98 76 -56 79 -36 79 hintmask 11100000
          35 -128 rmoveto
          90 49 48 103 hvcurveto
          33 -4 46 29 vvcurveto
          hintmask 11010000
          64 28 33 61 12 vhcurveto
          6 48 rlineto
          -46 10 -22 24 39 vvcurveto
          hintmask 11001000
          49 43 82 67 vvcurveto
          63 -37 33 -71 -21 -17 -2 -5 -19 vhcurveto
          -6 -8 3 -50 rlineto
          3 14 10 2 13 hhcurveto
          35 17 -19 -38 hvcurveto
          hintmask 11010000
          -55 -43 -75 -53 vvcurveto
          -39 19 -33 37 -17 vhcurveto
          -1 -4 rlineto
          hintmask 11100000
          -52 -23 -29 -40 -61 -31 6 -47 -33 vvcurveto
          -64 -24 -29 -46 -13 -10 2 3 -13 vhcurveto
          -15 -52 3 -7 rlineto
          -5 18 16 -3 21 hhcurveto
          endchar
        </CharString>
        <CharString name="bracketleft">
          -230 -123 52 660.5 57.5 -6 -20 hstemhm
          41 287 hintmask 00000000
          hintmask 10110000
          328 641 rmoveto
          -4 6 rlineto
          hintmask 11010000
          -191 -10 -41 -378 -51 -377 187 -10 6 5 6 46 -113 12 79 648 116 13 rlineto
          endchar
        </CharString>
        <CharString name="bracketright">
          -230 -123 52 661 57 -51 -20 hstemhm
          -30 287 hintmask 11010000
          -30 -122 rmoveto
          4 -6 191 10 42 377 50 378 -187 10 -6 -5 rlineto
          hintmask 10110000
          -6 -46 rlineto
          hintmask 11010000
          114 -12 -80 -649 -116 -12 rlineto
          endchar
        </CharString>
        <CharString name="breve">
          528 69 49 -20 hstem
          111 268 vstem
          358 681 rmoveto
          -14 hlineto
          -56 -21 -35 -28 -49 hhcurveto
          -48 -30 28 56 -7 hvcurveto
          -15 hlineto
          -28 -35 rlineto
          -68 7 35 -50 83 hhcurveto
          71 48 47 71 24 hvcurveto
          endchar
        </CharString>
        <CharString name="breve.cap">
          542 69 hstem
          111 269 vstem
          359 670 rmoveto
          -14 hlineto
          -37 -21 -36 -22 -45 hhcurveto
          -47 -31 21 38 -10 hvcurveto
          -15 hlineto
          -29 -33 rlineto
          -61 14 47 -34 70 hhcurveto
          62 48 34 61 28 hvcurveto
          endchar
        </CharString>
        <CharString name="breveacute">
          522 69 26 33 0 -20 hstemhm
          108 269 hintmask 10110000
          339 754 rmoveto
          -44 30 -9 -1 -29 -40 -29 -37 -31 -37 rlinecurve
          32 -27 9 2 35 33 34 33 34 35 rlinecurve
          15 -95 rmoveto
          -14 hlineto
          -37 -21 -35 -22 -46 hhcurveto
          -47 -31 21 38 -10 hvcurveto
          -15 hlineto
          hintmask 11010000
          -29 -33 rlineto
          hintmask 10110000
          -61 14 47 -34 70 hhcurveto
          62 48 34 61 28 hvcurveto
          endchar
        </CharString>
        <CharString name="brevegrave">
          521 69 27 32 0 -20 hstemhm
          109 269 hintmask 10110000
          255 642 rmoveto
          32 27 -31 37 -29 37 -29 40 rlinecurve
          -9 1 -45 -30 rlineto
          -9 vlineto
          33 -35 34 -33 34 -33 rrcurveto
          112 5 rmoveto
          -14 hlineto
          -37 -21 -36 -22 -45 hhcurveto
          -47 -31 21 38 -10 hvcurveto
          -15 hlineto
          hintmask 11010000
          -29 -32 rlineto
          hintmask 10110000
          -62 14 47 -34 70 hhcurveto
          62 48 34 62 28 hvcurveto
          endchar
        </CharString>
        <CharString name="brevehookabove">
          523 69 26 33 0 -20 155 50 hstemhm
          255 56 hintmask 10111000
          242 836 rmoveto
          -31 -34 -17 -28 -27 hvcurveto
          18 -29 rlineto
          16 20 22 8 18 hhcurveto
          16 11 -7 -14 -18 -18 -25 -32 -24 hvcurveto
          35 -59 39 22 -21 36 rlineto
          37 31 16 21 26 vvcurveto
          35 -30 26 -39 vhcurveto
          114 -185 rmoveto
          -14 hlineto
          -38 -21 -35 -21 -46 hhcurveto
          -47 -31 21 38 -10 hvcurveto
          -15 hlineto
          hintmask 11011000
          -29 -33 rlineto
          hintmask 10111000
          -61 14 47 -34 70 hhcurveto
          62 48 34 61 28 hvcurveto
          endchar
        </CharString>
        <CharString name="brevetilde">
          522 67 26 31 0 -20 hstemhm
          102 308 hintmask 10110000
          410 777 rmoveto
          -27 28 rlineto
          -8 hlineto
          -25 -24 -15 -22 -16 hhcurveto
          -24 -80 30 5 -41 hvcurveto
          -10 -3 -60 -72 rlineto
          -9 vlineto
          28 -29 rlineto
          9 hlineto
          25 23 15 21 16 hhcurveto
          25 79 -30 -5 41 hvcurveto
          10 4 59 73 rlineto
          -67 -122 rmoveto
          -15 hlineto
          -37 -19 -35 -20 -44 hhcurveto
          -45 -30 20 37 -10 hvcurveto
          -15 hlineto
          hintmask 11010000
          -28 -31 rlineto
          hintmask 10110000
          -59 14 45 -34 68 hhcurveto
          60 47 34 59 27 hvcurveto
          endchar
        </CharString>
        <CharString name="brokenbar">
          -209 -259 7 hstem
          59 204 vstem
          263 793 rmoveto
          -6 6 -70 -5 -51 -422 6 -6 69 8 rlineto
          -28 -224 rmoveto
          -7 10 -67 -8 -50 -404 7 -9 67 4 rlineto
          endchar
        </CharString>
        <CharString name="bullet">
          -256 176 127 hstem
          71 124 vstem
          136 303 rmoveto
          -40 -25 -26 -40 -38 22 -23 39 39 24 25 41 38 -22 23 -37 hvcurveto
          endchar
        </CharString>
        <CharString name="bulletoperator">
          -258 176 127 hstem
          91 124 vstem
          156 303 rmoveto
          -40 -25 -26 -40 -38 22 -23 39 39 24 25 41 38 -22 23 -37 hvcurveto
          endchar
        </CharString>
        <CharString name="c">
          -76 -6 76 361 75 hstem
          40 97 vstem
          312 506 rmoveto
          -171 -101 -110 -190 -134 73 -78 132 49 39 10 22 44 hvcurveto
          18 82 -9 5 rlineto
          -26 -38 -49 -17 -45 hhcurveto
          -77 -40 52 95 141 57 73 102 48 40 -17 -26 27 hvcurveto
          11 3 26 83 rlineto
          21 -35 -49 11 -52 hhcurveto
          endchar
        </CharString>
        <CharString name="c.sups">
          -277 328 60 204 55 hstem
          59 69 vstem
          278 631 rmoveto
          -49 16 rlineto
          -119 -51 -93 -110 -77 27 -30 61 -9 hvcurveto
          11 hlineto
          43 11 29 21 29 51 -24 30 rcurveline
          -10 hlineto
          -40 -22 -20 -13 -18 hhcurveto
          -25 -12 19 49 87 27 49 51 13 12 -7 -15 14 hvcurveto
          17 2 19 52 rlineto
          endchar
        </CharString>
        <CharString name="cacute">
          -76 -6 76 361 75 92 -20 hstem
          40 97 vstem
          371 745 rmoveto
          -9 1 -58 -55 -54 -45 -58 -48 rlinecurve
          25 -38 10 -1 59 39 57 40 62 45 rlinecurve
          3 10 rlineto
          -96 -187 rmoveto
          -171 -101 -110 -190 -134 73 -78 132 49 39 10 22 44 hvcurveto
          18 82 -9 5 rlineto
          -26 -38 -49 -17 -45 hhcurveto
          -77 -40 52 95 141 57 73 102 47 41 -17 -26 27 hvcurveto
          10 3 27 83 rlineto
          21 -35 -49 11 -52 hhcurveto
          endchar
        </CharString>
        <CharString name="caron">
          597 -20 hstem
          107 280 vstem
          367 697 rmoveto
          -11 hlineto
          -43 -35 -40 -32 -34 -33 -26 33 -30 32 -36 35 rrcurveto
          -10 hlineto
          -30 -38 40 -42 40 -47 34 -48 rlinecurve
          25 hlineto
          52 52 46 46 43 39 rrcurveto
          endchar
        </CharString>
        <CharString name="caron.alt">
          510 -20 202 7 hstem
          190 101 vstem
          291 692 rmoveto
          -6 7 -70 -4 -25 -185 6 -6 46 6 rlineto
          endchar
        </CharString>
        <CharString name="caron.cap">
          541 136 hstem
          110 269 vstem
          364 677 rmoveto
          -10 hlineto
          -40 -22 -37 -21 -37 -22 -96 65 rcurveline
          -10 hlineto
          -24 -41 40 -30 38 -32 35 -33 rlinecurve
          24 hlineto
          39 33 44 32 49 30 rrcurveto
          endchar
        </CharString>
        <CharString name="ccaron">
          -76 -6 76 361 75 193 -20 hstem
          40 97 vstem
          418 737 rmoveto
          -11 hlineto
          -43 -35 -40 -32 -34 -33 -26 33 -30 32 -36 35 rrcurveto
          -10 hlineto
          -30 -38 40 -42 40 -47 34 -48 rlinecurve
          25 hlineto
          52 52 46 46 43 39 rrcurveto
          -126 -193 rmoveto
          -171 -101 -110 -190 -134 73 -78 132 49 39 10 22 44 hvcurveto
          18 82 -9 5 rlineto
          -26 -38 -49 -17 -45 hhcurveto
          -77 -40 52 95 141 57 73 102 47 41 -17 -26 27 hvcurveto
          10 3 27 83 rlineto
          21 -35 -49 11 -52 hhcurveto
          endchar
        </CharString>
        <CharString name="ccedilla">
          -76 -196 48 143 75 361 75 hstem
          40 97 135 61 vstem
          312 506 rmoveto
          -171 -101 -110 -190 -125 64 -77 116 -9 hvcurveto
          -17 -67 49 -29 rlineto
          11 -5 9 -6 -12 vvcurveto
          -16 -12 -8 -18 -23 -17 12 18 -17 vhcurveto
          -5 -2 -9 -45 rlineto
          -16 18 24 -15 34 hhcurveto
          52 34 29 41 22 -10 19 -29 16 hvcurveto
          -34 20 12 44 37 3 33 10 35 18 rlinecurve
          18 82 -9 5 rlineto
          -26 -38 -49 -17 -45 hhcurveto
          -77 -40 52 95 141 57 73 102 47 41 -17 -26 27 hvcurveto
          10 3 27 83 rlineto
          21 -35 -49 11 -52 hhcurveto
          endchar
        </CharString>
        <CharString name="ccircumflex">
          -76 -6 76 361 75 hstem
          40 97 vstem
          179 564 rmoveto
          11 hlineto
          43 35 39 32 35 33 26 -33 30 -32 35 -35 rrcurveto
          10 hlineto
          30 38 -38 42 -38 47 -35 48 rlinecurve
          -25 hlineto
          -52 -52 -47 -46 -44 -39 rrcurveto
          153 -96 rmoveto
          -171 -101 -110 -190 -134 73 -78 132 49 39 10 22 44 hvcurveto
          18 82 -9 5 rlineto
          -26 -38 -49 -17 -45 hhcurveto
          -77 -40 52 95 141 57 73 102 47 41 -17 -26 27 hvcurveto
          10 3 27 83 rlineto
          21 -35 -49 11 -52 hhcurveto
          endchar
        </CharString>
        <CharString name="cdotaccent">
          -76 -6 76 361 75 99 109 hstem
          40 97 109 107 vstem
          301 714 rmoveto
          -34 -21 -22 -34 -33 18 -20 34 33 22 22 35 32 -19 20 -33 hvcurveto
          11 -208 rmoveto
          -171 -101 -110 -190 -134 73 -78 132 49 39 10 22 44 hvcurveto
          18 82 -9 5 rlineto
          -26 -38 -49 -17 -45 hhcurveto
          -77 -40 52 95 141 57 73 102 47 41 -17 -26 27 hvcurveto
          10 3 27 83 rlineto
          21 -35 -49 11 -52 hhcurveto
          endchar
        </CharString>
        <CharString name="cedilla">
          -197 48 hstem
          168 61 vstem
          156 -50 rmoveto
          20 71 rlineto
          -53 hlineto
          -24 -94 49 -29 rlineto
          11 -5 9 -6 -12 vvcurveto
          -16 -12 -8 -18 -23 -17 12 18 -17 vhcurveto
          -5 -2 -9 -45 rlineto
          -16 18 24 -15 34 hhcurveto
          52 34 29 41 22 -10 19 -29 16 hvcurveto
          endchar
        </CharString>
        <CharString name="cent">
          -121 9 619 -20 157 9 hstem
          37 76 vstem
          346 413 rmoveto
          22 62 -6 11 -72 21 rlineto
          -8 hlineto
          22 137 -7 9 rlineto
          -48 hlineto
          -25 -153 rlineto
          -129 -30 -58 -121 -142 vvcurveto
          -114 38 -41 73 -15 vhcurveto
          -23 -149 6 -9 rlineto
          48 hlineto
          27 166 49 18 38 32 37 61 rlinecurve
          -26 35 -12 1 -26 -45 -26 -24 -23 -11 rlinecurve
          55 331 18 -3 18 -9 21 -21 rlinecurve
          -216 -189 rmoveto
          115 38 78 63 23 vhcurveto
          -55 -331 rlineto
          -31 10 -15 34 71 vvcurveto
          endchar
        </CharString>
        <CharString name="circle1">
          -67 9 -21 476 -20 hstem
          -10 476 vstem
          228 464 rmoveto
          -131 -107 -107 -131 -131 107 -107 131 131 107 107 131 131 -107 107 -131 hvcurveto
          endchar
        </CharString>
        <CharString name="circle2">
          117 649 -20 hstem
          -12 663 vstem
          319 649 rmoveto
          -183 -148 -149 -183 -183 148 -148 183 183 149 148 183 183 -149 149 -183 hvcurveto
          endchar
        </CharString>
        <CharString name="circumflex">
          699 -20 hstem
          96 279 vstem
          116 524 rmoveto
          11 hlineto
          43 35 39 32 35 33 26 -33 30 -32 35 -35 rrcurveto
          10 hlineto
          30 38 -38 42 -38 47 -35 48 rlinecurve
          -25 hlineto
          -52 -52 -47 -46 -44 -39 rrcurveto
          endchar
        </CharString>
        <CharString name="circumflex.cap">
          590 -20 hstem
          105 269 vstem
          119 549 rmoveto
          11 hlineto
          38 22 38 21 38 23 32 -23 30 -21 33 -22 rrcurveto
          10 hlineto
          25 41 -40 30 -39 32 -35 33 rlinecurve
          -24 hlineto
          -40 -33 -43 -32 -48 -30 rrcurveto
          endchar
        </CharString>
        <CharString name="circumflexacute">
          530 252 hstem
          98 318 vstem
          414 759 rmoveto
          -48 23 -8 -3 -70 -110 34 -26 rlineto
          8 hlineto
          86 107 rlineto
          -187 -84 rmoveto
          -40 -33 -43 -32 -48 -30 14 -41 rcurveline
          11 hlineto
          38 22 38 21 38 23 32 -23 30 -21 33 -22 rrcurveto
          10 hlineto
          25 41 -40 30 -39 32 -35 33 rlinecurve
          endchar
        </CharString>
        <CharString name="circumflexgrave">
          529 253 hstem
          102 280 vstem
          312 779 rmoveto
          -8 3 -49 -23 -1 -9 86 -107 rlineto
          8 hlineto
          34 26 rlineto
          -149 -4 rmoveto
          -40 -33 -43 -32 -48 -30 14 -41 rcurveline
          11 hlineto
          38 22 38 21 38 23 31 -23 31 -21 33 -22 rrcurveto
          10 hlineto
          24 41 -40 30 -39 32 -34 33 rlinecurve
          endchar
        </CharString>
        <CharString name="circumflexhookabove">
          776 48 hstem
          344 53 vstem
          332 824 rmoveto
          -30 -33 -17 -26 -25 hvcurveto
          18 -28 rlineto
          15 18 22 8 16 hhcurveto
          15 11 -7 -13 -17 -18 -24 -30 -23 hvcurveto
          33 -56 38 21 -20 34 rlineto
          35 30 15 20 24 vvcurveto
          34 -28 25 -37 vhcurveto
          -101 -158 rmoveto
          -40 -33 -43 -32 -48 -30 14 -41 rcurveline
          11 hlineto
          38 22 38 21 38 23 32 -23 30 -21 33 -22 rrcurveto
          10 hlineto
          25 41 -40 30 -39 32 -35 33 rlinecurve
          endchar
        </CharString>
        <CharString name="circumflextilde">
          531 274 hstem
          92 316 vstem
          408 776 rmoveto
          -27 29 rlineto
          -9 hlineto
          -26 -23 -16 -21 -16 hhcurveto
          -23 -80 29 5 -41 hvcurveto
          -10 -3 -60 -72 rlineto
          -8 vlineto
          28 -29 rlineto
          9 hlineto
          24 22 16 22 16 hhcurveto
          25 79 -31 -5 41 hvcurveto
          10 4 59 73 rlineto
          -185 -101 rmoveto
          -40 -33 -43 -32 -48 -30 14 -40 rcurveline
          11 hlineto
          38 21 38 21 38 23 31 -23 31 -21 33 -21 rrcurveto
          10 hlineto
          24 40 -40 30 -39 32 -34 33 rlinecurve
          endchar
        </CharString>
        <CharString name="colon">
          -292 -5 109 158 109 hstemhm
          38 107 -74 107 hintmask 00000000
          hintmask 11010000
          127 371 rmoveto
          -35 -21 -22 -34 -33 19 -20 33 34 21 22 35 32 -19 20 -32 hvcurveto
          hintmask 11100000
          -33 -267 rmoveto
          -35 -21 -22 -34 -34 19 -19 33 34 21 22 34 33 -19 20 -32 hvcurveto
          endchar
        </CharString>
        <CharString name="comma">
          -292 -68 -21 hstem
          68 81 vstem
          106 102 rmoveto
          -25 -7 -23 -11 -21 -13 rrcurveto
          -9 vlineto
          20 -15 11 -17 -20 vvcurveto
          -31 -19 -31 -36 -29 vhcurveto
          -8 vlineto
          33 -29 rlineto
          69 50 34 48 49 vvcurveto
          30 -15 24 -28 19 vhcurveto
          endchar
        </CharString>
        <CharString name="commaaccent">
          -521 -71 -21 hstem
          133 73 vstem
          167 -55 rmoveto
          -23 -7 -20 -10 -20 -12 rrcurveto
          -8 vlineto
          18 -13 11 -16 -19 vvcurveto
          -28 -18 -28 -33 -27 vhcurveto
          1 -7 29 -27 rlineto
          64 46 30 44 45 vvcurveto
          27 -14 22 -25 18 vhcurveto
          endchar
        </CharString>
        <CharString name="copyright">
          171 -12 38 100 56 227 56 0 -20 115 38 hstemhm
          56 38 111 69 338 38 hintmask 11101111
          353 598 rmoveto
          -178 -119 -122 -183 -183 119 -122 178 179 118 122 183 183 -118 122 -179 hvcurveto
          -38 vmoveto
          155 104 -107 -160 -160 -104 -107 -155 -155 -104 107 160 160 104 107 155 hvcurveto
          18 -95 rmoveto
          -107 -59 -62 -109 -108 54 -60 106 28 31 7 13 27 hvcurveto
          6 54 -7 2 rlineto
          -12 -24 -31 -8 -26 hhcurveto
          -63 -32 40 78 74 32 35 62 25 30 -8 -13 21 hvcurveto
          6 3 rlineto
          hintmask 11011111
          13 53 rlineto
          hintmask 11101111
          12 -28 -32 9 -32 hhcurveto
          endchar
        </CharString>
        <CharString name="currency">
          -85 206 56 186 55 4 -20 hstemhm
          82 56 190 54 hintmask 00000000
          hintmask 10111000
          442 507 rmoveto
          hintmask 11011000
          -39 42 -10 -1 -70 -68 rlineto
          15 -19 -26 8 -27 hhcurveto
          -29 -28 -9 -16 -24 hvcurveto
          -56 69 rlineto
          -10 hlineto
          -47 -44 rlineto
          -10 vlineto
          61 -61 rlineto
          -21 -26 -15 -30 -34 vvcurveto
          -24 6 -24 11 -18 vhcurveto
          -74 -62 -3 -10 40 -42 rlineto
          10 hlineto
          69 69 rlineto
          -16 19 27 -9 27 hhcurveto
          29 29 10 16 25 hvcurveto
          54 -67 10 -1 48 44 rlineto
          10 vlineto
          -62 61 rlineto
          22 26 13 31 33 vvcurveto
          hintmask 10111000
          24 -6 23 -11 18 vhcurveto
          75 63 rlineto
          hintmask 11011000
          -196 -49 rmoveto
          50 34 -35 -48 -59 -48 -44 -59 -49 -34 34 49 58 49 45 57 hvcurveto
          endchar
        </CharString>
        <CharString name="d">
          32 -5 73 -47 -21 428 76 hstemhm
          423 96 hintmask 10110000
          116 501 rmoveto
          -40 -351 rlineto
          hintmask 01110000
          -22 -150 rlineto
          hintmask 10110000
          -3 50 93 -2 37 hhcurveto
          184 101 118 193 126 -78 72 -130 hvcurveto
          -58 -436 rmoveto
          -18 -51 3 3 -32 hvcurveto
          9 84 36 266 rlineto
          2 31 53 2 17 hhcurveto
          82 43 -44 -95 -150 -64 -71 -106 hvcurveto
          endchar
        </CharString>
        <CharString name="d.sups">
          -206 328 66 198 52 hstem
          56 68 vstem
          345 811 rmoveto
          -74 -6 -3 -69 -13 -96 -35 4 rlineto
          -4 hlineto
          -107 -21 -53 -97 -97 vvcurveto
          -53 16 -31 51 -17 vhcurveto
          12 hlineto
          33 33 31 44 26 51 rrcurveto
          6 hlineto
          -17 -127 73 6 5 72 rlineto
          -149 -13 rmoveto
          -8 -11 17 45 77 28 59 53 hvcurveto
          43 -8 -6 -42 rlineto
          -96 -46 -41 -52 -12 hhcurveto
          endchar
        </CharString>
        <CharString name="dagger">
          -32 -94 8 425 67 179 -20 25 -20 hstemhm
          219.5 68 hintmask 11011000
          456 339 rmoveto
          13 60 -6 7 rlineto
          -164 hlineto
          hintmask 11101000
          23 179 -6 5 rlineto
          hintmask 11011000
          -63 -5 -22 -179 rlineto
          -162 hlineto
          -13 -59 5 -8 rlineto
          162 hlineto
          -7 -56 -46 -369 6 -8 62 4 46 377 7 52 rlineto
          endchar
        </CharString>
        <CharString name="daggerdbl">
          -33 -94 8 165 66 202 66 172 -20 25 -20 hstemhm
          219 68.5 hintmask 11101100
          284 287 rmoveto
          7 60 rlineto
          166 hlineto
          12 59 -6 7 rlineto
          -163 hlineto
          hintmask 11110100
          21 172 -5 5 rlineto
          hintmask 11101100
          -64 -5 -21 -172 rlineto
          -162 hlineto
          -13 -59 6 -7 rlineto
          161 hlineto
          -8 -64 -17 -138 rlineto
          -162 hlineto
          -13 -59 7 -7 rlineto
          160 hlineto
          -20 -165 6 -8 61 4 21 169 rlineto
          166 hlineto
          12 59 -6 7 rlineto
          -164 hlineto
          endchar
        </CharString>
        <CharString name="dcaron">
          32 -5 73 -47 -21 428 76 195 -20 hstemhm
          423 95 hintmask 10111000
          309 562 rmoveto
          52 52 46 46 43 39 -20 38 rcurveline
          -11 hlineto
          -43 -35 -40 -32 -34 -33 -26 33 -30 32 -36 35 rrcurveto
          -10 hlineto
          -30 -38 40 -42 40 -47 34 -48 rlinecurve
          -168 -61 rmoveto
          -40 -351 rlineto
          hintmask 01111000
          -22 -150 rlineto
          hintmask 10111000
          -3 49 93 -2 38 hhcurveto
          184 100 118 193 126 -77 72 -131 hvcurveto
          -57 -436 rmoveto
          -18 -52 3 3 -31 hvcurveto
          8 84 37 266 rlineto
          2 31 53 2 17 hhcurveto
          82 43 -44 -95 -150 -64 -71 -106 hvcurveto
          endchar
        </CharString>
        <CharString name="dcroat">
          32 -5 73 -47 -21 428 76 116 63 hstemhm
          423 95 hintmask 10111000
          170 620 rmoveto
          282 hlineto
          5 56 -6 7 rlineto
          -282 hlineto
          -6 -55 rlineto
          -47 -127 rmoveto
          -40 -351 rlineto
          hintmask 01111000
          -22 -150 rlineto
          hintmask 10111000
          -3 49 93 -2 38 hhcurveto
          184 100 118 193 126 -77 72 -131 hvcurveto
          -57 -436 rmoveto
          -18 -52 3 3 -31 hvcurveto
          8 84 37 266 rlineto
          2 31 53 2 17 hhcurveto
          82 43 -44 -95 -150 -64 -71 -106 hvcurveto
          endchar
        </CharString>
        <CharString name="degree">
          -228 397 45 162 45 hstem
          54 46 165 46 vstem
          198 649 rmoveto
          -76 -68 -62 -77 -64 47 -49 67 75 68 63 76 64 -47 49 -66 hvcurveto
          -5 -45 rmoveto
          41 31 -32 -41 -49 -43 -40 -50 -41 -31 33 40 49 44 40 49 hvcurveto
          endchar
        </CharString>
        <CharString name="dieresis">
          558 103 hstem
          109 100 65 99 vstem
          162 662 rmoveto
          -33 -20 -21 -32 -32 17 -18 32 31 20 21 33 29 -18 20 -29 hvcurveto
          164 -1 rmoveto
          -33 -19 -21 -32 -31 17 -19 32 31 19 21 33 30 -17 19 -30 hvcurveto
          endchar
        </CharString>
        <CharString name="dieresis.i">
          558 103 hstem
          124 100 35 100 vstem
          176 661 rmoveto
          -32 -20 -21 -32 -32 17 -18 32 31 20 21 33 30 -18 19 -30 hvcurveto
          135 hmoveto
          -32 -20 -21 -32 -32 17 -18 32 31 20 21 33 30 -18 19 -30 hvcurveto
          endchar
        </CharString>
        <CharString name="dieresisacute">
          542 97 hstem
          108 96 67 96 vstem
          350 806 rmoveto
          -9 4 -74 -28 -68 -21 -71 -21 rlinecurve
          9 -45 10 -5 70 13 68 14 75 18 rlinecurve
          5 10 rlineto
          -207 -106 rmoveto
          -31 -19 -20 -30 -30 17 -17 29 31 19 20 30 30 -17 17 -29 hvcurveto
          163 hmoveto
          -31 -19 -20 -30 -30 17 -17 29 31 19 20 30 30 -18 17 -28 hvcurveto
          endchar
        </CharString>
        <CharString name="dieresiscaron">
          542 97 hstem
          111 96 67 96 vstem
          374 795 rmoveto
          -11 hlineto
          -39 -22 -37 -21 -38 -23 -32 23 -31 21 -32 22 rrcurveto
          -10 hlineto
          -25 -41 40 -30 39 -32 35 -33 rlinecurve
          24 hlineto
          39 33 44 32 48 30 rrcurveto
          -227 -115 rmoveto
          -31 -19 -20 -30 -30 18 -17 29 31 18 20 30 30 -17 17 -29 hvcurveto
          163 hmoveto
          -31 -19 -20 -30 -30 18 -17 29 30 19 20 30 30 -17 17 -29 hvcurveto
          endchar
        </CharString>
        <CharString name="dieresisgrave">
          542 97 hstem
          107 97 66 97 vstem
          164 806 rmoveto
          -21 -61 4 -10 72 -18 67 -14 67 -13 rlinecurve
          11 5 15 45 -68 21 -66 21 -70 28 rlinecurve
          -13 -171 rmoveto
          -33 -22 -22 -33 -26 15 -16 27 34 21 22 33 26 -16 16 -26 hvcurveto
          163 hmoveto
          -34 -21 -22 -33 -26 15 -16 27 33 22 22 33 26 -16 16 -26 hvcurveto
          endchar
        </CharString>
        <CharString name="dieresismacron">
          542 97 63 8 -8 64 hstemhm
          121 96 67 96 hintmask 00000000
          hintmask 00111000
          402 759 rmoveto
          -7 7 rlineto
          -266 hlineto
          hintmask 11011000
          -5 -56 7 -8 rlineto
          265 hlineto
          -225 -63 rmoveto
          -31 -19 -20 -30 -30 18 -17 29 31 18 20 30 30 -17 17 -29 hvcurveto
          163 hmoveto
          -31 -19 -20 -30 -30 18 -17 29 30 19 20 30 30 -17 17 -29 hvcurveto
          endchar
        </CharString>
        <CharString name="divide">
          -44 42 101 87 67 92 100 hstemhm
          172 98 -57 99 hintmask 01101000
          265 489 rmoveto
          -32 -20 -20 -31 -31 18 -18 31 30 20 20 32 30 -17 18 -30 hvcurveto
          190 -199 rmoveto
          -8 7 rlineto
          -410 hlineto
          -6 -60 7 -7 rlineto
          411 hlineto
          hintmask 11110000
          -226 -87 rmoveto
          -32 -19 -21 -31 -31 17 -18 31 31 19 21 32 29 -17 19 -30 hvcurveto
          endchar
        </CharString>
        <CharString name="divisionslash">
          -235 -114 9 774 10 hstem
          -12 333 vstem
          321 669 rmoveto
          -7 10 rlineto
          -66 hlineto
          -260 -784 6 -9 rlineto
          67 hlineto
          endchar
        </CharString>
        <CharString name="dollar">
          -87 -131 9 116 63 -42 -21 509 -20 149 9 hstemhm
          71 81 137 81 hintmask 10111110
          370 403 rmoveto
          21 77 -33 14 -39 7 -35 2 rlinecurve
          17 129 -9 9 rlineto
          -48 hlineto
          -16 -139 rlineto
          -98 -13 -59 -66 -72 vvcurveto
          -75 62 -31 58 -26 vhcurveto
          hintmask 11011110
          -22 -162 -39 4 -47 19 -32 33 rlinecurve
          -11 -5 -18 -81 42 -21 54 -10 44 -2 rlinecurve
          -14 -116 8 -9 rlineto
          48 hlineto
          16 129 rlineto
          97 17 53 69 67 vvcurveto
          72 -58 31 -56 26 vhcurveto
          21 159 26 -5 26 -12 27 -23 rlinecurve
          -204 -33 rmoveto
          30 24 31 44 10 vhcurveto
          -18 -132 rlineto
          -29 16 -21 18 27 vvcurveto
          137 -232 rmoveto
          -30 -23 -28 -38 -13 vhcurveto
          17 130 rlineto
          26 -15 18 -18 -26 vvcurveto
          endchar
        </CharString>
        <CharString name="dotaccent">
          565 109 hstem
          189 107 vstem
          244 674 rmoveto
          -34 -21 -22 -34 -33 18 -20 34 33 22 22 35 32 -19 20 -33 hvcurveto
          endchar
        </CharString>
        <CharString name="dotbelowcomb">
          -521 -175 109 hstem
          97 107 vstem
          153 -66 rmoveto
          -35 -21 -22 -34 -34 19 -19 33 34 21 22 35 32 -19 20 -32 hvcurveto
          endchar
        </CharString>
        <CharString name="dotlessi">
          -260 21 -21 501 -20 hstem
          54 154 vstem
          160 158 rmoveto
          48 343 rlineto
          -92 hlineto
          -39 -351 -23 -150 rlineto
          91 hlineto
          endchar
        </CharString>
        <CharString name="dotlessj">
          -223 430.5 70.5 hstemhm
          -3 239 -135 85.5 hintmask 11000000
          236 501 rmoveto
          hintmask 10100000
          -184 hlineto
          -14 -64 5 -7 93 1 -31 -276 -8 -59 -6 -54 -28 -32 -65 -33 rlinecurve
          -1 -9 28 -50 108 46 39 47 10 83 rlinecurve
          9 71 rlineto
          endchar
        </CharString>
        <CharString name="down">
          -107 74 287 hstem
          64 287 vstem
          207 74 rmoveto
          144 287 rlineto
          -287 hlineto
          endchar
        </CharString>
        <CharString name="e">
          -92 0 73.5 145 73 136 73.5 hstem
          54 378 vstem
          198 427 rmoveto
          97 1 121 -5 16 70 -4 8 rlineto
          -312 hlineto
          -40 -351 -22 -150 rlineto
          308 hlineto
          16 70 -6 7 -130 -4 -90 1 9 84 8 60 87 1 90 -3 15 71 -5 7 -83 -3 -94 1 rlineto
          endchar
        </CharString>
        <CharString name="e.sups">
          -251 328 54 219 47 hstem
          60 69 99 65 vstem
          253 435 rmoveto
          -11 1 rlineto
          -36 -20 -25 -18 -26 hhcurveto
          -28 -13 19 50 -1 hvcurveto
          116 35 48 41 53 vvcurveto
          39 -26 22 -40 7 vhcurveto
          -8 hlineto
          -95 -5 -63 -80 -1 -117 -1 -70 27 -41 72 -7 rrcurveto
          8 hlineto
          42 9 38 24 30 44 rrcurveto
          -74 196 rmoveto
          18 8 -11 -15 -32 -33 -27 -64 -22 hvcurveto
          67 6 27 40 38 hhcurveto
          endchar
        </CharString>
        <CharString name="eacute">
          -92 0 73.5 145 73 136 73.5 97 -20 hstem
          54 377 vstem
          206 560 rmoveto
          10 -1 59 39 57 40 62 45 rlinecurve
          3 10 -37 52 -9 1 -58 -55 -54 -45 -58 -48 rlinecurve
          17 -171 rmoveto
          97 1 121 -5 15 70 -4 8 rlineto
          -311 hlineto
          -40 -351 -22 -150 rlineto
          309 hlineto
          15 70 -5 7 -130 -4 -91 1 9 84 8 60 87 1 90 -3 14 71 -4 7 -84 -3 -93 1 rlineto
          endchar
        </CharString>
        <CharString name="ebreve">
          -92 0 73.5 145 73 136 73.5 67 69 hstem
          54 377 vstem
          277 568 rmoveto
          71 48 47 71 24 hvcurveto
          -21 35 rlineto
          -14 hlineto
          -56 -21 -35 -28 -49 hhcurveto
          -48 -30 28 56 -7 hvcurveto
          -15 hlineto
          -28 -35 rlineto
          -68 7 35 -50 83 hhcurveto
          -79 -141 rmoveto
          97 1 121 -5 15 70 -4 8 rlineto
          -311 hlineto
          -40 -351 -22 -150 rlineto
          309 hlineto
          15 70 -5 7 -130 -4 -91 1 9 84 8 60 87 1 90 -3 14 71 -4 7 -84 -3 -93 1 rlineto
          endchar
        </CharString>
        <CharString name="ecaron">
          -92 0 73.5 145 73 136 73.5 198 -20 hstem
          54 377 vstem
          286 562 rmoveto
          52 52 46 46 43 39 -20 38 rcurveline
          -11 hlineto
          -43 -35 -40 -32 -34 -33 -26 33 -30 32 -36 35 rrcurveto
          -10 hlineto
          -30 -38 40 -42 40 -47 34 -48 rlinecurve
          -63 -135 rmoveto
          97 1 121 -5 15 70 -4 8 rlineto
          -311 hlineto
          -40 -351 -22 -150 rlineto
          309 hlineto
          15 70 -5 7 -130 -4 -91 1 9 84 8 60 87 1 90 -3 14 71 -4 7 -84 -3 -93 1 rlineto
          endchar
        </CharString>
        <CharString name="ecircumflex">
          -92 0 73.5 145 73 136 73.5 hstem
          54 377 vstem
          168 564 rmoveto
          11 hlineto
          43 35 39 32 35 33 26 -33 30 -32 35 -35 rrcurveto
          10 hlineto
          30 38 -38 42 -38 47 -35 48 rlinecurve
          -25 hlineto
          -52 -52 -47 -46 -44 -39 rrcurveto
          50 -175 rmoveto
          97 1 121 -5 15 70 -4 8 rlineto
          -311 hlineto
          -40 -351 -22 -150 rlineto
          309 hlineto
          15 70 -5 7 -130 -4 -91 1 9 84 8 60 87 1 90 -3 14 71 -4 7 -84 -3 -93 1 rlineto
          endchar
        </CharString>
        <CharString name="ecircumflexacute">
          -92 0 73.5 145 73 136 73.5 205 -20 23 -20 hstemhm
          54 409 hintmask 11101100
          369 683 rmoveto
          8 hlineto
          86 107 -2 9 -48 23 -8 -3 -70 -110 rlineto
          -176 -139 rmoveto
          11 hlineto
          38 22 38 21 38 23 32 -23 30 -21 33 -22 rrcurveto
          10 hlineto
          hintmask 11110100
          25 41 -40 30 -39 32 -35 33 rlinecurve
          -24 hlineto
          -40 -33 -43 -32 -48 -30 rrcurveto
          282 -110 rmoveto
          -311 hlineto
          -40 -351 -22 -150 rlineto
          309 hlineto
          15 70 -5 7 -130 -4 -91 1 9 84 8 60 87 1 90 -3 14 71 -4 7 -84 -3 -93 1 19 135 97 1 121 -5 15 70 rlineto
          endchar
        </CharString>
        <CharString name="ecircumflexdotbelow">
          -92 -175 109 66 73.5 145 73 136 73.5 hstem
          157 107 vstem
          168 564 rmoveto
          11 hlineto
          43 35 39 32 35 33 26 -33 30 -32 35 -35 rrcurveto
          10 hlineto
          30 38 -38 42 -38 47 -35 48 rlinecurve
          -25 hlineto
          -52 -52 -47 -46 -44 -39 rrcurveto
          50 -175 rmoveto
          97 1 121 -5 15 70 -4 8 rlineto
          -311 hlineto
          -40 -351 -22 -150 rlineto
          309 hlineto
          15 70 -5 7 -130 -4 -91 1 9 84 8 60 87 1 90 -3 14 71 -4 7 -84 -3 -93 1 rlineto
          34 -358 rmoveto
          -35 -21 -22 -34 -34 19 -19 33 34 21 22 35 32 -19 20 -32 hvcurveto
          endchar
        </CharString>
        <CharString name="ecircumflexgrave">
          -92 0 73.5 145 73 136 73.5 204 -20 24 -20 hstemhm
          54 377 hintmask 00000000
          hintmask 11110100
          387 683 rmoveto
          8 hlineto
          hintmask 11101100
          34 26 -70 110 -8 3 -49 -23 -1 -9 rlineto
          -138 -221 rmoveto
          11 hlineto
          38 22 38 21 38 23 31 -23 31 -21 33 -22 rrcurveto
          10 hlineto
          hintmask 11110100
          24 41 -40 30 -39 32 -34 33 rlinecurve
          -24 hlineto
          -40 -33 -43 -32 -48 -30 rrcurveto
          49 -183 rmoveto
          97 1 121 -5 15 70 -4 8 rlineto
          -311 hlineto
          -40 -351 -22 -150 rlineto
          309 hlineto
          15 70 -5 7 -130 -4 -91 1 9 84 8 60 87 1 90 -3 14 71 -4 7 -84 -3 -93 1 rlineto
          endchar
        </CharString>
        <CharString name="ecircumflexhookabove">
          -92 0 73.5 145 73 136 73.5 205 -20 130 48 hstem
          391 53 vstem
          365 816 rmoveto
          15 11 -7 -13 -17 -18 -24 -30 -23 hvcurveto
          33 -56 38 21 -20 34 rlineto
          35 30 15 20 24 vvcurveto
          34 -28 25 -37 -30 -33 -17 -26 -25 vhcurveto
          18 -28 rlineto
          15 18 22 8 16 hhcurveto
          -204 -246 rmoveto
          11 hlineto
          38 22 38 21 38 23 32 -23 30 -21 33 -22 rrcurveto
          10 hlineto
          25 41 -40 30 -39 32 -35 33 rlinecurve
          -24 hlineto
          -40 -33 -43 -32 -48 -30 rrcurveto
          280 -110 rmoveto
          -311 hlineto
          -40 -351 -22 -150 rlineto
          309 hlineto
          15 70 -5 7 -130 -4 -91 1 9 84 8 60 87 1 90 -3 14 71 -4 7 -84 -3 -93 1 19 135 97 1 121 -5 15 70 rlineto
          endchar
        </CharString>
        <CharString name="ecircumflextilde">
          -92 0 73.5 145 73 136 73.5 205 -20 hstem
          54 420 vstem
          474 816 rmoveto
          -27 29 rlineto
          -9 hlineto
          -26 -23 -16 -21 -16 hhcurveto
          -23 -80 29 5 -41 hvcurveto
          -10 -3 -60 -72 rlineto
          -8 vlineto
          28 -29 rlineto
          9 hlineto
          24 22 16 22 16 hhcurveto
          25 79 -31 -5 41 hvcurveto
          10 4 59 73 rlineto
          -177 -171 rmoveto
          31 -23 31 -21 33 -21 rrcurveto
          10 hlineto
          24 40 -40 30 -39 32 -34 33 rlinecurve
          -24 hlineto
          -40 -33 -43 -32 -48 -30 14 -40 rcurveline
          11 hlineto
          38 21 38 21 38 23 rrcurveto
          130 -135 rmoveto
          -311 hlineto
          -40 -351 -22 -150 rlineto
          309 hlineto
          15 70 -5 7 -130 -4 -91 1 9 84 8 60 87 1 90 -3 14 71 -4 7 -84 -3 -93 1 19 135 97 1 121 -5 15 70 rlineto
          endchar
        </CharString>
</ttFont>
